<?xml version="1.0" encoding="UTF-8"?>
<!DOCTYPE svg PUBLIC "-//W3C//DTD SVG 1.1//EN" "http://www.w3.org/Graphics/SVG/1.1/DTD/svg11.dtd">
<svg xmlns="http://www.w3.org/2000/svg" version="1.1" width="500px" height="500px" style="shape-rendering:geometricPrecision; text-rendering:geometricPrecision; image-rendering:optimizeQuality; fill-rule:evenodd; clip-rule:evenodd" xmlns:xlink="http://www.w3.org/1999/xlink">
<g><path style="opacity:0.959" fill="#f5f5f5" d="M 309.5,82.5 C 315.308,81.6519 319.142,83.9852 321,89.5C 323.333,91.1667 325.667,92.8333 328,94.5C 330.171,99.3299 329.004,103.163 324.5,106C 312.833,106.667 301.167,106.667 289.5,106C 286.186,101.267 287.353,98.0999 293,96.5C 293.36,94.3921 294.027,92.3921 295,90.5C 299.741,87.6132 304.574,84.9465 309.5,82.5 Z"/></g>
<g><path style="opacity:1" fill="#a8b0b2" d="M 324.5,262.5 C 324.5,263.167 324.5,263.833 324.5,264.5C 324.5,265.5 324.5,266.5 324.5,267.5C 324.5,269.167 324.5,270.833 324.5,272.5C 324.5,290.833 324.5,309.167 324.5,327.5C 325.833,327.5 327.167,327.5 328.5,327.5C 329.791,327.263 330.791,327.596 331.5,328.5C 319.833,328.5 308.167,328.5 296.5,328.5C 296.842,327.662 297.508,327.328 298.5,327.5C 300.5,327.5 302.5,327.5 304.5,327.5C 304.832,271.997 304.499,216.664 303.5,161.5C 297.324,139.177 282.657,129.343 259.5,132C 239.331,137.645 229.998,150.812 231.5,171.5C 224.167,171.5 216.833,171.5 209.5,171.5C 209.5,173.5 209.5,175.5 209.5,177.5C 207.588,144.571 222.255,122.738 253.5,112C 288.574,106.944 311.74,121.111 323,154.5C 324.461,190.465 324.961,226.465 324.5,262.5 Z"/></g>
<g><path style="opacity:0.92" fill="#f5f5f5" d="M 262.5,151.5 C 264.527,151.338 266.527,151.505 268.5,152C 270,154.833 272.167,157 275,158.5C 275.944,161.347 275.444,163.847 273.5,166C 265.996,167.471 258.496,167.305 251,165.5C 250.333,164.167 250.333,162.833 251,161.5C 253.794,156.866 257.627,153.533 262.5,151.5 Z"/></g>
<g><path style="opacity:0.911" fill="#f5f5f5" d="M 389.5,155.5 C 394.775,156.247 398.942,158.914 402,163.5C 402.913,166.352 402.08,168.519 399.5,170C 392.167,170.667 384.833,170.667 377.5,170C 376.328,168.132 376.495,166.298 378,164.5C 381.084,160.394 384.918,157.394 389.5,155.5 Z"/></g>
<g><path style="opacity:0.998" fill="#939b9e" d="M 231.5,171.5 C 231.665,174.518 231.498,177.518 231,180.5C 230.329,181.252 229.496,181.586 228.5,181.5C 222.833,181.5 217.167,181.5 211.5,181.5C 209.824,180.817 209.157,179.483 209.5,177.5C 209.5,175.5 209.5,173.5 209.5,171.5C 216.833,171.5 224.167,171.5 231.5,171.5 Z"/></g>
<g><path style="opacity:0.081" fill="#ebeceb" d="M 145.5,183.5 C 146.386,182.224 147.386,182.224 148.5,183.5C 147.575,184.562 146.575,184.562 145.5,183.5 Z"/></g>
<g><path style="opacity:0.951" fill="#ececec" d="M 120.5,182.5 C 123.259,183.885 126.259,184.552 129.5,184.5C 132.98,184.418 136.313,183.752 139.5,182.5C 139.394,185.108 138.228,187.108 136,188.5C 134.809,196.93 133.142,205.263 131,213.5C 126.542,217.212 121.376,219.379 115.5,220C 113.926,221.826 113.093,223.993 113,226.5C 112.351,233.293 113.018,239.96 115,246.5C 119.751,253.666 124.251,261 128.5,268.5C 125.748,271.134 122.915,271.134 120,268.5C 116.318,260.169 111.152,253.002 104.5,247C 107.272,243.631 108.439,239.797 108,235.5C 106.667,232.167 105.333,228.833 104,225.5C 101,223.833 98,222.167 95,220.5C 92.6152,211.942 93.2819,203.608 97,195.5C 99.3008,195.301 101.467,194.801 103.5,194C 106.698,190.888 109.698,187.555 112.5,184C 113.803,183.79 115.136,183.957 116.5,184.5C 118.171,184.332 119.504,183.665 120.5,182.5 Z"/></g>
<g><path style="opacity:0.762" fill="#e7e7e8" d="M 160.5,198.5 C 159.833,198.167 159.167,197.833 158.5,197.5C 158.5,197.167 158.5,196.833 158.5,196.5C 158.084,194.248 156.751,192.748 154.5,192C 151.854,191.503 149.187,191.336 146.5,191.5C 148.369,190.835 150.369,190.169 152.5,189.5C 151.687,188.186 150.687,187.019 149.5,186C 151.07,183.073 153.404,182.073 156.5,183C 158.749,185.505 160.749,188.172 162.5,191C 161.516,192.657 160.516,194.323 159.5,196C 160.252,196.671 160.586,197.504 160.5,198.5 Z"/></g>
<g><path style="opacity:1" fill="#24363d" d="M 146.5,191.5 C 149.187,191.336 151.854,191.503 154.5,192C 156.751,192.748 158.084,194.248 158.5,196.5C 153.914,197.36 149.914,199.36 146.5,202.5C 145.692,204.423 145.192,206.423 145,208.5C 142.833,207 141.333,207.5 140.5,210C 143.705,212.333 146.539,215.166 149,218.5C 150.616,221.824 150.783,225.157 149.5,228.5C 147.517,228.157 146.183,228.824 145.5,230.5C 143.692,229.683 142.192,230.35 141,232.5C 140.833,233.667 140.667,234.833 140.5,236C 142.736,242.873 145.069,249.707 147.5,256.5C 140.27,258.213 135.937,255.38 134.5,248C 135.779,241.382 136.779,234.715 137.5,228C 136.188,219.866 135.688,211.699 136,203.5C 136.563,196.779 140.063,192.779 146.5,191.5 Z"/></g>
<g><path style="opacity:1" fill="#f0ac70" d="M 158.5,196.5 C 158.5,196.833 158.5,197.167 158.5,197.5C 163.011,203.212 164.178,209.545 162,216.5C 154.764,221.783 155.764,225.449 165,227.5C 166.011,226.663 167.178,226.33 168.5,226.5C 169.041,229.652 168.041,232.152 165.5,234C 161.833,234.667 158.167,234.667 154.5,234C 153.584,233.722 152.918,233.222 152.5,232.5C 151.5,231.167 150.5,229.833 149.5,228.5C 150.783,225.157 150.616,221.824 149,218.5C 146.539,215.166 143.705,212.333 140.5,210C 141.333,207.5 142.833,207 145,208.5C 145.192,206.423 145.692,204.423 146.5,202.5C 149.914,199.36 153.914,197.36 158.5,196.5 Z"/></g>
<g><path style="opacity:0.997" fill="#2d3b40" d="M 158.5,197.5 C 159.167,197.833 159.833,198.167 160.5,198.5C 165.984,206.945 169.318,216.278 170.5,226.5C 169.833,226.5 169.167,226.5 168.5,226.5C 167.178,226.33 166.011,226.663 165,227.5C 155.764,225.449 154.764,221.783 162,216.5C 164.178,209.545 163.011,203.212 158.5,197.5 Z"/></g>
<g><path style="opacity:1" fill="#96befe" d="M 212.5,208.5 C 216.5,208.833 216.5,209.167 212.5,209.5C 212.5,222.167 212.5,234.833 212.5,247.5C 208.557,246.514 204.557,245.848 200.5,245.5C 196.339,247.063 192.005,247.729 187.5,247.5C 187.5,234.833 187.5,222.167 187.5,209.5C 190.768,208.178 194.435,207.511 198.5,207.5C 203.201,207.592 207.868,207.925 212.5,208.5 Z"/></g>
<g><path style="opacity:1" fill="#95befe" d="M 229.5,209.5 C 237.858,209.379 246.191,209.712 254.5,210.5C 255.675,212.384 256.342,214.551 256.5,217C 255.747,227.206 254.747,237.373 253.5,247.5C 253.5,247.833 253.5,248.167 253.5,248.5C 246.946,252.028 240.446,255.695 234,259.5C 233.536,258.906 233.369,258.239 233.5,257.5C 234.919,254.9 236.585,252.4 238.5,250C 238.167,249.833 237.833,249.667 237.5,249.5C 235.393,251.53 233.393,253.697 231.5,256C 230.552,256.483 229.552,256.649 228.5,256.5C 228.519,254.94 228.852,253.44 229.5,252C 229.164,250.97 228.497,250.47 227.5,250.5C 227.5,237.167 227.5,223.833 227.5,210.5C 224.482,210.665 221.482,210.498 218.5,210C 222.152,209.501 225.818,209.335 229.5,209.5 Z"/></g>
<g><path style="opacity:1" fill="#a6c8fe" d="M 254.5,210.5 C 261.202,210.336 267.869,210.669 274.5,211.5C 272.766,237.574 270.433,263.574 267.5,289.5C 266.837,287.359 266.503,285.025 266.5,282.5C 267.5,271.834 268.5,261.168 269.5,250.5C 269.167,248.833 268.833,247.167 268.5,245.5C 265.697,244.224 263.03,244.224 260.5,245.5C 258.079,245.878 255.746,246.545 253.5,247.5C 254.747,237.373 255.747,227.206 256.5,217C 256.342,214.551 255.675,212.384 254.5,210.5 Z"/></g>
<g><path style="opacity:1" fill="#a1866b" d="M 149.5,228.5 C 150.5,229.833 151.5,231.167 152.5,232.5C 150.079,232.122 147.746,231.455 145.5,230.5C 146.183,228.824 147.517,228.157 149.5,228.5 Z"/></g>
<g><path style="opacity:0.988" fill="#ebebeb" d="M 396.5,306.5 C 387.575,314.012 386.075,323.012 392,333.5C 395.464,336.805 399.297,339.472 403.5,341.5C 401.067,341.786 401.067,342.452 403.5,343.5C 403.5,343.833 403.5,344.167 403.5,344.5C 401.983,344.511 400.816,345.177 400,346.5C 399.774,350.887 399.274,355.221 398.5,359.5C 399.949,360.172 401.282,360.839 402.5,361.5C 396.765,360.535 392.432,362.535 389.5,367.5C 388.893,367.376 388.56,367.043 388.5,366.5C 389.757,365.377 389.424,364.711 387.5,364.5C 387.158,363.662 386.492,363.328 385.5,363.5C 383.769,360.504 382.769,357.171 382.5,353.5C 383.396,351.199 383.562,348.866 383,346.5C 381.644,345.62 380.144,345.286 378.5,345.5C 378.666,350.844 378.499,356.177 378,361.5C 375.72,363.037 373.22,364.203 370.5,365C 369.663,366.011 369.33,367.178 369.5,368.5C 368.167,368.833 368.167,369.167 369.5,369.5C 369.013,370.473 368.513,371.473 368,372.5C 368.219,367.515 368.219,362.515 368,357.5C 367.329,356.748 366.496,356.414 365.5,356.5C 367.9,346.915 364.567,340.249 355.5,336.5C 355.806,339.385 355.473,342.052 354.5,344.5C 354.5,335.5 354.5,326.5 354.5,317.5C 351.833,317.5 349.167,317.5 346.5,317.5C 342.833,317.5 339.167,317.5 335.5,317.5C 335.5,322.167 335.5,326.833 335.5,331.5C 335.167,331.5 334.833,331.5 334.5,331.5C 333.833,330.167 332.833,329.167 331.5,328.5C 330.791,327.596 329.791,327.263 328.5,327.5C 326.602,321.659 326.102,315.659 327,309.5C 332.745,302.767 338.079,303.1 343,310.5C 343.495,312.473 343.662,314.473 343.5,316.5C 347.167,316.5 350.833,316.5 354.5,316.5C 353.918,308.745 357.584,304.745 365.5,304.5C 365.3,297.268 362.3,291.435 356.5,287C 355.5,286.333 354.5,286.333 353.5,287C 352.774,288.397 351.607,289.231 350,289.5C 347.176,288.946 344.343,288.446 341.5,288C 339.5,287.333 338.167,286 337.5,284C 334.066,283.442 330.733,282.609 327.5,281.5C 326.371,278.491 325.371,275.491 324.5,272.5C 324.5,270.833 324.5,269.167 324.5,267.5C 325.833,266.5 325.833,265.5 324.5,264.5C 324.5,263.833 324.5,263.167 324.5,262.5C 326.747,259.675 329.581,257.675 333,256.5C 332.696,252.439 334.196,249.273 337.5,247C 338.803,246.79 340.136,246.957 341.5,247.5C 343.325,246.349 345.325,245.682 347.5,245.5C 346.859,236.638 351.025,231.971 360,231.5C 363.735,231.906 367.235,232.906 370.5,234.5C 379.211,231.114 386.544,232.947 392.5,240C 397.004,240.496 400.504,242.663 403,246.5C 403.273,249.393 404.107,252.06 405.5,254.5C 405.471,256.029 404.804,257.196 403.5,258C 406.578,258.914 408.911,260.747 410.5,263.5C 411.185,266.658 412.185,269.658 413.5,272.5C 412.107,274.94 411.273,277.607 411,280.5C 408.177,281.329 406.343,283.162 405.5,286C 399.833,285.667 394.167,285.333 388.5,285C 382.286,293.761 378.286,303.427 376.5,314C 377.166,319.817 377.666,325.651 378,331.5C 381.791,334.577 383.624,333.577 383.5,328.5C 382.833,324.167 382.167,319.833 381.5,315.5C 381.992,309.337 385.326,305.671 391.5,304.5C 393.3,304.902 394.967,305.569 396.5,306.5 Z M 359.5,276.5 C 361.963,276.781 364.13,277.781 366,279.5C 366.457,284.805 364.457,285.805 360,282.5C 359.505,280.527 359.338,278.527 359.5,276.5 Z M 371.5,283.5 C 374.187,283.336 376.854,283.503 379.5,284C 379.957,284.414 380.291,284.914 380.5,285.5C 378.968,289.919 376.468,293.585 373,296.5C 370.948,294.944 369.448,292.944 368.5,290.5C 369.312,288.055 370.312,285.722 371.5,283.5 Z M 387.5,364.5 C 389.424,364.711 389.757,365.377 388.5,366.5C 388.167,365.833 387.833,365.167 387.5,364.5 Z"/></g>
<g><path style="opacity:0.995" fill="#d1c9d1" d="M 187.5,209.5 C 187.5,222.167 187.5,234.833 187.5,247.5C 186.5,247.5 185.5,247.5 184.5,247.5C 185.391,246.739 186.058,245.739 186.5,244.5C 185.97,242.198 185.636,239.865 185.5,237.5C 186.025,228.001 186.691,218.668 187.5,209.5 Z"/></g>
<g><path style="opacity:1" fill="#f7b57b" d="M 178.5,246.5 C 180.435,247.15 182.435,247.483 184.5,247.5C 185.5,247.5 186.5,247.5 187.5,247.5C 192.005,247.729 196.339,247.063 200.5,245.5C 203.494,247.277 204.16,249.777 202.5,253C 197.766,252.982 193.099,253.148 188.5,253.5C 187.391,253.557 186.391,253.89 185.5,254.5C 183.142,254.253 181.142,254.919 179.5,256.5C 174.814,255.76 169.98,255.093 165,254.5C 161.222,253.367 158.055,251.367 155.5,248.5C 157.177,246.46 158.844,244.46 160.5,242.5C 165.905,247.225 171.905,248.558 178.5,246.5 Z"/></g>
<g><path style="opacity:1" fill="#bfd7fe" d="M 211.5,181.5 C 217.167,181.5 222.833,181.5 228.5,181.5C 226.852,191.016 227.185,200.35 229.5,209.5C 225.818,209.335 222.152,209.501 218.5,210C 221.482,210.498 224.482,210.665 227.5,210.5C 227.5,223.833 227.5,237.167 227.5,250.5C 225.469,253.529 222.803,255.862 219.5,257.5C 218.833,257.333 218.167,257.167 217.5,257C 213.886,249.532 211.386,250.032 210,258.5C 209.051,254.87 207.551,251.537 205.5,248.5C 205.167,249.167 204.833,249.833 204.5,250.5C 205.775,254.078 206.775,257.745 207.5,261.5C 215.628,264.336 223.628,264.003 231.5,260.5C 232.176,259.398 232.842,258.398 233.5,257.5C 233.369,258.239 233.536,258.906 234,259.5C 240.446,255.695 246.946,252.028 253.5,248.5C 254.019,252.85 253.019,256.684 250.5,260C 250.759,261.261 251.426,262.261 252.5,263C 250.688,281.436 249.021,299.936 247.5,318.5C 250.833,318.5 254.167,318.5 257.5,318.5C 259.533,294.134 261.867,269.8 264.5,245.5C 263.167,245.5 261.833,245.5 260.5,245.5C 263.03,244.224 265.697,244.224 268.5,245.5C 268.833,247.167 269.167,248.833 269.5,250.5C 268.5,261.168 267.5,271.834 266.5,282.5C 266.503,285.025 266.837,287.359 267.5,289.5C 266.979,299.565 265.979,309.565 264.5,319.5C 251.845,320.35 239.178,320.35 226.5,319.5C 223.193,318.949 219.86,318.616 216.5,318.5C 211.305,318.821 206.305,318.487 201.5,317.5C 205.182,317.665 208.848,317.499 212.5,317C 204.505,316.357 196.505,315.857 188.5,315.5C 188.5,294.833 188.5,274.167 188.5,253.5C 193.099,253.148 197.766,252.982 202.5,253C 204.16,249.777 203.494,247.277 200.5,245.5C 204.557,245.848 208.557,246.514 212.5,247.5C 212.5,234.833 212.5,222.167 212.5,209.5C 216.5,209.167 216.5,208.833 212.5,208.5C 212.804,199.416 212.471,190.416 211.5,181.5 Z"/></g>
<g><path style="opacity:1" fill="#ccdffe" d="M 260.5,245.5 C 261.833,245.5 263.167,245.5 264.5,245.5C 261.867,269.8 259.533,294.134 257.5,318.5C 254.167,318.5 250.833,318.5 247.5,318.5C 249.021,299.936 250.688,281.436 252.5,263C 251.426,262.261 250.759,261.261 250.5,260C 253.019,256.684 254.019,252.85 253.5,248.5C 253.5,248.167 253.5,247.833 253.5,247.5C 255.746,246.545 258.079,245.878 260.5,245.5 Z"/></g>
<g><path style="opacity:1" fill="#197dfb" d="M 168.5,226.5 C 169.167,226.5 169.833,226.5 170.5,226.5C 176.015,227.326 180.682,229.66 184.5,233.5C 183.622,236.549 181.789,238.882 179,240.5C 178.505,242.473 178.338,244.473 178.5,246.5C 171.905,248.558 165.905,247.225 160.5,242.5C 158.844,244.46 157.177,246.46 155.5,248.5C 158.055,251.367 161.222,253.367 165,254.5C 169.98,255.093 174.814,255.76 179.5,256.5C 180.295,260.785 180.628,265.119 180.5,269.5C 170.671,269.936 161.004,271.27 151.5,273.5C 150.948,267.627 149.615,261.961 147.5,256.5C 145.069,249.707 142.736,242.873 140.5,236C 140.667,234.833 140.833,233.667 141,232.5C 142.192,230.35 143.692,229.683 145.5,230.5C 147.746,231.455 150.079,232.122 152.5,232.5C 152.918,233.222 153.584,233.722 154.5,234C 158.167,234.667 161.833,234.667 165.5,234C 168.041,232.152 169.041,229.652 168.5,226.5 Z"/></g>
<g><path style="opacity:1" fill="#d3e4fe" d="M 227.5,250.5 C 228.497,250.47 229.164,250.97 229.5,252C 228.852,253.44 228.519,254.94 228.5,256.5C 229.552,256.649 230.552,256.483 231.5,256C 233.393,253.697 235.393,251.53 237.5,249.5C 237.833,249.667 238.167,249.833 238.5,250C 236.585,252.4 234.919,254.9 233.5,257.5C 232.842,258.398 232.176,259.398 231.5,260.5C 223.628,264.003 215.628,264.336 207.5,261.5C 206.775,257.745 205.775,254.078 204.5,250.5C 204.833,249.833 205.167,249.167 205.5,248.5C 207.551,251.537 209.051,254.87 210,258.5C 211.386,250.032 213.886,249.532 217.5,257C 218.167,257.167 218.833,257.333 219.5,257.5C 222.803,255.862 225.469,253.529 227.5,250.5 Z"/></g>
<g><path style="opacity:0.512" fill="#e7e7e7" d="M 139.5,258.5 C 141.252,258.418 142.252,259.251 142.5,261C 141.545,267.464 137.879,270.297 131.5,269.5C 134.092,265.889 136.758,262.222 139.5,258.5 Z"/></g>
<g><path style="opacity:1" fill="#1e3138" d="M 180.5,269.5 C 183.455,281.188 185.122,293.188 185.5,305.5C 185.323,309.234 185.656,312.901 186.5,316.5C 186.774,335.69 188.774,354.69 192.5,373.5C 192.448,375.903 192.781,378.236 193.5,380.5C 194.802,387.377 196.468,394.044 198.5,400.5C 198.993,402.806 199.326,405.139 199.5,407.5C 197.22,409.223 194.553,409.889 191.5,409.5C 189.5,405.833 187.5,402.167 185.5,398.5C 183.165,392.495 180.832,386.495 178.5,380.5C 176.093,373.612 174.093,366.612 172.5,359.5C 171.192,353.679 171.192,347.845 172.5,342C 170.531,335.758 168.364,329.591 166,323.5C 164.285,333.107 163.118,342.773 162.5,352.5C 161.091,361.631 160.424,370.965 160.5,380.5C 160.5,387.167 160.5,393.833 160.5,400.5C 161.388,403.054 161.721,405.721 161.5,408.5C 158.5,408.5 155.5,408.5 152.5,408.5C 151.293,404.213 150.293,399.88 149.5,395.5C 148.405,390.492 147.405,385.492 146.5,380.5C 145.654,373.86 144.987,367.193 144.5,360.5C 144.373,352.093 145.707,343.926 148.5,336C 146.554,320.557 146.054,305.057 147,289.5C 147.574,283.866 149.074,278.532 151.5,273.5C 161.004,271.27 170.671,269.936 180.5,269.5 Z M 172.5,359.5 C 169.302,358.213 165.969,357.547 162.5,357.5C 162.5,355.833 162.5,354.167 162.5,352.5C 163.118,342.773 164.285,333.107 166,323.5C 168.364,329.591 170.531,335.758 172.5,342C 171.192,347.845 171.192,353.679 172.5,359.5 Z"/></g>
<g><path style="opacity:0.998" fill="#606e73" d="M 108.5,305.5 C 110.081,307.142 110.747,309.142 110.5,311.5C 107.285,314.768 103.285,316.268 98.5,316C 97.1515,318.01 95.8182,320.01 94.5,322C 97.4645,328.227 99.6311,334.727 101,341.5C 102.277,339.253 103.777,337.253 105.5,335.5C 105.833,335.5 106.167,335.5 106.5,335.5C 104.833,338.824 102.666,341.824 100,344.5C 98.0953,351.194 96.4286,357.86 95,364.5C 97.4866,362.191 99.4866,359.524 101,356.5C 103.067,353.93 105.567,351.93 108.5,350.5C 115.573,353.22 116.24,357.053 110.5,362C 106.389,363.891 102.056,364.891 97.5,365C 93.1112,367.529 91.4446,371.363 92.5,376.5C 92.5511,379.253 92.8844,381.92 93.5,384.5C 90.9908,385.682 89.6574,387.682 89.5,390.5C 94.5,390.5 99.5,390.5 104.5,390.5C 104.5,390.833 104.5,391.167 104.5,391.5C 95.8333,391.5 87.1667,391.5 78.5,391.5C 78.5,391.167 78.5,390.833 78.5,390.5C 81.8499,390.665 85.1832,390.498 88.5,390C 85.5121,388.069 82.5121,386.236 79.5,384.5C 79.9382,384.565 80.2716,384.399 80.5,384C 79.6006,382.348 78.6006,380.848 77.5,379.5C 76.6586,377.621 76.3253,375.621 76.5,373.5C 76.5,373.167 76.5,372.833 76.5,372.5C 77.7348,372.279 78.7348,371.612 79.5,370.5C 80.1835,370.863 80.8501,371.196 81.5,371.5C 81.9597,376.957 84.9597,379.624 90.5,379.5C 90.7236,375.796 90.8903,372.129 91,368.5C 88.5997,366.271 86.433,363.937 84.5,361.5C 86.3435,359.721 87.0102,357.388 86.5,354.5C 87.3171,356.969 87.8171,359.635 88,362.5C 88.6368,364.303 89.8035,365.636 91.5,366.5C 93.8351,359.828 96.1684,353.161 98.5,346.5C 95.4756,343.489 91.809,341.822 87.5,341.5C 88.1667,340.833 88.8333,340.167 89.5,339.5C 92.508,340.42 95.3413,341.754 98,343.5C 98.523,335.927 96.6897,328.927 92.5,322.5C 89.8515,320.342 86.8515,319.008 83.5,318.5C 83.44,317.957 83.1067,317.624 82.5,317.5C 79.3974,319.312 76.0641,320.312 72.5,320.5C 67.5136,318.517 67.1802,315.85 71.5,312.5C 72.5,312.5 73.5,312.5 74.5,312.5C 79.5742,315.21 84.9075,317.043 90.5,318C 88.0991,314.031 86.0991,309.865 84.5,305.5C 80.3106,301.607 75.6439,298.441 70.5,296C 66.2754,292.85 66.6087,290.35 71.5,288.5C 72.7946,289.098 74.1279,289.598 75.5,290C 76.5714,294.453 78.7381,298.286 82,301.5C 81.0414,295.276 80.2081,288.943 79.5,282.5C 79.7029,277.964 82.0362,275.297 86.5,274.5C 88.3969,274.728 89.7303,275.728 90.5,277.5C 89.2819,281.383 86.9485,284.383 83.5,286.5C 82.0841,292.008 82.5841,297.341 85,302.5C 87.8353,297.981 90.6687,293.481 93.5,289C 96.552,287.021 98.8854,287.688 100.5,291C 100.22,292.395 99.5529,293.562 98.5,294.5C 95.6128,296.111 92.6128,297.444 89.5,298.5C 88.1667,300.5 86.8333,302.5 85.5,304.5C 87.8333,309.167 90.1667,313.833 92.5,318.5C 93.2739,319.711 94.1072,319.711 95,318.5C 98.0492,314.129 100.883,309.629 103.5,305C 105.387,304.22 107.054,304.387 108.5,305.5 Z"/></g>
<g><path style="opacity:1" fill="#a4c7fc" d="M 188.5,253.5 C 188.5,274.167 188.5,294.833 188.5,315.5C 196.505,315.857 204.505,316.357 212.5,317C 208.848,317.499 205.182,317.665 201.5,317.5C 196.405,317.779 191.405,317.445 186.5,316.5C 185.656,312.901 185.323,309.234 185.5,305.5C 186.824,288.598 186.824,271.598 185.5,254.5C 186.391,253.89 187.391,253.557 188.5,253.5 Z"/></g>
<g><path style="opacity:0.96" fill="#e6e6e6" d="M 293.5,333.5 C 293.5,337.5 293.5,341.5 293.5,345.5C 291.473,345.338 289.473,345.505 287.5,346C 286.313,348.774 284.98,351.441 283.5,354C 283.728,354.399 284.062,354.565 284.5,354.5C 283.833,355.833 282.833,356.833 281.5,357.5C 281.631,356.761 281.464,356.094 281,355.5C 278.833,357.667 276.667,359.833 274.5,362C 273.056,362.781 271.723,362.614 270.5,361.5C 269.717,356.553 269.217,351.553 269,346.5C 263.075,346.703 258.075,344.703 254,340.5C 253.731,337.72 254.898,335.554 257.5,334C 261.421,333.797 265.255,333.297 269,332.5C 269.333,324.833 269.667,317.167 270,309.5C 272.411,307.422 275.078,305.755 278,304.5C 280.922,305.755 283.589,307.422 286,309.5C 286.333,317.167 286.667,324.833 287,332.5C 289.041,333.423 291.208,333.756 293.5,333.5 Z"/></g>
<g><path style="opacity:0.997" fill="#e7e7e8" d="M 430.5,340.5 C 428.97,342.346 426.97,343.346 424.5,343.5C 423.323,338.449 420.323,335.115 415.5,333.5C 414.791,332.596 413.791,332.263 412.5,332.5C 413.165,327.508 413.831,322.508 414.5,317.5C 414.86,313.99 413.86,310.99 411.5,308.5C 414.264,307.035 417.097,305.702 420,304.5C 422.552,305.371 424.886,306.705 427,308.5C 427.78,319.453 428.947,330.119 430.5,340.5 Z"/></g>
<g><path style="opacity:0.207" fill="#e6e7e7" d="M 74.5,312.5 C 73.5,312.5 72.5,312.5 71.5,312.5C 72.2114,307.931 74.7114,305.931 79,306.5C 79.2466,309.759 77.7466,311.759 74.5,312.5 Z"/></g>
<g><path style="opacity:0.051" fill="#cbcdce" d="M 108.5,305.5 C 110.729,306.055 112.395,307.389 113.5,309.5C 112.643,310.425 111.643,311.092 110.5,311.5C 110.747,309.142 110.081,307.142 108.5,305.5 Z"/></g>
<g><path style="opacity:1" fill="#64a4fe" d="M 411.5,308.5 C 413.86,310.99 414.86,313.99 414.5,317.5C 413.831,322.508 413.165,327.508 412.5,332.5C 413.791,332.263 414.791,332.596 415.5,333.5C 410.561,332.352 407.061,334.019 405,338.5C 404.5,344.825 404.334,351.158 404.5,357.5C 403.515,353.366 403.182,349.032 403.5,344.5C 403.5,344.167 403.5,343.833 403.5,343.5C 403.5,342.833 403.5,342.167 403.5,341.5C 399.297,339.472 395.464,336.805 392,333.5C 386.075,323.012 387.575,314.012 396.5,306.5C 400.078,305.411 403.745,305.245 407.5,306C 409.32,306.2 410.653,307.034 411.5,308.5 Z"/></g>
<g><path style="opacity:0.95" fill="#e7e8e8" d="M 303.5,161.5 C 304.499,216.664 304.832,271.997 304.5,327.5C 302.5,327.5 300.5,327.5 298.5,327.5C 297.613,321.855 297.446,316.188 298,310.5C 298.759,308.365 300.259,307.032 302.5,306.5C 303.5,258.171 303.833,209.838 303.5,161.5 Z"/></g>
<g><path style="opacity:0.694" fill="#e4e4e4" d="M 83.5,318.5 C 84.412,320.595 85.5787,322.595 87,324.5C 87.1786,327.553 87.6786,330.553 88.5,333.5C 92.1328,334.941 92.4662,336.941 89.5,339.5C 85.412,335.12 80.412,332.954 74.5,333C 73.6266,334.045 72.6266,334.878 71.5,335.5C 71.3345,331.486 71.5012,327.486 72,323.5C 73.7284,322.648 73.895,321.648 72.5,320.5C 76.0641,320.312 79.3974,319.312 82.5,317.5C 83.1067,317.624 83.44,317.957 83.5,318.5 Z"/></g>
<g><path style="opacity:1" fill="#a6adb0" d="M 346.5,317.5 C 346.833,331.849 346.499,346.182 345.5,360.5C 339.173,363.484 336.173,368.484 336.5,375.5C 336.27,382.54 339.27,387.706 345.5,391C 329.218,394.058 321.718,387.224 323,370.5C 324.902,364.089 329.069,360.422 335.5,359.5C 335.5,350.167 335.5,340.833 335.5,331.5C 335.5,326.833 335.5,322.167 335.5,317.5C 339.167,317.5 342.833,317.5 346.5,317.5 Z"/></g>
<g><path style="opacity:0.999" fill="#c1c5c7" d="M 346.5,317.5 C 349.167,317.5 351.833,317.5 354.5,317.5C 354.5,326.5 354.5,335.5 354.5,344.5C 354.334,349.511 354.501,354.511 355,359.5C 357.95,361.387 360.784,363.387 363.5,365.5C 365.151,370.328 365.817,375.328 365.5,380.5C 363.992,382.181 362.992,384.181 362.5,386.5C 361.833,387.833 360.833,388.833 359.5,389.5C 351.511,391.166 343.511,392.833 335.5,394.5C 335.5,396.167 335.5,397.833 335.5,399.5C 335.5,401.5 335.5,403.5 335.5,405.5C 335.167,405.5 334.833,405.5 334.5,405.5C 334.5,401.833 334.5,398.167 334.5,394.5C 333.5,394.5 332.5,394.5 331.5,394.5C 320.314,387.089 317.481,377.089 323,364.5C 325.772,361.217 328.939,358.55 332.5,356.5C 334.468,348.567 335.135,340.234 334.5,331.5C 334.833,331.5 335.167,331.5 335.5,331.5C 335.5,340.833 335.5,350.167 335.5,359.5C 329.069,360.422 324.902,364.089 323,370.5C 321.718,387.224 329.218,394.058 345.5,391C 339.27,387.706 336.27,382.54 336.5,375.5C 336.173,368.484 339.173,363.484 345.5,360.5C 346.499,346.182 346.833,331.849 346.5,317.5 Z"/></g>
<g><path style="opacity:0.92" fill="#e6e6e6" d="M 216.5,318.5 C 219.86,318.616 223.193,318.949 226.5,319.5C 229.007,323.293 230.174,327.626 230,332.5C 233.79,333.136 237.623,333.803 241.5,334.5C 242.847,343.478 238.847,347.145 229.5,345.5C 230.847,354.144 228.514,361.477 222.5,367.5C 221.833,367.5 221.167,367.5 220.5,367.5C 218.333,366.802 216.5,365.469 215,363.5C 213.149,357.992 212.149,352.325 212,346.5C 208.545,345.209 205.045,345.209 201.5,346.5C 201.005,357.309 200.672,368.309 200.5,379.5C 204.833,379.5 209.167,379.5 213.5,379.5C 207.021,380.491 200.354,380.824 193.5,380.5C 192.781,378.236 192.448,375.903 192.5,373.5C 193.124,373.083 193.457,372.416 193.5,371.5C 190.824,361.092 190.991,350.758 194,340.5C 195.5,338.167 197,335.833 198.5,333.5C 202.812,332.747 207.145,332.581 211.5,333C 213.14,329.691 214.473,326.191 215.5,322.5C 217.22,321.066 219.22,320.233 221.5,320C 219.618,319.802 217.952,319.302 216.5,318.5 Z"/></g>
<g><path style="opacity:1" fill="#566569" d="M 106.5,335.5 C 106.167,335.5 105.833,335.5 105.5,335.5C 102.653,331.013 102.986,326.846 106.5,323C 113.801,321.336 116.301,323.836 114,330.5C 111.521,332.314 109.021,333.981 106.5,335.5 Z"/></g>
<g><path style="opacity:1" fill="#929a9d" d="M 296.5,328.5 C 308.167,328.5 319.833,328.5 331.5,328.5C 332.833,329.167 333.833,330.167 334.5,331.5C 335.135,340.234 334.468,348.567 332.5,356.5C 314.076,357.113 307.243,366.446 312,384.5C 315.913,392.707 322.413,396.041 331.5,394.5C 332.5,394.5 333.5,394.5 334.5,394.5C 334.5,398.167 334.5,401.833 334.5,405.5C 321.167,405.5 307.833,405.5 294.5,405.5C 294.5,380.5 294.5,355.5 294.5,330.5C 294.833,329.5 295.5,328.833 296.5,328.5 Z"/></g>
<g><path style="opacity:0.999" fill="#4e5d62" d="M 89.5,339.5 C 88.8333,340.167 88.1667,340.833 87.5,341.5C 83.5662,342.36 79.5662,342.693 75.5,342.5C 74.205,341.512 72.8717,340.512 71.5,339.5C 70.5946,338.036 70.5946,336.702 71.5,335.5C 72.6266,334.878 73.6266,334.045 74.5,333C 80.412,332.954 85.412,335.12 89.5,339.5 Z"/></g>
<g><path style="opacity:1" fill="#4694fe" d="M 415.5,333.5 C 420.323,335.115 423.323,338.449 424.5,343.5C 425.734,346.535 425.734,349.535 424.5,352.5C 422.157,358.866 418.157,363.866 412.5,367.5C 412.167,367.5 411.833,367.5 411.5,367.5C 409.61,367.703 408.11,367.037 407,365.5C 406.155,363.389 405.322,361.389 404.5,359.5C 404.5,358.833 404.5,358.167 404.5,357.5C 404.334,351.158 404.5,344.825 405,338.5C 407.061,334.019 410.561,332.352 415.5,333.5 Z"/></g>
<g><path style="opacity:0.999" fill="#6da8fd" d="M 430.5,340.5 C 432.766,340.141 434.599,340.808 436,342.5C 436.667,344.833 436.667,347.167 436,349.5C 435.578,351.426 434.411,352.426 432.5,352.5C 429.833,352.5 427.167,352.5 424.5,352.5C 425.734,349.535 425.734,346.535 424.5,343.5C 426.97,343.346 428.97,342.346 430.5,340.5 Z"/></g>
<g><path style="opacity:0.61" fill="#e6e7e8" d="M 71.5,339.5 C 72.8717,340.512 74.205,341.512 75.5,342.5C 76.2071,345.786 76.5405,349.119 76.5,352.5C 76.4326,353.959 76.7659,355.292 77.5,356.5C 75.5956,356.738 74.2623,357.738 73.5,359.5C 72.609,358.89 71.609,358.557 70.5,358.5C 70.5572,352.149 70.8905,345.815 71.5,339.5 Z"/></g>
<g><path style="opacity:0.999" fill="#526166" d="M 86.5,354.5 C 87.0102,357.388 86.3435,359.721 84.5,361.5C 81.1665,361.019 78.8331,359.353 77.5,356.5C 76.7659,355.292 76.4326,353.959 76.5,352.5C 78.8357,350.609 81.5024,350.109 84.5,351C 85.8228,351.816 86.4894,352.983 86.5,354.5 Z"/></g>
<g><path style="opacity:1" fill="#99bffd" d="M 284.5,354.5 C 287.831,354.018 290.497,355.018 292.5,357.5C 293.466,365.08 293.799,372.747 293.5,380.5C 277.991,380.83 262.658,380.496 247.5,379.5C 247.414,378.504 247.748,377.671 248.5,377C 251.975,374.573 255.642,374.073 259.5,375.5C 257.907,368.27 260.741,364.27 268,363.5C 271.702,365.034 275.535,365.534 279.5,365C 280.123,362.393 280.79,359.893 281.5,357.5C 282.833,356.833 283.833,355.833 284.5,354.5 Z"/></g>
<g><path style="opacity:1" fill="#a4c4fa" d="M 365.5,356.5 C 366.496,356.414 367.329,356.748 368,357.5C 368.219,362.515 368.219,367.515 368,372.5C 368.513,371.473 369.013,370.473 369.5,369.5C 369.5,369.167 369.5,368.833 369.5,368.5C 370.794,367.71 371.961,366.71 373,365.5C 373.333,365.833 373.667,366.167 374,366.5C 374.085,369.361 373.251,372.028 371.5,374.5C 371.957,375.298 372.624,375.631 373.5,375.5C 371.841,378.833 369.175,380.5 365.5,380.5C 365.817,375.328 365.151,370.328 363.5,365.5C 363.215,362.171 363.882,359.171 365.5,356.5 Z"/></g>
<g><path style="opacity:1" fill="#a6aeb0" d="M 332.5,356.5 C 328.939,358.55 325.772,361.217 323,364.5C 317.481,377.089 320.314,387.089 331.5,394.5C 322.413,396.041 315.913,392.707 312,384.5C 307.243,366.446 314.076,357.113 332.5,356.5 Z"/></g>
<g><path style="opacity:1" fill="#a9c8fb" d="M 70.5,358.5 C 71.609,358.557 72.609,358.89 73.5,359.5C 74.7895,364.113 75.7895,368.78 76.5,373.5C 76.3253,375.621 76.6586,377.621 77.5,379.5C 72.9544,381.077 68.621,380.744 64.5,378.5C 65.3984,377.842 66.3984,377.176 67.5,376.5C 65.7701,374.207 64.4367,371.707 63.5,369C 64,368.5 64.5,368 65,367.5C 66.3333,368.833 67.6667,370.167 69,371.5C 69.1753,366.981 69.6753,362.647 70.5,358.5 Z"/></g>
<g><path style="opacity:1" fill="#94bbf7" d="M 162.5,352.5 C 162.5,354.167 162.5,355.833 162.5,357.5C 165.969,357.547 169.302,358.213 172.5,359.5C 174.093,366.612 176.093,373.612 178.5,380.5C 172.5,380.5 166.5,380.5 160.5,380.5C 160.424,370.965 161.091,361.631 162.5,352.5 Z"/></g>
<g><path style="opacity:1" fill="#98bffc" d="M 144.5,360.5 C 144.987,367.193 145.654,373.86 146.5,380.5C 134.655,380.828 122.988,380.495 111.5,379.5C 112.675,379.719 113.675,379.386 114.5,378.5C 113.445,369.877 117.445,365.543 126.5,365.5C 126.444,362.439 127.778,360.272 130.5,359C 135.318,358.221 139.985,358.721 144.5,360.5 Z"/></g>
<g><path style="opacity:1" fill="#64a3fb" d="M 404.5,359.5 C 405.322,361.389 406.155,363.389 407,365.5C 408.11,367.037 409.61,367.703 411.5,367.5C 411.5,368.167 411.5,368.833 411.5,369.5C 413.743,377.395 414.076,385.395 412.5,393.5C 407.5,393.5 402.5,393.5 397.5,393.5C 397.167,392.5 396.5,391.833 395.5,391.5C 393.407,387.646 391.574,383.646 390,379.5C 388.989,378.663 387.822,378.33 386.5,378.5C 389.552,376.228 390.218,373.228 388.5,369.5C 385.301,366.943 381.634,365.943 377.5,366.5C 379.391,363.828 382.058,362.828 385.5,363.5C 385.842,364.338 386.508,364.672 387.5,364.5C 387.833,365.167 388.167,365.833 388.5,366.5C 388.56,367.043 388.893,367.376 389.5,367.5C 392.432,362.535 396.765,360.535 402.5,361.5C 403.833,361.5 404.5,360.833 404.5,359.5 Z M 387.5,364.5 C 389.424,364.711 389.757,365.377 388.5,366.5C 388.167,365.833 387.833,365.167 387.5,364.5 Z"/></g>
<g><path style="opacity:1" fill="#4b95fd" d="M 377.5,366.5 C 381.634,365.943 385.301,366.943 388.5,369.5C 390.218,373.228 389.552,376.228 386.5,378.5C 383.162,378.935 380.162,378.268 377.5,376.5C 375.166,372.982 375.166,369.648 377.5,366.5 Z"/></g>
<g><path style="opacity:1" fill="#b3cbf2" d="M 81.5,371.5 C 80.8501,371.196 80.1835,370.863 79.5,370.5C 78.7348,371.612 77.7348,372.279 76.5,372.5C 76.5613,369.371 77.8946,367.037 80.5,365.5C 81.4656,367.396 81.7989,369.396 81.5,371.5 Z"/></g>
<g><path style="opacity:1" fill="#a5c5f9" d="M 220.5,367.5 C 221.167,367.5 221.833,367.5 222.5,367.5C 223.5,367.833 224.167,368.5 224.5,369.5C 224.613,372.049 223.946,374.382 222.5,376.5C 222.667,376.833 222.833,377.167 223,377.5C 227.309,373.541 228.142,374.207 225.5,379.5C 222.216,380.657 218.882,380.824 215.5,380C 214.934,379.005 214.267,378.172 213.5,377.5C 211.105,375.751 211.105,374.084 213.5,372.5C 214.814,373.313 215.981,374.313 217,375.5C 217.322,372.334 218.489,369.667 220.5,367.5 Z"/></g>
<g><path style="opacity:1" fill="#9bc1fb" d="M 429.5,373.5 C 430.338,373.842 430.672,374.508 430.5,375.5C 427.24,380.458 422.74,381.791 417,379.5C 416.5,378.5 416,377.5 415.5,376.5C 417.003,376.165 418.336,376.165 419.5,376.5C 418.205,373.634 418.205,370.801 419.5,368C 420.784,367.316 421.951,367.483 423,368.5C 423.333,371.833 423.667,375.167 424,378.5C 425.076,375.921 426.909,374.254 429.5,373.5 Z"/></g>
<g><path style="opacity:0.998" fill="#24363d" d="M 110.5,377.5 C 110.634,379.292 110.301,380.958 109.5,382.5C 108.316,383.688 108.316,384.855 109.5,386C 108.837,387.518 107.837,388.685 106.5,389.5C 105.833,389.833 105.167,390.167 104.5,390.5C 99.5,390.5 94.5,390.5 89.5,390.5C 89.6574,387.682 90.9908,385.682 93.5,384.5C 100.213,384.394 105.713,381.727 110,376.5C 110.399,376.728 110.565,377.062 110.5,377.5 Z"/></g>
<g><path style="opacity:0.903" fill="#d6d8db" d="M 110.5,377.5 C 111.338,377.842 111.672,378.508 111.5,379.5C 122.988,380.495 134.655,380.828 146.5,380.5C 147.405,385.492 148.405,390.492 149.5,395.5C 148.883,395.389 148.383,395.056 148,394.5C 147.727,396.101 147.227,397.601 146.5,399C 135.807,399.737 125.14,399.57 114.5,398.5C 115.219,396.236 115.552,393.903 115.5,391.5C 111.833,391.5 108.167,391.5 104.5,391.5C 104.5,391.167 104.5,390.833 104.5,390.5C 105.167,390.167 105.833,389.833 106.5,389.5C 108.607,390.468 110.941,390.802 113.5,390.5C 113.5,387.833 113.5,385.167 113.5,382.5C 112.167,382.5 110.833,382.5 109.5,382.5C 110.301,380.958 110.634,379.292 110.5,377.5 Z M 133.5,382.5 C 136.976,381.357 140.642,381.19 144.5,382C 146.82,383.488 146.987,385.321 145,387.5C 140.996,386.114 137.163,384.447 133.5,382.5 Z"/></g>
<g><path style="opacity:0.998" fill="#dadbdd" d="M 224.5,369.5 C 225.583,369.539 226.583,369.873 227.5,370.5C 228.484,373.428 228.817,376.428 228.5,379.5C 234.922,380.001 241.255,380.001 247.5,379.5C 262.658,380.496 277.991,380.83 293.5,380.5C 293.5,386.833 293.5,393.167 293.5,399.5C 261.662,399.168 229.996,399.502 198.5,400.5C 196.468,394.044 194.802,387.377 193.5,380.5C 200.354,380.824 207.021,380.491 213.5,379.5C 213.5,378.833 213.5,378.167 213.5,377.5C 214.267,378.172 214.934,379.005 215.5,380C 218.882,380.824 222.216,380.657 225.5,379.5C 228.142,374.207 227.309,373.541 223,377.5C 222.833,377.167 222.667,376.833 222.5,376.5C 223.946,374.382 224.613,372.049 224.5,369.5 Z"/></g>
<g><path style="opacity:0.98" fill="#d6d8db" d="M 64.5,378.5 C 68.621,380.744 72.9544,381.077 77.5,379.5C 78.6006,380.848 79.6006,382.348 80.5,384C 80.2716,384.399 79.9382,384.565 79.5,384.5C 77.6824,382.922 76.6824,383.422 76.5,386C 76.5247,387.876 77.1914,389.376 78.5,390.5C 78.5,390.833 78.5,391.167 78.5,391.5C 75.1667,391.5 71.8333,391.5 68.5,391.5C 68.5,393.167 68.5,394.833 68.5,396.5C 68.5858,397.496 68.2524,398.329 67.5,399C 64.854,399.497 62.1873,399.664 59.5,399.5C 58.7104,393.288 58.8771,386.954 60,380.5C 61.4705,379.733 62.9705,379.067 64.5,378.5 Z"/></g>
<g><path style="opacity:0.947" fill="#d9dadc" d="M 373.5,375.5 C 374.482,376.141 375.482,376.807 376.5,377.5C 377.107,377.376 377.44,377.043 377.5,376.5C 380.162,378.268 383.162,378.935 386.5,378.5C 384.708,379.309 382.708,379.809 380.5,380C 382.002,380.583 383.335,381.416 384.5,382.5C 383.857,387.698 383.19,392.865 382.5,398C 366.864,399.319 351.197,399.819 335.5,399.5C 335.5,397.833 335.5,396.167 335.5,394.5C 343.511,392.833 351.511,391.166 359.5,389.5C 359.696,391.646 360.696,391.812 362.5,390C 363.293,388.915 363.96,387.748 364.5,386.5C 364.03,385.537 363.363,385.537 362.5,386.5C 362.992,384.181 363.992,382.181 365.5,380.5C 369.175,380.5 371.841,378.833 373.5,375.5 Z"/></g>
<g><path style="opacity:1" fill="#1d3037" d="M 79.5,384.5 C 82.5121,386.236 85.5121,388.069 88.5,390C 85.1832,390.498 81.8499,390.665 78.5,390.5C 77.1914,389.376 76.5247,387.876 76.5,386C 76.6824,383.422 77.6824,382.922 79.5,384.5 Z"/></g>
<g><path style="opacity:0.996" fill="#dcdee0" d="M 424.5,352.5 C 427.167,352.5 429.833,352.5 432.5,352.5C 431.432,353.434 430.099,353.768 428.5,353.5C 428.207,360.255 428.54,366.922 429.5,373.5C 426.909,374.254 425.076,375.921 424,378.5C 423.667,375.167 423.333,371.833 423,368.5C 421.951,367.483 420.784,367.316 419.5,368C 418.205,370.801 418.205,373.634 419.5,376.5C 418.336,376.165 417.003,376.165 415.5,376.5C 416,377.5 416.5,378.5 417,379.5C 422.74,381.791 427.24,380.458 430.5,375.5C 430.5,376.833 430.5,378.167 430.5,379.5C 431.822,379.33 432.989,379.663 434,380.5C 434.5,386.825 434.666,393.158 434.5,399.5C 429.6,399.967 424.933,399.301 420.5,397.5C 420.5,396.167 420.5,394.833 420.5,393.5C 417.833,393.5 415.167,393.5 412.5,393.5C 414.076,385.395 413.743,377.395 411.5,369.5C 412.338,369.158 412.672,368.492 412.5,367.5C 418.157,363.866 422.157,358.866 424.5,352.5 Z"/></g>
<g><path style="opacity:1" fill="#66a5fe" d="M 78.5,391.5 C 87.1667,391.5 95.8333,391.5 104.5,391.5C 108.167,391.5 111.833,391.5 115.5,391.5C 115.552,393.903 115.219,396.236 114.5,398.5C 114.737,399.791 114.404,400.791 113.5,401.5C 113.5,399.833 113.5,398.167 113.5,396.5C 99.1628,396.333 84.8295,396.5 70.5,397C 71.4231,399.041 71.7564,401.208 71.5,403.5C 70.8686,401.025 69.8686,398.691 68.5,396.5C 68.5,394.833 68.5,393.167 68.5,391.5C 71.8333,391.5 75.1667,391.5 78.5,391.5 Z"/></g>
<g><path style="opacity:0.452" fill="#8a9498" d="M 395.5,391.5 C 396.5,391.833 397.167,392.5 397.5,393.5C 393.5,393.5 389.5,393.5 385.5,393.5C 385.5,395.167 385.5,396.833 385.5,398.5C 384.539,396.735 384.205,394.735 384.5,392.5C 388.371,392.815 392.038,392.482 395.5,391.5 Z"/></g>
<g><path style="opacity:1" fill="#d6d8da" d="M 160.5,380.5 C 166.5,380.5 172.5,380.5 178.5,380.5C 180.832,386.495 183.165,392.495 185.5,398.5C 177.167,399.167 168.833,399.833 160.5,400.5C 160.5,393.833 160.5,387.167 160.5,380.5 Z"/></g>
<g><path style="opacity:1" fill="#21333a" d="M 397.5,393.5 C 402.5,393.5 407.5,393.5 412.5,393.5C 415.167,393.5 417.833,393.5 420.5,393.5C 420.5,394.833 420.5,396.167 420.5,397.5C 419.686,403.534 418.686,409.534 417.5,415.5C 407.522,416.499 397.522,416.832 387.5,416.5C 386.553,410.534 385.886,404.534 385.5,398.5C 385.5,396.833 385.5,395.167 385.5,393.5C 389.5,393.5 393.5,393.5 397.5,393.5 Z"/></g>
<g><path style="opacity:1" fill="#0b7dfe" d="M 113.5,401.5 C 113.605,405.548 113.272,409.548 112.5,413.5C 99.4133,415.453 86.08,416.12 72.5,415.5C 71.6403,411.566 71.307,407.566 71.5,403.5C 71.7564,401.208 71.4231,399.041 70.5,397C 84.8295,396.5 99.1628,396.333 113.5,396.5C 113.5,398.167 113.5,399.833 113.5,401.5 Z"/></g>
<g><path style="opacity:0.998" fill="#aab1b4" d="M 294.5,330.5 C 294.5,355.5 294.5,380.5 294.5,405.5C 307.833,405.5 321.167,405.5 334.5,405.5C 334.833,405.5 335.167,405.5 335.5,405.5C 345.255,403.212 352.255,406.545 356.5,415.5C 328.167,416.833 299.833,416.833 271.5,415.5C 274.317,412.182 277.317,409.015 280.5,406C 284.555,405.768 288.555,405.268 292.5,404.5C 293.452,402.955 293.785,401.288 293.5,399.5C 293.5,393.167 293.5,386.833 293.5,380.5C 293.799,372.747 293.466,365.08 292.5,357.5C 293.483,353.702 293.817,349.702 293.5,345.5C 293.5,341.5 293.5,337.5 293.5,333.5C 293.263,332.209 293.596,331.209 294.5,330.5 Z"/></g>
<g><path style="opacity:1" fill="#3b88fd" d="M 152.5,408.5 C 155.5,408.5 158.5,408.5 161.5,408.5C 163.911,410.92 166.578,412.92 169.5,414.5C 169.291,415.086 168.957,415.586 168.5,416C 163.167,416.667 157.833,416.667 152.5,416C 151.351,413.541 151.351,411.041 152.5,408.5 Z"/></g>
<g><path style="opacity:1" fill="#3887fd" d="M 199.5,407.5 C 201.862,410.104 204.695,412.104 208,413.5C 208.617,414.449 208.451,415.282 207.5,416C 202.167,416.667 196.833,416.667 191.5,416C 190.395,413.88 190.395,411.713 191.5,409.5C 194.553,409.889 197.22,409.223 199.5,407.5 Z"/></g>
<g><path style="opacity:0.483" fill="#6fb0fa" d="M 112.5,413.5 C 112.5,414.5 112.5,415.5 112.5,416.5C 98.9895,416.829 85.6562,416.496 72.5,415.5C 86.08,416.12 99.4133,415.453 112.5,413.5 Z"/></g>
</svg>
