<?xml version="1.0" encoding="UTF-8"?>
<!DOCTYPE svg PUBLIC "-//W3C//DTD SVG 1.1//EN" "http://www.w3.org/Graphics/SVG/1.1/DTD/svg11.dtd">
<svg xmlns="http://www.w3.org/2000/svg" version="1.1" width="500px" height="500px" style="shape-rendering:geometricPrecision; text-rendering:geometricPrecision; image-rendering:optimizeQuality; fill-rule:evenodd; clip-rule:evenodd" xmlns:xlink="http://www.w3.org/1999/xlink">
<g><path style="opacity:0.963" fill="#e0e1e5" d="M 285.5,85.5 C 287.49,109.811 288.157,134.477 287.5,159.5C 286.375,160.652 286.375,161.652 287.5,162.5C 287.811,173.256 287.811,183.923 287.5,194.5C 287.25,196.674 286.25,198.341 284.5,199.5C 284.5,193.833 284.5,188.167 284.5,182.5C 285.65,183.85 286.317,183.684 286.5,182C 286.164,180.97 285.497,180.47 284.5,180.5C 284.5,178.5 284.5,176.5 284.5,174.5C 284.5,172.5 284.5,170.5 284.5,168.5C 284.5,151.5 284.5,134.5 284.5,117.5C 283.322,116.001 281.655,115.001 279.5,114.5C 281.453,113.239 283.453,112.073 285.5,111C 284.172,102.402 284.172,93.9017 285.5,85.5 Z"/></g>
<g><path style="opacity:0.976" fill="#f7f8f8" d="M 298.5,113.5 C 297.448,115.256 295.781,115.923 293.5,115.5C 293.5,134.5 293.5,153.5 293.5,172.5C 313.5,172.5 333.5,172.5 353.5,172.5C 353.833,172.5 354.167,172.5 354.5,172.5C 350.919,177.514 349.919,182.847 351.5,188.5C 350.152,194.927 348.485,201.26 346.5,207.5C 343.615,207.194 340.948,207.527 338.5,208.5C 336.118,206.785 334.118,204.785 332.5,202.5C 333.167,202.5 333.833,202.5 334.5,202.5C 335.167,202.5 335.833,202.5 336.5,202.5C 338.176,204.834 340.509,205.834 343.5,205.5C 343.421,201.133 341.421,199.799 337.5,201.5C 337.672,200.508 337.338,199.842 336.5,199.5C 335.232,194.03 333.565,188.696 331.5,183.5C 327.994,182.502 324.328,182.502 320.5,183.5C 320.963,186.221 321.629,188.888 322.5,191.5C 322.31,195.032 322.977,198.365 324.5,201.5C 320.358,202.004 317.358,204.004 315.5,207.5C 309.167,207.5 302.833,207.5 296.5,207.5C 295.5,204.833 294.5,204.833 293.5,207.5C 292.325,207.719 291.325,207.386 290.5,206.5C 292.363,202.245 294.03,197.912 295.5,193.5C 296.376,192.749 297.376,192.249 298.5,192C 297.572,191.612 296.905,190.945 296.5,190C 297.982,186.575 298.816,183.075 299,179.5C 294.662,184.208 290.828,189.208 287.5,194.5C 287.811,183.923 287.811,173.256 287.5,162.5C 288.29,161.206 289.29,160.039 290.5,159C 289.423,158.53 288.423,158.697 287.5,159.5C 288.157,134.477 287.49,109.811 285.5,85.5C 298.634,81.1985 311.634,82.0318 324.5,88C 318.432,90.2012 312.765,93.2012 307.5,97C 298.183,97.9518 296.183,102.285 301.5,110C 298.68,109.093 296.013,109.593 293.5,111.5C 295.139,112.322 296.805,112.989 298.5,113.5 Z M 336.5,202.5 C 337.167,202.5 337.5,202.167 337.5,201.5C 341.421,199.799 343.421,201.133 343.5,205.5C 340.509,205.834 338.176,204.834 336.5,202.5 Z M 324.5,201.5 C 326.025,203.216 327.025,205.216 327.5,207.5C 323.5,207.5 319.5,207.5 315.5,207.5C 317.358,204.004 320.358,202.004 324.5,201.5 Z M 296.5,207.5 C 295.5,207.5 294.5,207.5 293.5,207.5C 294.5,204.833 295.5,204.833 296.5,207.5 Z"/></g>
<g><path style="opacity:0.991" fill="#e2e2e2" d="M 124.5,104.5 C 125.167,106.819 125.334,109.153 125,111.5C 122.667,113.833 120.333,116.167 118,118.5C 116.848,121.44 115.848,124.44 115,127.5C 111.861,129.647 108.695,131.647 105.5,133.5C 102.415,124.914 98.7488,116.581 94.5,108.5C 100.282,108.311 105.948,108.978 111.5,110.5C 112.667,104.148 113.834,97.8142 115,91.5C 119.57,94.8894 122.736,99.2227 124.5,104.5 Z"/></g>
<g><path style="opacity:1" fill="#7db0ff" d="M 191.5,99.5 C 189.663,99.3605 189.33,98.6939 190.5,97.5C 192.059,96.9264 193.559,96.2598 195,95.5C 195.5,96 196,96.5 196.5,97C 194.509,97.3736 192.842,98.207 191.5,99.5 Z"/></g>
<g><path style="opacity:0.533" fill="#89b8ff" d="M 203.5,98.5 C 202.909,97.8485 202.243,97.1818 201.5,96.5C 203.836,95.9766 206.17,96.4766 208.5,98C 208,98.5 207.5,99 207,99.5C 205.989,98.6634 204.822,98.33 203.5,98.5 Z"/></g>
<g><path style="opacity:1" fill="#1c80fe" d="M 203.5,98.5 C 207.082,100.12 210.082,102.453 212.5,105.5C 212.5,105.833 212.5,106.167 212.5,106.5C 212.5,107.167 212.833,107.5 213.5,107.5C 213.5,108.167 213.5,108.833 213.5,109.5C 213.5,112.833 213.5,116.167 213.5,119.5C 212.833,121.167 212.167,122.833 211.5,124.5C 211.167,124.5 210.833,124.5 210.5,124.5C 208.809,125.864 207.142,127.197 205.5,128.5C 203.958,129.301 202.292,129.634 200.5,129.5C 199.5,129.5 198.5,129.5 197.5,129.5C 195.435,129.483 193.435,129.15 191.5,128.5C 190.564,127.026 189.23,126.026 187.5,125.5C 183.953,120.811 182.619,115.477 183.5,109.5C 184.401,108.71 185.068,107.71 185.5,106.5C 185.5,105.833 185.5,105.167 185.5,104.5C 187.54,102.823 189.54,101.156 191.5,99.5C 195.452,98.7279 199.452,98.3946 203.5,98.5 Z"/></g>
<g><path style="opacity:0.983" fill="#f5f5f5" d="M 138.5,119.5 C 137.167,119.5 135.833,119.5 134.5,119.5C 133.738,123.691 131.904,127.358 129,130.5C 128.938,134.148 129.105,137.815 129.5,141.5C 121.5,141.5 113.5,141.5 105.5,141.5C 105.5,138.833 105.5,136.167 105.5,133.5C 108.695,131.647 111.861,129.647 115,127.5C 115.848,124.44 116.848,121.44 118,118.5C 120.333,116.167 122.667,113.833 125,111.5C 125.334,109.153 125.167,106.819 124.5,104.5C 126.544,103.969 128.211,102.802 129.5,101C 131.112,100.28 132.612,100.446 134,101.5C 133.737,106.816 133.737,112.149 134,117.5C 135.622,118.099 137.122,118.766 138.5,119.5 Z"/></g>
<g><path style="opacity:1" fill="#9bc0ff" d="M 213.5,107.5 C 212.833,107.5 212.5,107.167 212.5,106.5C 213.833,106.167 213.833,105.833 212.5,105.5C 212.586,104.504 212.252,103.671 211.5,103C 212.635,102.251 213.635,102.417 214.5,103.5C 215.167,104.833 215.833,106.167 216.5,107.5C 215.575,108.562 214.575,108.562 213.5,107.5 Z"/></g>
<g><path style="opacity:0.863" fill="#63a6fe" d="M 185.5,104.5 C 184.833,104.5 184.5,104.833 184.5,105.5C 183.599,106.29 182.932,107.29 182.5,108.5C 181.848,106.379 182.515,104.379 184.5,102.5C 185.298,102.957 185.631,103.624 185.5,104.5 Z"/></g>
<g><path style="opacity:0.018" fill="#ddecfe" d="M 184.5,105.5 C 184.5,106.167 184.833,106.5 185.5,106.5C 185.068,107.71 184.401,108.71 183.5,109.5C 183.5,108.833 183.167,108.5 182.5,108.5C 182.932,107.29 183.599,106.29 184.5,105.5 Z"/></g>
<g><path style="opacity:1" fill="#e3efff" d="M 204.5,109.5 C 205.5,109.5 206.5,109.5 207.5,109.5C 205.315,114.527 201.815,118.527 197,121.5C 194.167,120 192,117.833 190.5,115C 190.833,114.5 191.167,114 191.5,113.5C 193.422,114.711 195.255,116.044 197,117.5C 199.705,114.964 202.205,112.297 204.5,109.5 Z"/></g>
<g><path style="opacity:0.924" fill="#fdfdfe" d="M 306.5,152.5 C 307.152,153.725 308.319,154.392 310,154.5C 311.681,154.392 312.848,153.725 313.5,152.5C 315.167,152.5 316.833,152.5 318.5,152.5C 320.295,154.916 322.295,154.916 324.5,152.5C 326.698,152.125 328.698,151.458 330.5,150.5C 331.167,150.167 331.833,149.833 332.5,149.5C 339.272,149.36 345.439,151.36 351,155.5C 352.357,161.061 353.191,166.728 353.5,172.5C 333.5,172.5 313.5,172.5 293.5,172.5C 293.5,153.5 293.5,134.5 293.5,115.5C 295.781,115.923 297.448,115.256 298.5,113.5C 302.529,113.047 306.529,112.38 310.5,111.5C 314.482,112.486 318.482,113.486 322.5,114.5C 325.167,117.833 328.167,120.833 331.5,123.5C 329.664,124.919 327.664,126.086 325.5,127C 320.914,127.197 316.414,127.697 312,128.5C 311.078,135.935 308.578,142.769 304.5,149C 304.808,150.459 305.475,151.626 306.5,152.5 Z M 298.5,145.5 C 303.472,145.952 304.472,148.119 301.5,152C 299.597,152.774 297.93,152.44 296.5,151C 297.244,149.185 297.911,147.352 298.5,145.5 Z"/></g>
<g><path style="opacity:1" fill="#7eacff" d="M 243.5,113.5 C 245.857,113.337 248.19,113.503 250.5,114C 250,114.5 249.5,115 249,115.5C 247.542,114.253 246.042,114.253 244.5,115.5C 243.702,115.043 243.369,114.376 243.5,113.5 Z"/></g>
<g><path style="opacity:1" fill="#83b0ff" d="M 255.5,113.5 C 257.857,113.337 260.19,113.503 262.5,114C 262,114.5 261.5,115 261,115.5C 259.75,114.427 258.416,114.427 257,115.5C 255.97,115.164 255.47,114.497 255.5,113.5 Z"/></g>
<g><path style="opacity:0.092" fill="#abc7ff" d="M 222.5,113.5 C 223.675,113.281 224.675,113.614 225.5,114.5C 223.948,115.798 222.948,115.465 222.5,113.5 Z"/></g>
<g><path style="opacity:0.028" fill="#afcbff" d="M 231.5,113.5 C 233.857,113.337 236.19,113.503 238.5,114C 235.816,116.145 233.483,115.978 231.5,113.5 Z"/></g>
<g><path style="opacity:0.05" fill="#afcbff" d="M 267.5,113.5 C 269.857,113.337 272.19,113.503 274.5,114C 271.816,116.145 269.483,115.978 267.5,113.5 Z"/></g>
<g><path style="opacity:0.561" fill="#91beff" d="M 213.5,109.5 C 214.317,111.969 214.817,114.635 215,117.5C 215.219,116.062 215.719,114.729 216.5,113.5C 217.854,116.067 217.52,118.401 215.5,120.5C 214.817,120.137 214.15,119.804 213.5,119.5C 213.5,116.167 213.5,112.833 213.5,109.5 Z"/></g>
<g><path style="opacity:0.792" fill="#80b4fe" d="M 327.5,115.5 C 329.937,115.886 331.937,117.053 333.5,119C 330.736,119.119 328.736,117.952 327.5,115.5 Z"/></g>
<g><path style="opacity:0.584" fill="#82b5ff" d="M 180.5,113.5 C 181.117,113.611 181.617,113.944 182,114.5C 182.667,116.5 182.667,118.5 182,120.5C 180.648,118.406 180.148,116.073 180.5,113.5 Z"/></g>
<g><path style="opacity:0.883" fill="#fdfefe" d="M 284.5,117.5 C 284.5,134.5 284.5,151.5 284.5,168.5C 283.053,169.134 282.387,170.301 282.5,172C 282.684,173.376 283.351,174.209 284.5,174.5C 284.5,176.5 284.5,178.5 284.5,180.5C 284.5,181.167 284.5,181.833 284.5,182.5C 284.5,188.167 284.5,193.833 284.5,199.5C 282.841,206.991 278.174,209.657 270.5,207.5C 271.429,206.685 272.429,205.852 273.5,205C 271.962,203.068 270.795,200.901 270,198.5C 270.007,192.653 269.841,186.986 269.5,181.5C 275.394,165.923 279.728,149.923 282.5,133.5C 283.123,128.065 283.79,122.732 284.5,117.5 Z"/></g>
<g><path style="opacity:0.989" fill="#e5e5e5" d="M 138.5,119.5 C 141.187,119.336 143.854,119.503 146.5,120C 147.308,120.308 147.975,120.808 148.5,121.5C 140.562,129.379 135.229,138.712 132.5,149.5C 131.532,151.607 131.198,153.941 131.5,156.5C 123.559,157.081 115.892,156.414 108.5,154.5C 107.819,150.078 106.819,145.744 105.5,141.5C 113.5,141.5 121.5,141.5 129.5,141.5C 129.105,137.815 128.938,134.148 129,130.5C 131.904,127.358 133.738,123.691 134.5,119.5C 135.833,119.5 137.167,119.5 138.5,119.5 Z"/></g>
<g><path style="opacity:0.066" fill="#fdfdfd" d="M 253.5,119.5 C 257.495,121.828 257.495,124.161 253.5,126.5C 252.425,124.189 252.425,121.856 253.5,119.5 Z"/></g>
<g><path style="opacity:1" fill="#88b8ff" d="M 335.5,124.5 C 336.189,123.226 337.023,123.226 338,124.5C 339.401,126.146 339.568,127.813 338.5,129.5C 337.304,127.855 336.304,126.189 335.5,124.5 Z"/></g>
<g><path style="opacity:0.047" fill="#e2eeff" d="M 186.5,125.5 C 186.833,125.5 187.167,125.5 187.5,125.5C 189.23,126.026 190.564,127.026 191.5,128.5C 190.849,129.091 190.182,129.757 189.5,130.5C 188.893,130.376 188.56,130.043 188.5,129.5C 188.938,129.565 189.272,129.399 189.5,129C 188.29,127.961 187.29,126.794 186.5,125.5 Z"/></g>
<g><path style="opacity:1" fill="#54a0fe" d="M 186.5,125.5 C 187.29,126.794 188.29,127.961 189.5,129C 189.272,129.399 188.938,129.565 188.5,129.5C 187.038,128.542 185.705,127.376 184.5,126C 185.094,125.536 185.761,125.369 186.5,125.5 Z"/></g>
<g><path style="opacity:0.62" fill="#8eb8ff" d="M 211.5,124.5 C 212.289,124.783 212.956,125.283 213.5,126C 211.983,127.685 210.316,129.185 208.5,130.5C 207.702,130.043 207.369,129.376 207.5,128.5C 209.404,128.262 210.738,127.262 211.5,125.5C 211.5,125.167 211.5,124.833 211.5,124.5 Z"/></g>
<g><path style="opacity:0.033" fill="#daeafe" d="M 210.5,124.5 C 210.5,125.167 210.833,125.5 211.5,125.5C 210.738,127.262 209.404,128.262 207.5,128.5C 206.833,128.5 206.167,128.5 205.5,128.5C 207.142,127.197 208.809,125.864 210.5,124.5 Z"/></g>
<g><path style="opacity:1" fill="#1f3238" d="M 385.5,164.5 C 379.559,165.413 373.559,165.746 367.5,165.5C 366.325,165.719 365.325,165.386 364.5,164.5C 365.456,162.925 366.123,161.258 366.5,159.5C 367.771,155.358 369.438,151.358 371.5,147.5C 371.167,146.5 370.833,145.5 370.5,144.5C 368.035,143.868 366.369,142.368 365.5,140C 364.552,139.517 363.552,139.351 362.5,139.5C 361.822,135.727 363.156,132.894 366.5,131C 383.478,123.74 393.644,129.24 397,147.5C 398.132,152.889 397.298,157.889 394.5,162.5C 391.601,163.642 388.601,164.308 385.5,164.5 Z"/></g>
<g><path style="opacity:0.125" fill="#bcd0ff" d="M 197.5,129.5 C 198.5,129.5 199.5,129.5 200.5,129.5C 203.233,131.387 202.733,132.387 199,132.5C 195.267,132.387 194.767,131.387 197.5,129.5 Z"/></g>
<g><path style="opacity:1" fill="#76afff" d="M 198.5,135.5 C 199.573,136.251 199.74,137.251 199,138.5C 197.272,137.648 197.105,136.648 198.5,135.5 Z"/></g>
<g><path style="opacity:0.859" fill="#8dbaff" d="M 338.5,134.5 C 339.478,134.811 340.145,135.478 340.5,136.5C 339.948,138.333 339.115,140 338,141.5C 337.666,139.153 337.833,136.819 338.5,134.5 Z"/></g>
<g><path style="opacity:1" fill="#f58e7f" d="M 362.5,139.5 C 363.552,139.351 364.552,139.517 365.5,140C 366.369,142.368 368.035,143.868 370.5,144.5C 370.833,145.5 371.167,146.5 371.5,147.5C 369.438,151.358 367.771,155.358 366.5,159.5C 364.858,156.898 363.192,154.231 361.5,151.5C 361.244,147.293 361.577,143.293 362.5,139.5 Z"/></g>
<g><path style="opacity:1" fill="#89b2f9" d="M 198.5,142.5 C 200.326,144.437 200.493,146.437 199,148.5C 197.559,146.695 197.392,144.695 198.5,142.5 Z"/></g>
<g><path style="opacity:0.916" fill="#fdfefe" d="M 260.5,166.5 C 256.528,169.438 254.362,173.438 254,178.5C 252.667,180.5 251.333,182.5 250,184.5C 249.667,190.167 249.333,195.833 249,201.5C 247.164,203.708 244.831,205.042 242,205.5C 237.836,201.701 234.003,197.534 230.5,193C 229.034,192.365 227.7,191.531 226.5,190.5C 225.913,191.233 225.913,192.233 226.5,193.5C 222.479,189.481 218.146,185.814 213.5,182.5C 212.417,183.365 212.251,184.365 213,185.5C 215.452,190.068 217.618,194.735 219.5,199.5C 218.577,198.697 217.577,198.53 216.5,199C 213.909,201.357 212.242,204.191 211.5,207.5C 207.5,207.5 203.5,207.5 199.5,207.5C 199.657,206.127 199.49,204.793 199,203.5C 198.536,204.094 198.369,204.761 198.5,205.5C 197.596,204.791 197.263,203.791 197.5,202.5C 193.192,203.368 188.859,203.534 184.5,203C 179.997,199.829 179.33,195.996 182.5,191.5C 181.82,188.64 180.487,186.14 178.5,184C 180.57,180.117 180.903,176.117 179.5,172C 164.51,171.111 149.51,170.445 134.5,170C 132.5,169 130.5,168 128.5,167C 123.316,166.826 118.316,166.326 113.5,165.5C 136.833,165.5 160.167,165.5 183.5,165.5C 183.5,175.167 183.5,184.833 183.5,194.5C 185.199,194.66 186.866,194.494 188.5,194C 191.704,191.131 194.537,187.965 197,184.5C 197.219,185.938 197.719,187.271 198.5,188.5C 199.314,186.234 199.814,183.9 200,181.5C 204.467,176.032 209.3,170.865 214.5,166C 220.491,165.501 226.491,165.334 232.5,165.5C 232.5,162.5 232.5,159.5 232.5,156.5C 221.5,156.5 210.5,156.5 199.5,156.5C 199.5,155.5 199.5,154.5 199.5,153.5C 200.831,150.873 202.664,148.54 205,146.5C 206.32,146.799 207.82,146.966 209.5,147C 210.5,148.667 211.5,150.333 212.5,152C 218.114,151.248 223.78,150.914 229.5,151C 231.683,153.532 234.183,155.698 237,157.5C 241.137,155.384 245.304,153.218 249.5,151C 259.526,151.538 263.192,156.705 260.5,166.5 Z"/></g>
<g><path style="opacity:1" fill="#8fb8ff" d="M 332.5,149.5 C 331.833,149.833 331.167,150.167 330.5,150.5C 330.062,150.565 329.728,150.399 329.5,150C 330.833,148.667 332.167,147.333 333.5,146C 334.332,145.312 334.998,145.479 335.5,146.5C 334.812,147.855 333.812,148.855 332.5,149.5 Z"/></g>
<g><path style="opacity:0.616" fill="#eeeeee" d="M 417.5,207.5 C 416.833,207.5 416.167,207.5 415.5,207.5C 415.128,198.534 414.962,189.534 415,180.5C 412.318,177.65 409.484,174.984 406.5,172.5C 409.266,170.871 412.266,170.205 415.5,170.5C 414.983,154.528 414.983,138.528 415.5,122.5C 415.833,112.167 416.167,101.833 416.5,91.5C 417.086,91.7093 417.586,92.0426 418,92.5C 418.143,119.358 418.976,146.191 420.5,173C 420.05,183.502 419.55,194.002 419,204.5C 418.487,205.527 417.987,206.527 417.5,207.5 Z"/></g>
<g><path style="opacity:0.989" fill="#95c4fe" d="M 306.5,152.5 C 308.833,152.5 311.167,152.5 313.5,152.5C 312.848,153.725 311.681,154.392 310,154.5C 308.319,154.392 307.152,153.725 306.5,152.5 Z"/></g>
<g><path style="opacity:1" fill="#92bdff" d="M 324.5,152.5 C 322.295,154.916 320.295,154.916 318.5,152.5C 320.81,152.242 322.81,152.242 324.5,152.5 Z"/></g>
<g><path style="opacity:1" fill="#60a5fe" d="M 296.5,153.5 C 301.564,153.698 301.397,154.365 296,155.5C 295.5,155.333 295,155.167 294.5,155C 295.416,154.722 296.082,154.222 296.5,153.5 Z"/></g>
<g><path style="opacity:0.911" fill="#f3f3f4" d="M 197.5,164.5 C 193.627,166.43 189.294,167.097 184.5,166.5C 184.169,175.192 184.502,183.859 185.5,192.5C 193.535,184.467 201.202,176.133 208.5,167.5C 205.572,166.516 202.572,166.183 199.5,166.5C 199.715,164.821 199.048,163.821 197.5,163.5C 197.366,161.708 197.699,160.042 198.5,158.5C 199.338,158.158 199.672,157.492 199.5,156.5C 210.5,156.5 221.5,156.5 232.5,156.5C 232.5,159.5 232.5,162.5 232.5,165.5C 226.491,165.334 220.491,165.501 214.5,166C 209.3,170.865 204.467,176.032 200,181.5C 199.814,183.9 199.314,186.234 198.5,188.5C 197.719,187.271 197.219,185.938 197,184.5C 194.537,187.965 191.704,191.131 188.5,194C 186.866,194.494 185.199,194.66 183.5,194.5C 183.5,184.833 183.5,175.167 183.5,165.5C 160.167,165.5 136.833,165.5 113.5,165.5C 111.821,165.892 110.154,166.392 108.5,167C 99.3156,174.684 90.9822,183.184 83.5,192.5C 82.675,193.386 81.675,193.719 80.5,193.5C 88.4439,184.22 96.7772,175.22 105.5,166.5C 99.8722,165.505 94.2055,165.171 88.5,165.5C 88.5,162.833 88.5,160.167 88.5,157.5C 79.1667,157.5 69.8333,157.5 60.5,157.5C 75.6697,156.711 91.0031,156.545 106.5,157C 107.756,156.583 108.423,155.75 108.5,154.5C 115.892,156.414 123.559,157.081 131.5,156.5C 131.198,153.941 131.532,151.607 132.5,149.5C 132.244,151.792 132.577,153.959 133.5,156C 143.878,156.838 154.212,156.505 164.5,155C 159.755,153.434 157.088,150.267 156.5,145.5C 166.172,145.334 175.839,145.5 185.5,146C 186.357,146.689 187.023,147.522 187.5,148.5C 185.59,153.428 185.257,158.428 186.5,163.5C 190.035,165.626 193.702,165.959 197.5,164.5 Z M 90.5,161.5 C 94.9423,161.884 95.2757,162.884 91.5,164.5C 90.6143,163.675 90.281,162.675 90.5,161.5 Z"/></g>
<g><path style="opacity:0.086" fill="#b4ccfb" d="M 199.5,153.5 C 199.5,154.5 199.5,155.5 199.5,156.5C 199.672,157.492 199.338,158.158 198.5,158.5C 197.387,157.054 197.22,155.387 198,153.5C 198.69,152.262 199.19,152.262 199.5,153.5 Z"/></g>
<g><path style="opacity:0.984" fill="#e2e2e2" d="M 60.5,157.5 C 69.8333,157.5 79.1667,157.5 88.5,157.5C 88.5,160.167 88.5,162.833 88.5,165.5C 94.2055,165.171 99.8722,165.505 105.5,166.5C 96.7772,175.22 88.4439,184.22 80.5,193.5C 79.5067,184.682 79.1734,175.682 79.5,166.5C 73.4908,166.666 67.4908,166.499 61.5,166C 59.327,163.302 58.9937,160.469 60.5,157.5 Z"/></g>
<g><path style="opacity:1" fill="#489bfb" d="M 287.5,162.5 C 286.375,161.652 286.375,160.652 287.5,159.5C 288.423,158.697 289.423,158.53 290.5,159C 289.29,160.039 288.29,161.206 287.5,162.5 Z"/></g>
<g><path style="opacity:1" fill="#d58f88" d="M 385.5,164.5 C 384.89,165.391 384.557,166.391 384.5,167.5C 380.656,167.912 376.989,167.912 373.5,167.5C 372.118,166.723 370.118,166.056 367.5,165.5C 373.559,165.746 379.559,165.413 385.5,164.5 Z"/></g>
<g><path style="opacity:0.992" fill="#dddee2" d="M 197.5,163.5 C 199.048,163.821 199.715,164.821 199.5,166.5C 202.572,166.183 205.572,166.516 208.5,167.5C 201.202,176.133 193.535,184.467 185.5,192.5C 184.502,183.859 184.169,175.192 184.5,166.5C 189.294,167.097 193.627,166.43 197.5,164.5C 197.5,164.167 197.5,163.833 197.5,163.5 Z"/></g>
<g><path style="opacity:1" fill="#234178" d="M 373.5,167.5 C 376.989,167.912 380.656,167.912 384.5,167.5C 385.189,168.774 386.023,168.774 387,167.5C 387.717,168.044 388.217,168.711 388.5,169.5C 388.265,170.097 387.765,170.43 387,170.5C 380.689,169.89 374.523,169.224 368.5,168.5C 370.042,167.699 371.708,167.366 373.5,167.5 Z"/></g>
<g><path style="opacity:1" fill="#a8c9fd" d="M 368.5,168.5 C 374.523,169.224 380.689,169.89 387,170.5C 387.765,170.43 388.265,170.097 388.5,169.5C 392.805,170.249 397.138,171.083 401.5,172C 404.073,176.045 406.073,180.378 407.5,185C 406.748,185.671 406.414,186.504 406.5,187.5C 405.883,187.389 405.383,187.056 405,186.5C 402.648,188.03 400.481,189.697 398.5,191.5C 396.715,191.926 395.715,193.092 395.5,195C 394.671,199.126 394.337,203.293 394.5,207.5C 397.167,207.5 399.833,207.5 402.5,207.5C 403.167,207.5 403.5,207.833 403.5,208.5C 400.167,208.5 396.833,208.5 393.5,208.5C 393.5,210.833 393.5,213.167 393.5,215.5C 397.167,215.5 400.833,215.5 404.5,215.5C 404.5,215.833 404.5,216.167 404.5,216.5C 400.833,216.5 397.167,216.5 393.5,216.5C 393.5,217.833 393.5,219.167 393.5,220.5C 392.5,220.5 391.5,220.5 390.5,220.5C 390.167,220.5 389.833,220.5 389.5,220.5C 382.5,220.5 375.5,220.5 368.5,220.5C 367.833,220.5 367.167,220.5 366.5,220.5C 363.833,220.5 361.167,220.5 358.5,220.5C 358.5,219.167 358.5,217.833 358.5,216.5C 356.265,216.795 354.265,216.461 352.5,215.5C 354.5,215.5 356.5,215.5 358.5,215.5C 358.007,213.194 357.674,210.861 357.5,208.5C 356.5,208.5 355.5,208.5 354.5,208.5C 356.137,203.958 357.47,199.291 358.5,194.5C 356.775,191.802 354.441,189.802 351.5,188.5C 349.919,182.847 350.919,177.514 354.5,172.5C 359.152,171.383 363.819,170.05 368.5,168.5 Z"/></g>
<g><path style="opacity:1" fill="#7fbafe" d="M 284.5,168.5 C 284.5,170.5 284.5,172.5 284.5,174.5C 283.351,174.209 282.684,173.376 282.5,172C 282.387,170.301 283.053,169.134 284.5,168.5 Z"/></g>
<g><path style="opacity:1" fill="#96bdfc" d="M 282.5,133.5 C 279.728,149.923 275.394,165.923 269.5,181.5C 266.565,189.969 263.231,198.302 259.5,206.5C 263.107,207.489 266.774,207.823 270.5,207.5C 278.174,209.657 282.841,206.991 284.5,199.5C 286.25,198.341 287.25,196.674 287.5,194.5C 290.828,189.208 294.662,184.208 299,179.5C 298.816,183.075 297.982,186.575 296.5,190C 296.905,190.945 297.572,191.612 298.5,192C 297.376,192.249 296.376,192.749 295.5,193.5C 294.03,197.912 292.363,202.245 290.5,206.5C 291.325,207.386 292.325,207.719 293.5,207.5C 294.5,207.5 295.5,207.5 296.5,207.5C 302.833,207.5 309.167,207.5 315.5,207.5C 319.5,207.5 323.5,207.5 327.5,207.5C 328.791,207.263 329.791,207.596 330.5,208.5C 316.817,208.167 303.15,208.501 289.5,209.5C 288.833,211.167 288.167,212.833 287.5,214.5C 303.82,215.499 320.153,215.833 336.5,215.5C 337.167,215.5 337.5,215.833 337.5,216.5C 320.487,216.167 303.487,216.501 286.5,217.5C 285.487,220.188 284.487,222.854 283.5,225.5C 282.183,228.428 280.85,231.428 279.5,234.5C 277.226,239.383 275.226,244.383 273.5,249.5C 272.07,253.354 270.403,257.021 268.5,260.5C 263.323,272.013 258.323,283.68 253.5,295.5C 252.778,295.082 252.278,294.416 252,293.5C 251.831,279.661 251.331,265.994 250.5,252.5C 248.025,246.217 245.025,240.217 241.5,234.5C 237.859,228.205 233.859,222.205 229.5,216.5C 229.672,215.508 229.338,214.842 228.5,214.5C 227.5,212.5 226.5,210.5 225.5,208.5C 225.158,207.662 224.492,207.328 223.5,207.5C 222.601,204.605 221.267,201.938 219.5,199.5C 217.618,194.735 215.452,190.068 213,185.5C 212.251,184.365 212.417,183.365 213.5,182.5C 218.146,185.814 222.479,189.481 226.5,193.5C 230.635,197.806 234.635,202.306 238.5,207C 242.833,207.667 247.167,207.667 251.5,207C 252.332,200.219 253.165,193.385 254,186.5C 255.878,179.7 258.045,173.033 260.5,166.5C 265.052,157.734 269.885,149.068 275,140.5C 276.736,137.261 279.236,134.927 282.5,133.5 Z M 269.5,181.5 C 269.841,186.986 270.007,192.653 270,198.5C 270.795,200.901 271.962,203.068 273.5,205C 272.429,205.852 271.429,206.685 270.5,207.5C 266.774,207.823 263.107,207.489 259.5,206.5C 263.231,198.302 266.565,189.969 269.5,181.5 Z M 272.5,216.5 C 273.097,216.735 273.43,217.235 273.5,218C 272.349,220.465 271.349,222.965 270.5,225.5C 269.876,225.083 269.543,224.416 269.5,223.5C 270.251,221.004 271.251,218.67 272.5,216.5 Z M 262.5,242.5 C 261.89,243.391 261.557,244.391 261.5,245.5C 260.115,244.053 260.448,243.053 262.5,242.5 Z M 256.5,261.5 C 255.51,265.772 254.844,270.106 254.5,274.5C 253.094,269.85 253.428,265.183 255.5,260.5C 256.107,260.624 256.44,260.957 256.5,261.5 Z"/></g>
<g><path style="opacity:1" fill="#569bf8" d="M 284.5,180.5 C 285.497,180.47 286.164,180.97 286.5,182C 286.317,183.684 285.65,183.85 284.5,182.5C 284.5,181.833 284.5,181.167 284.5,180.5 Z"/></g>
<g><path style="opacity:1" fill="#466db6" d="M 331.5,183.5 C 328.921,184.228 326.254,184.728 323.5,185C 322.667,187.081 322.667,189.248 323.5,191.5C 323.167,191.5 322.833,191.5 322.5,191.5C 321.629,188.888 320.963,186.221 320.5,183.5C 324.328,182.502 327.994,182.502 331.5,183.5 Z"/></g>
<g><path style="opacity:0.256" fill="#eef0f4" d="M 172.5,192.5 C 172.5,191.167 172.5,189.833 172.5,188.5C 171.5,188.5 170.5,188.5 169.5,188.5C 169.5,187.167 169.5,185.833 169.5,184.5C 171.604,184.201 173.604,184.534 175.5,185.5C 174.131,187.764 173.131,190.097 172.5,192.5 Z"/></g>
<g><path style="opacity:1" fill="#dde4f6" d="M 331.5,183.5 C 333.565,188.696 335.232,194.03 336.5,199.5C 335.209,199.263 334.209,199.596 333.5,200.5C 332.833,200.5 332.167,200.5 331.5,200.5C 331.005,198.518 330.505,196.518 330,194.5C 329.692,195.308 329.192,195.975 328.5,196.5C 326.479,195.145 324.812,193.479 323.5,191.5C 322.667,189.248 322.667,187.081 323.5,185C 326.254,184.728 328.921,184.228 331.5,183.5 Z"/></g>
<g><path style="opacity:1" fill="#fe9080" d="M 406.5,187.5 C 408.944,193.608 410.611,199.941 411.5,206.5C 411.5,207.833 411.5,209.167 411.5,210.5C 411.5,213.167 411.5,215.833 411.5,218.5C 408.985,225.541 404.985,231.541 399.5,236.5C 398.985,234.106 398.319,231.772 397.5,229.5C 400.595,225.648 402.928,221.315 404.5,216.5C 404.5,216.167 404.5,215.833 404.5,215.5C 404.702,213.05 404.369,210.717 403.5,208.5C 403.5,207.833 403.167,207.5 402.5,207.5C 401.37,202.112 400.037,196.778 398.5,191.5C 400.481,189.697 402.648,188.03 405,186.5C 405.383,187.056 405.883,187.389 406.5,187.5 Z"/></g>
<g><path style="opacity:1" fill="#fd8f7f" d="M 351.5,188.5 C 354.441,189.802 356.775,191.802 358.5,194.5C 357.47,199.291 356.137,203.958 354.5,208.5C 353.833,210.833 353.167,213.167 352.5,215.5C 350.999,218.09 348.665,219.423 345.5,219.5C 342.583,219.036 339.916,218.036 337.5,216.5C 337.5,215.833 337.167,215.5 336.5,215.5C 334.5,213.167 332.5,210.833 330.5,208.5C 329.791,207.596 328.791,207.263 327.5,207.5C 327.025,205.216 326.025,203.216 324.5,201.5C 322.977,198.365 322.31,195.032 322.5,191.5C 322.833,191.5 323.167,191.5 323.5,191.5C 324.812,193.479 326.479,195.145 328.5,196.5C 329.192,195.975 329.692,195.308 330,194.5C 330.505,196.518 331.005,198.518 331.5,200.5C 331.328,201.492 331.662,202.158 332.5,202.5C 334.118,204.785 336.118,206.785 338.5,208.5C 340.66,210.85 343.16,211.517 346,210.5C 346.483,209.552 346.649,208.552 346.5,207.5C 348.485,201.26 350.152,194.927 351.5,188.5 Z M 336.5,202.5 C 337.167,202.5 337.5,202.167 337.5,201.5C 341.421,199.799 343.421,201.133 343.5,205.5C 340.509,205.834 338.176,204.834 336.5,202.5 Z"/></g>
<g><path style="opacity:1" fill="#97c4ff" d="M 303.5,191.5 C 305.604,191.201 307.604,191.534 309.5,192.5C 308.5,192.833 307.5,193.167 306.5,193.5C 304.97,193.36 303.97,192.693 303.5,191.5 Z"/></g>
<g><path style="opacity:1" fill="#243f77" d="M 169.5,188.5 C 170.5,188.5 171.5,188.5 172.5,188.5C 172.5,189.833 172.5,191.167 172.5,192.5C 172.245,197.171 169.911,200.338 165.5,202C 161.245,202.796 157.079,202.629 153,201.5C 152.183,204.964 152.517,208.298 154,211.5C 159.167,206.166 165.334,204.166 172.5,205.5C 172.5,206.167 172.5,206.833 172.5,207.5C 167.409,208.262 164.742,211.262 164.5,216.5C 163.833,216.5 163.5,216.833 163.5,217.5C 162.305,217.678 161.138,218.011 160,218.5C 157.842,217.549 155.675,217.049 153.5,217C 154.31,220.203 155.31,223.369 156.5,226.5C 158.264,224.722 160.264,223.389 162.5,222.5C 164.388,224.988 165.055,227.988 164.5,231.5C 146.833,231.5 129.167,231.5 111.5,231.5C 125.661,230.669 139.994,230.169 154.5,230C 153.914,227.72 153.08,225.553 152,223.5C 143.612,229.25 137.445,227.25 133.5,217.5C 135.611,216.051 137.944,215.051 140.5,214.5C 144.224,215.376 147.89,216.376 151.5,217.5C 151.543,214.09 151.043,210.757 150,207.5C 144.568,212.013 139.901,211.346 136,205.5C 134.381,203.044 133.881,200.544 134.5,198C 140.178,196.893 145.345,198.059 150,201.5C 150.49,200.207 150.657,198.873 150.5,197.5C 144.205,197.371 140.205,194.371 138.5,188.5C 146.694,186.066 151.528,189.066 153,197.5C 157.717,193.058 163.217,190.058 169.5,188.5 Z"/></g>
<g><path style="opacity:1" fill="#759fd7" d="M 333.5,200.5 C 334.209,199.596 335.209,199.263 336.5,199.5C 337.338,199.842 337.672,200.508 337.5,201.5C 337.5,202.167 337.167,202.5 336.5,202.5C 335.833,202.5 335.167,202.5 334.5,202.5C 337.258,201.033 336.925,200.367 333.5,200.5 Z"/></g>
<g><path style="opacity:1" fill="#1f59b4" d="M 331.5,200.5 C 332.167,200.5 332.833,200.5 333.5,200.5C 336.925,200.367 337.258,201.033 334.5,202.5C 333.833,202.5 333.167,202.5 332.5,202.5C 331.662,202.158 331.328,201.492 331.5,200.5 Z"/></g>
<g><path style="opacity:0.96" fill="#568dd3" d="M 211.5,207.5 C 215.5,207.5 219.5,207.5 223.5,207.5C 224.492,207.328 225.158,207.662 225.5,208.5C 207.659,208.83 189.992,208.497 172.5,207.5C 172.5,206.833 172.5,206.167 172.5,205.5C 180.569,207.585 188.903,208.085 197.5,207C 198.056,206.617 198.389,206.117 198.5,205.5C 198.369,204.761 198.536,204.094 199,203.5C 199.49,204.793 199.657,206.127 199.5,207.5C 203.5,207.5 207.5,207.5 211.5,207.5 Z"/></g>
<g><path style="opacity:1" fill="#6687bc" d="M 411.5,206.5 C 412.708,207.234 414.041,207.567 415.5,207.5C 416.167,207.5 416.833,207.5 417.5,207.5C 418.791,207.263 419.791,207.596 420.5,208.5C 419.5,208.5 418.5,208.5 417.5,208.5C 415.219,208.077 413.552,208.744 412.5,210.5C 412.167,210.5 411.833,210.5 411.5,210.5C 411.5,209.167 411.5,207.833 411.5,206.5 Z"/></g>
<g><path style="opacity:1" fill="#1359b9" d="M 172.5,207.5 C 189.992,208.497 207.659,208.83 225.5,208.5C 226.5,210.5 227.5,212.5 228.5,214.5C 218.833,215.167 209.167,215.833 199.5,216.5C 199.631,217.239 199.464,217.906 199,218.5C 187.754,216.535 176.254,215.868 164.5,216.5C 164.742,211.262 167.409,208.262 172.5,207.5 Z"/></g>
<g><path style="opacity:1" fill="#0757b8" d="M 239.5,208.5 C 243.833,208.5 248.167,208.5 252.5,208.5C 252.5,210.833 252.5,213.167 252.5,215.5C 245.774,217.016 241.44,214.682 239.5,208.5 Z"/></g>
<g><path style="opacity:1" fill="#0356b7" d="M 257.5,208.5 C 264.863,208.169 272.197,208.503 279.5,209.5C 278.752,211.332 277.752,212.999 276.5,214.5C 269.197,215.497 261.863,215.831 254.5,215.5C 255.011,212.978 256.011,210.645 257.5,208.5 Z"/></g>
<g><path style="opacity:1" fill="#0355b7" d="M 330.5,208.5 C 332.5,210.833 334.5,213.167 336.5,215.5C 320.153,215.833 303.82,215.499 287.5,214.5C 288.167,212.833 288.833,211.167 289.5,209.5C 303.15,208.501 316.817,208.167 330.5,208.5 Z"/></g>
<g><path style="opacity:1" fill="#3964b8" d="M 338.5,208.5 C 340.948,207.527 343.615,207.194 346.5,207.5C 346.649,208.552 346.483,209.552 346,210.5C 343.16,211.517 340.66,210.85 338.5,208.5 Z"/></g>
<g><path style="opacity:1" fill="#1a58b6" d="M 354.5,208.5 C 355.5,208.5 356.5,208.5 357.5,208.5C 357.674,210.861 358.007,213.194 358.5,215.5C 356.5,215.5 354.5,215.5 352.5,215.5C 353.167,213.167 353.833,210.833 354.5,208.5 Z"/></g>
<g><path style="opacity:1" fill="#1956b5" d="M 403.5,208.5 C 404.369,210.717 404.702,213.05 404.5,215.5C 400.833,215.5 397.167,215.5 393.5,215.5C 393.5,213.167 393.5,210.833 393.5,208.5C 396.833,208.5 400.167,208.5 403.5,208.5 Z"/></g>
<g><path style="opacity:1" fill="#0053b4" d="M 417.5,208.5 C 419.669,210.34 421.002,212.674 421.5,215.5C 418.5,215.5 415.5,215.5 412.5,215.5C 412.5,213.833 412.5,212.167 412.5,210.5C 413.552,208.744 415.219,208.077 417.5,208.5 Z"/></g>
<g><path style="opacity:1" fill="#032e69" d="M 417.5,208.5 C 418.5,208.5 419.5,208.5 420.5,208.5C 422.113,208.944 423.28,209.944 424,211.5C 424.667,263.5 424.667,315.5 424,367.5C 422.871,369.141 421.371,370.141 419.5,370.5C 418.833,370.5 418.167,370.5 417.5,370.5C 418.801,369.36 419.968,368.027 421,366.5C 421.5,360.175 421.666,353.842 421.5,347.5C 421.5,303.5 421.5,259.5 421.5,215.5C 421.002,212.674 419.669,210.34 417.5,208.5 Z"/></g>
<g><path style="opacity:1" fill="#6094d5" d="M 228.5,214.5 C 229.338,214.842 229.672,215.508 229.5,216.5C 219.5,216.5 209.5,216.5 199.5,216.5C 209.167,215.833 218.833,215.167 228.5,214.5 Z"/></g>
<g><path style="opacity:1" fill="#d6e5fb" d="M 164.5,216.5 C 176.254,215.868 187.754,216.535 199,218.5C 199.464,217.906 199.631,217.239 199.5,216.5C 209.5,216.5 219.5,216.5 229.5,216.5C 233.859,222.205 237.859,228.205 241.5,234.5C 239.585,234.216 237.919,234.549 236.5,235.5C 235.461,233.469 233.795,232.136 231.5,231.5C 231.5,230.833 231.167,230.5 230.5,230.5C 230.539,229.417 230.873,228.417 231.5,227.5C 224.189,226.335 216.856,226.169 209.5,227C 208.663,228.011 208.33,229.178 208.5,230.5C 194.167,230.5 179.833,230.5 165.5,230.5C 166.055,226.988 165.388,223.988 163.5,221.5C 163.5,220.167 163.5,218.833 163.5,217.5C 163.5,216.833 163.833,216.5 164.5,216.5 Z"/></g>
<g><path style="opacity:0.969" fill="#e1eafc" d="M 243.5,217.5 C 246.355,216.197 249.355,216.197 252.5,217.5C 251.696,225.785 251.196,234.118 251,242.5C 250.182,233.538 247.682,225.204 243.5,217.5 Z"/></g>
<g><path style="opacity:0.999" fill="#d6e6fb" d="M 352.5,215.5 C 354.265,216.461 356.265,216.795 358.5,216.5C 358.5,217.833 358.5,219.167 358.5,220.5C 358.433,221.959 358.766,223.292 359.5,224.5C 359.672,225.492 359.338,226.158 358.5,226.5C 333.328,226.831 308.328,226.498 283.5,225.5C 284.487,222.854 285.487,220.188 286.5,217.5C 303.487,216.501 320.487,216.167 337.5,216.5C 339.916,218.036 342.583,219.036 345.5,219.5C 348.665,219.423 350.999,218.09 352.5,215.5 Z"/></g>
<g><path style="opacity:1" fill="#dae5f8" d="M 404.5,216.5 C 402.928,221.315 400.595,225.648 397.5,229.5C 396.559,227.95 395.893,226.284 395.5,224.5C 395.34,222.847 394.674,221.514 393.5,220.5C 393.5,219.167 393.5,217.833 393.5,216.5C 397.167,216.5 400.833,216.5 404.5,216.5 Z"/></g>
<g><path style="opacity:1" fill="#d5e4fa" d="M 420.5,347.5 C 415.167,347.5 409.833,347.5 404.5,347.5C 398.888,310.7 397.221,273.7 399.5,236.5C 404.985,231.541 408.985,225.541 411.5,218.5C 414.145,216.758 417.145,216.091 420.5,216.5C 420.5,260.167 420.5,303.833 420.5,347.5 Z"/></g>
<g><path style="opacity:1" fill="#809dcc" d="M 411.5,210.5 C 411.833,210.5 412.167,210.5 412.5,210.5C 412.5,212.167 412.5,213.833 412.5,215.5C 415.5,215.5 418.5,215.5 421.5,215.5C 421.5,259.5 421.5,303.5 421.5,347.5C 421.167,347.5 420.833,347.5 420.5,347.5C 420.5,303.833 420.5,260.167 420.5,216.5C 417.145,216.091 414.145,216.758 411.5,218.5C 411.5,215.833 411.5,213.167 411.5,210.5 Z"/></g>
<g><path style="opacity:1" fill="#0b6de3" d="M 358.5,220.5 C 361.167,220.5 363.833,220.5 366.5,220.5C 366.5,221.833 366.5,223.167 366.5,224.5C 364.167,224.5 361.833,224.5 359.5,224.5C 358.766,223.292 358.433,221.959 358.5,220.5 Z"/></g>
<g><path style="opacity:1" fill="#086bdf" d="M 390.5,220.5 C 391.5,220.5 392.5,220.5 393.5,220.5C 394.674,221.514 395.34,222.847 395.5,224.5C 393.833,224.5 392.167,224.5 390.5,224.5C 390.5,223.167 390.5,221.833 390.5,220.5 Z"/></g>
<g><path style="opacity:1" fill="#052f6a" d="M 366.5,220.5 C 367.167,220.5 367.833,220.5 368.5,220.5C 368.5,221.833 368.5,223.167 368.5,224.5C 375.5,224.5 382.5,224.5 389.5,224.5C 389.5,223.167 389.5,221.833 389.5,220.5C 389.833,220.5 390.167,220.5 390.5,220.5C 390.5,221.833 390.5,223.167 390.5,224.5C 392.167,224.5 393.833,224.5 395.5,224.5C 395.893,226.284 396.559,227.95 397.5,229.5C 398.319,231.772 398.985,234.106 399.5,236.5C 397.221,273.7 398.888,310.7 404.5,347.5C 405.78,355.126 406.78,362.793 407.5,370.5C 407.263,371.791 407.596,372.791 408.5,373.5C 409.5,380.833 410.5,388.167 411.5,395.5C 407.5,395.5 403.5,395.5 399.5,395.5C 396.859,387.607 394.526,379.607 392.5,371.5C 390.499,363.829 388.499,356.162 386.5,348.5C 386.737,347.209 386.404,346.209 385.5,345.5C 381.346,330.062 378.346,314.395 376.5,298.5C 378.825,297.345 379.992,295.345 380,292.5C 381.027,285.712 381.527,278.879 381.5,272C 381.644,266.663 381.144,261.497 380,256.5C 378.282,270.126 377.115,283.793 376.5,297.5C 374.763,313.966 374.096,330.633 374.5,347.5C 374.5,347.833 374.5,348.167 374.5,348.5C 374.5,356.167 374.5,363.833 374.5,371.5C 375.323,379.471 375.656,387.471 375.5,395.5C 371.215,396.295 366.881,396.628 362.5,396.5C 361.781,388.131 360.781,379.798 359.5,371.5C 359.5,371.167 359.5,370.833 359.5,370.5C 358.744,362.787 357.744,355.12 356.5,347.5C 356.32,342.064 355.654,336.73 354.5,331.5C 354.5,329.833 354.5,328.167 354.5,326.5C 353.269,312.805 353.269,299.138 354.5,285.5C 354.5,284.167 354.5,282.833 354.5,281.5C 355.713,265.822 357.047,250.155 358.5,234.5C 358.5,231.833 358.5,229.167 358.5,226.5C 359.338,226.158 359.672,225.492 359.5,224.5C 361.833,224.5 364.167,224.5 366.5,224.5C 366.5,223.167 366.5,221.833 366.5,220.5 Z M 376.5,297.5 C 376.5,297.833 376.5,298.167 376.5,298.5C 378.346,314.395 381.346,330.062 385.5,345.5C 382.316,347.414 378.649,348.08 374.5,347.5C 374.096,330.633 374.763,313.966 376.5,297.5 Z"/></g>
<g><path style="opacity:1" fill="#0069e0" d="M 368.5,220.5 C 375.5,220.5 382.5,220.5 389.5,220.5C 389.5,221.833 389.5,223.167 389.5,224.5C 382.5,224.5 375.5,224.5 368.5,224.5C 368.5,223.167 368.5,221.833 368.5,220.5 Z"/></g>
<g><path style="opacity:1" fill="#b0cffd" d="M 230.5,230.5 C 223.167,230.5 215.833,230.5 208.5,230.5C 208.33,229.178 208.663,228.011 209.5,227C 216.856,226.169 224.189,226.335 231.5,227.5C 230.873,228.417 230.539,229.417 230.5,230.5 Z"/></g>
<g><path style="opacity:1" fill="#accdfe" d="M 283.5,225.5 C 308.328,226.498 333.328,226.831 358.5,226.5C 358.5,229.167 358.5,231.833 358.5,234.5C 332.167,234.5 305.833,234.5 279.5,234.5C 280.85,231.428 282.183,228.428 283.5,225.5 Z"/></g>
<g><path style="opacity:1" fill="#7aa2d8" d="M 162.5,222.5 C 162.5,221.833 162.833,221.5 163.5,221.5C 165.388,223.988 166.055,226.988 165.5,230.5C 179.833,230.5 194.167,230.5 208.5,230.5C 215.833,230.5 223.167,230.5 230.5,230.5C 231.167,230.5 231.5,230.833 231.5,231.5C 230.833,231.5 230.167,231.5 229.5,231.5C 207.833,231.5 186.167,231.5 164.5,231.5C 165.055,227.988 164.388,224.988 162.5,222.5 Z"/></g>
<g><path style="opacity:1" fill="#0255b7" d="M 111.5,231.5 C 129.167,231.5 146.833,231.5 164.5,231.5C 186.167,231.5 207.833,231.5 229.5,231.5C 231.705,233.363 233.039,235.697 233.5,238.5C 191.167,238.5 148.833,238.5 106.5,238.5C 105.981,234.521 107.648,232.187 111.5,231.5 Z"/></g>
<g><path style="opacity:1" fill="#032f6a" d="M 229.5,231.5 C 230.167,231.5 230.833,231.5 231.5,231.5C 233.795,232.136 235.461,233.469 236.5,235.5C 236.5,243.833 236.5,252.167 236.5,260.5C 236.5,267.833 236.5,275.167 236.5,282.5C 236.5,290.167 236.5,297.833 236.5,305.5C 236.5,319.5 236.5,333.5 236.5,347.5C 236.5,347.833 236.5,348.167 236.5,348.5C 236.5,355.833 236.5,363.167 236.5,370.5C 236.5,370.833 236.5,371.167 236.5,371.5C 236.5,377.167 236.5,382.833 236.5,388.5C 236.5,388.833 236.5,389.167 236.5,389.5C 236.666,396.841 236.5,404.174 236,411.5C 235.093,413.609 233.593,414.942 231.5,415.5C 230.833,415.5 230.167,415.5 229.5,415.5C 233.151,410.889 234.484,405.556 233.5,399.5C 233.5,345.833 233.5,292.167 233.5,238.5C 233.039,235.697 231.705,233.363 229.5,231.5 Z"/></g>
<g><path style="opacity:0.996" fill="#e4edfc" d="M 106.5,239.5 C 121.167,239.5 135.833,239.5 150.5,239.5C 149.664,244.834 149.164,250.167 149,255.5C 149.718,254.549 150.551,254.383 151.5,255C 149.403,256.77 148.069,258.937 147.5,261.5C 147.19,260.262 146.69,260.262 146,261.5C 145.51,262.793 145.343,264.127 145.5,265.5C 145.5,266.5 145.5,267.5 145.5,268.5C 145.5,268.833 145.5,269.167 145.5,269.5C 137.167,269.5 128.833,269.5 120.5,269.5C 120.167,265.5 119.833,265.5 119.5,269.5C 115.167,269.5 110.833,269.5 106.5,269.5C 106.5,260.5 106.5,251.5 106.5,242.5C 106.5,241.5 106.5,240.5 106.5,239.5 Z"/></g>
<g><path style="opacity:0.989" fill="#eef2fb" d="M 150.5,239.5 C 158.167,239.5 165.833,239.5 173.5,239.5C 172.926,244.945 171.926,250.279 170.5,255.5C 166.89,254.153 166.557,254.82 169.5,257.5C 166.715,278.929 163.215,300.262 159,321.5C 158.963,323.974 158.13,325.974 156.5,327.5C 155.833,327.5 155.167,327.5 154.5,327.5C 154.667,309.83 154.5,292.164 154,274.5C 153.208,272.356 151.708,271.023 149.5,270.5C 148.432,269.566 147.099,269.232 145.5,269.5C 145.5,269.167 145.5,268.833 145.5,268.5C 147.048,268.179 147.715,267.179 147.5,265.5C 147.5,264.167 147.5,262.833 147.5,261.5C 148.069,258.937 149.403,256.77 151.5,255C 150.551,254.383 149.718,254.549 149,255.5C 149.164,250.167 149.664,244.834 150.5,239.5 Z"/></g>
<g><path style="opacity:1" fill="#e2ecfc" d="M 173.5,239.5 C 175.5,239.5 177.5,239.5 179.5,239.5C 173.653,270.401 168.32,301.401 163.5,332.5C 160.953,331.066 158.619,329.4 156.5,327.5C 158.13,325.974 158.963,323.974 159,321.5C 163.215,300.262 166.715,278.929 169.5,257.5C 170.338,257.158 170.672,256.492 170.5,255.5C 171.926,250.279 172.926,244.945 173.5,239.5 Z"/></g>
<g><path style="opacity:1" fill="#eef2fb" d="M 179.5,239.5 C 183.5,239.5 187.5,239.5 191.5,239.5C 185.511,271.102 179.844,302.768 174.5,334.5C 171.215,334.269 168.715,335.603 167,338.5C 165.606,336.612 164.44,334.612 163.5,332.5C 168.32,301.401 173.653,270.401 179.5,239.5 Z"/></g>
<g><path style="opacity:1" fill="#e4edfc" d="M 191.5,239.5 C 205.167,239.5 218.833,239.5 232.5,239.5C 232.5,292.833 232.5,346.167 232.5,399.5C 208.167,399.5 183.833,399.5 159.5,399.5C 159.757,396.068 160.424,392.734 161.5,389.5C 159.5,389.5 157.5,389.5 155.5,389.5C 157.062,385.376 158.895,381.376 161,377.5C 166,382.833 171,382.833 176,377.5C 176.865,375.112 176.032,373.612 173.5,373C 169.909,372.211 166.409,372.378 163,373.5C 162.862,370.379 163.529,367.379 165,364.5C 170.717,370.111 176.05,369.778 181,363.5C 181.795,360.617 180.629,359.117 177.5,359C 173.668,358.238 170.002,358.738 166.5,360.5C 166.167,360.167 165.833,359.833 165.5,359.5C 166.775,356.627 167.608,353.627 168,350.5C 171.706,355.268 175.706,355.601 180,351.5C 181.707,349.091 182.54,346.425 182.5,343.5C 177.431,342.909 172.764,343.909 168.5,346.5C 167.571,345.311 167.238,343.978 167.5,342.5C 172.583,342.625 176.583,340.625 179.5,336.5C 177.978,335.438 176.312,334.771 174.5,334.5C 179.844,302.768 185.511,271.102 191.5,239.5 Z"/></g>
<g><path style="opacity:1" fill="#86a1ca" d="M 106.5,239.5 C 106.5,239.167 106.5,238.833 106.5,238.5C 148.833,238.5 191.167,238.5 233.5,238.5C 233.5,292.167 233.5,345.833 233.5,399.5C 233.167,399.5 232.833,399.5 232.5,399.5C 232.5,346.167 232.5,292.833 232.5,239.5C 218.833,239.5 205.167,239.5 191.5,239.5C 187.5,239.5 183.5,239.5 179.5,239.5C 177.5,239.5 175.5,239.5 173.5,239.5C 165.833,239.5 158.167,239.5 150.5,239.5C 135.833,239.5 121.167,239.5 106.5,239.5 Z"/></g>
<g><path style="opacity:0.914" fill="#f8f9fa" d="M 106.5,242.5 C 106.5,251.5 106.5,260.5 106.5,269.5C 102.5,269.5 98.5,269.5 94.5,269.5C 94.7373,268.209 94.404,267.209 93.5,266.5C 94.3007,264.958 94.634,263.292 94.5,261.5C 96.1376,260.295 96.4709,258.962 95.5,257.5C 96.2625,256.732 97.2625,256.232 98.5,256C 99.0848,254.698 99.7515,253.531 100.5,252.5C 101.962,253.471 103.295,253.138 104.5,251.5C 105.088,248.39 105.755,245.39 106.5,242.5 Z"/></g>
<g><path style="opacity:0.873" fill="#f2f4fb" d="M 241.5,234.5 C 245.025,240.217 248.025,246.217 250.5,252.5C 250.667,275.502 250.5,298.502 250,321.5C 247.864,308.927 244.031,296.927 238.5,285.5C 239.117,285.611 239.617,285.944 240,286.5C 240.667,278.833 240.667,271.167 240,263.5C 239.578,261.574 238.411,260.574 236.5,260.5C 236.5,252.167 236.5,243.833 236.5,235.5C 237.919,234.549 239.585,234.216 241.5,234.5 Z"/></g>
<g><path style="opacity:0.971" fill="#e7eefc" d="M 272.5,216.5 C 271.251,218.67 270.251,221.004 269.5,223.5C 269.543,224.416 269.876,225.083 270.5,225.5C 268.07,231.357 265.403,237.023 262.5,242.5C 260.448,243.053 260.115,244.053 261.5,245.5C 260.198,251.066 258.531,256.399 256.5,261.5C 256.44,260.957 256.107,260.624 255.5,260.5C 253.428,265.183 253.094,269.85 254.5,274.5C 254.002,277.487 253.502,280.487 253,283.5C 252.5,267.17 252.333,250.837 252.5,234.5C 254.833,234.5 257.167,234.5 259.5,234.5C 259.232,231.881 259.565,229.381 260.5,227C 258.527,226.505 256.527,226.338 254.5,226.5C 253.194,226.142 252.861,222.809 253.5,216.5C 259.833,216.5 266.167,216.5 272.5,216.5 Z"/></g>
<g><path style="opacity:0.985" fill="#edf2fd" d="M 279.5,234.5 C 305.833,234.5 332.167,234.5 358.5,234.5C 357.047,250.155 355.713,265.822 354.5,281.5C 353.167,282.833 353.167,284.167 354.5,285.5C 353.269,299.138 353.269,312.805 354.5,326.5C 353.596,327.209 353.263,328.209 353.5,329.5C 324.329,329.831 295.329,329.498 266.5,328.5C 272.322,316.188 278.155,303.855 284,291.5C 285.525,288.28 286.192,284.947 286,281.5C 269.7,295.467 258.7,312.801 253,333.5C 252.5,322.172 252.333,310.838 252.5,299.5C 252.433,298.041 252.766,296.708 253.5,295.5C 258.323,283.68 263.323,272.013 268.5,260.5C 268.281,261.675 268.614,262.675 269.5,263.5C 274.134,262.19 276.134,259.024 275.5,254C 275.431,252.014 274.765,250.514 273.5,249.5C 275.226,244.383 277.226,239.383 279.5,234.5 Z"/></g>
<g><path style="opacity:1" fill="#74affe" d="M 158.5,250.5 C 160.308,250.491 161.975,250.991 163.5,252C 162.667,252.167 161.833,252.333 161,252.5C 159.624,252.316 158.791,251.649 158.5,250.5 Z"/></g>
<g><path style="opacity:1" fill="#5fa5fe" d="M 104.5,251.5 C 103.295,253.138 101.962,253.471 100.5,252.5C 101.708,251.766 103.041,251.433 104.5,251.5 Z"/></g>
<g><path style="opacity:1" fill="#63a8fd" d="M 109.5,252.5 C 111.264,251.288 112.93,251.621 114.5,253.5C 114.333,253.833 114.167,254.167 114,254.5C 112.67,253.418 111.17,252.751 109.5,252.5 Z"/></g>
<g><path style="opacity:1" fill="#63a9fd" d="M 170.5,255.5 C 170.672,256.492 170.338,257.158 169.5,257.5C 166.557,254.82 166.89,254.153 170.5,255.5 Z"/></g>
<g><path style="opacity:1" fill="#64a9fd" d="M 117.5,258.5 C 118.077,257.227 118.743,257.227 119.5,258.5C 120.428,259.768 120.595,261.101 120,262.5C 119.392,260.934 118.558,259.6 117.5,258.5 Z"/></g>
<g><path style="opacity:1" fill="#82b5fd" d="M 95.5,257.5 C 96.4709,258.962 96.1376,260.295 94.5,261.5C 93.5291,260.038 93.8624,258.705 95.5,257.5 Z"/></g>
<g><path style="opacity:1" fill="#001840" d="M 376.5,298.5 C 376.5,298.167 376.5,297.833 376.5,297.5C 377.115,283.793 378.282,270.126 380,256.5C 381.144,261.497 381.644,266.663 381.5,272C 381.527,278.879 381.027,285.712 380,292.5C 379.992,295.345 378.825,297.345 376.5,298.5 Z"/></g>
<g><path style="opacity:0.788" fill="#84b9fd" d="M 147.5,261.5 C 147.5,262.833 147.5,264.167 147.5,265.5C 146.833,265.5 146.167,265.5 145.5,265.5C 145.343,264.127 145.51,262.793 146,261.5C 146.69,260.262 147.19,260.262 147.5,261.5 Z"/></g>
<g><path style="opacity:1" fill="#7ab5fd" d="M 171.5,263.5 C 172.649,263.791 173.316,264.624 173.5,266C 173.167,266.833 172.833,267.667 172.5,268.5C 171.548,266.955 171.215,265.288 171.5,263.5 Z"/></g>
<g><path style="opacity:1" fill="#84aadd" d="M 145.5,269.5 C 147.099,269.232 148.432,269.566 149.5,270.5C 148.833,270.5 148.167,270.5 147.5,270.5C 129.659,270.83 111.992,270.497 94.5,269.5C 98.5,269.5 102.5,269.5 106.5,269.5C 110.833,269.5 115.167,269.5 119.5,269.5C 119.833,265.5 120.167,265.5 120.5,269.5C 128.833,269.5 137.167,269.5 145.5,269.5 Z"/></g>
<g><path style="opacity:1" fill="#0e55b4" d="M 93.5,266.5 C 94.404,267.209 94.7373,268.209 94.5,269.5C 111.992,270.497 129.659,270.83 147.5,270.5C 149.705,272.363 151.039,274.697 151.5,277.5C 128.142,278.156 105.142,277.49 82.5,275.5C 82.2965,273.61 82.9632,272.11 84.5,271C 87.3508,269.711 90.3508,269.211 93.5,269.5C 93.5,268.5 93.5,267.5 93.5,266.5 Z"/></g>
<g><path style="opacity:1" fill="#002d68" d="M 147.5,270.5 C 148.167,270.5 148.833,270.5 149.5,270.5C 151.708,271.023 153.208,272.356 154,274.5C 154.5,292.164 154.667,309.83 154.5,327.5C 154.5,332.167 154.5,336.833 154.5,341.5C 154.5,342.5 154.5,343.5 154.5,344.5C 154.5,348.5 154.5,352.5 154.5,356.5C 154.5,357.833 154.5,359.167 154.5,360.5C 154.5,363.5 154.5,366.5 154.5,369.5C 154.5,369.833 154.5,370.167 154.5,370.5C 154.5,372.167 154.5,373.833 154.5,375.5C 154.5,377.833 154.5,380.167 154.5,382.5C 154.5,383.833 154.5,385.167 154.5,386.5C 154.5,387.5 154.5,388.5 154.5,389.5C 154.666,396.841 154.5,404.174 154,411.5C 153.31,413.35 152.144,414.684 150.5,415.5C 149.5,415.5 148.5,415.5 147.5,415.5C 150.925,412.271 152.258,408.271 151.5,403.5C 151.5,361.5 151.5,319.5 151.5,277.5C 151.039,274.697 149.705,272.363 147.5,270.5 Z"/></g>
<g><path style="opacity:1" fill="#799fd4" d="M 82.5,275.5 C 105.142,277.49 128.142,278.156 151.5,277.5C 151.5,319.5 151.5,361.5 151.5,403.5C 151.167,403.5 150.833,403.5 150.5,403.5C 150.5,361.833 150.5,320.167 150.5,278.5C 148.833,278.5 147.167,278.5 145.5,278.5C 141.833,278.5 138.167,278.5 134.5,278.5C 132.833,278.5 131.167,278.5 129.5,278.5C 121.833,278.5 114.167,278.5 106.5,278.5C 98.5,278.5 90.5,278.5 82.5,278.5C 81.1667,277.5 81.1667,276.5 82.5,275.5 Z"/></g>
<g><path style="opacity:1" fill="#d4e2fc" d="M 82.5,278.5 C 90.5,278.5 98.5,278.5 106.5,278.5C 99.2411,319.794 92.2411,361.127 85.5,402.5C 92.8333,402.5 100.167,402.5 107.5,402.5C 114.834,361.166 122.167,319.832 129.5,278.5C 131.167,278.5 132.833,278.5 134.5,278.5C 127.04,319.8 119.707,361.133 112.5,402.5C 116.437,402.793 120.27,402.46 124,401.5C 131.6,360.565 138.767,319.565 145.5,278.5C 147.167,278.5 148.833,278.5 150.5,278.5C 150.5,320.167 150.5,361.833 150.5,403.5C 127.833,403.5 105.167,403.5 82.5,403.5C 82.341,361.863 82.341,320.196 82.5,278.5 Z"/></g>
<g><path style="opacity:1" fill="#e5eefd" d="M 134.5,278.5 C 138.167,278.5 141.833,278.5 145.5,278.5C 138.767,319.565 131.6,360.565 124,401.5C 120.27,402.46 116.437,402.793 112.5,402.5C 119.707,361.133 127.04,319.8 134.5,278.5 Z"/></g>
<g><path style="opacity:1" fill="#e5eefd" d="M 106.5,278.5 C 114.167,278.5 121.833,278.5 129.5,278.5C 122.167,319.832 114.834,361.166 107.5,402.5C 100.167,402.5 92.8333,402.5 85.5,402.5C 92.2411,361.127 99.2411,319.794 106.5,278.5 Z"/></g>
<g><path style="opacity:1" fill="#96bffe" d="M 266.5,328.5 C 262.928,334.641 259.595,340.974 256.5,347.5C 255.15,350.572 253.817,353.572 252.5,356.5C 251.419,337.337 251.419,318.337 252.5,299.5C 252.333,310.838 252.5,322.172 253,333.5C 258.7,312.801 269.7,295.467 286,281.5C 286.192,284.947 285.525,288.28 284,291.5C 278.155,303.855 272.322,316.188 266.5,328.5 Z"/></g>
<g><path style="opacity:1" fill="#64a9fd" d="M 174.5,282.5 C 175.962,283.458 177.295,284.624 178.5,286C 176.159,286.168 174.826,285.001 174.5,282.5 Z"/></g>
<g><path style="opacity:1" fill="#a2c5fe" d="M 250.5,252.5 C 251.331,265.994 251.831,279.661 252,293.5C 252.278,294.416 252.778,295.082 253.5,295.5C 252.766,296.708 252.433,298.041 252.5,299.5C 251.419,318.337 251.419,337.337 252.5,356.5C 252.5,357.5 252.5,358.5 252.5,359.5C 251.833,355.5 251.167,351.5 250.5,347.5C 250.186,341.896 250.02,336.229 250,330.5C 245.471,322.105 240.971,313.772 236.5,305.5C 236.5,297.833 236.5,290.167 236.5,282.5C 237.906,282.973 238.573,283.973 238.5,285.5C 244.031,296.927 247.864,308.927 250,321.5C 250.5,298.502 250.667,275.502 250.5,252.5 Z"/></g>
<g><path style="opacity:0.996" fill="#d9e7fb" d="M 266.5,328.5 C 295.329,329.498 324.329,329.831 353.5,329.5C 353.328,330.492 353.662,331.158 354.5,331.5C 355.654,336.73 356.32,342.064 356.5,347.5C 323.167,347.5 289.833,347.5 256.5,347.5C 259.595,340.974 262.928,334.641 266.5,328.5 Z"/></g>
<g><path style="opacity:1" fill="#e4ebf9" d="M 154.5,341.5 C 158.34,343.667 162.34,344.001 166.5,342.5C 166.543,345.91 166.043,349.243 165,352.5C 161.74,349.46 158.24,346.794 154.5,344.5C 154.5,343.5 154.5,342.5 154.5,341.5 Z"/></g>
<g><path style="opacity:0.785" fill="#427cc5" d="M 385.5,345.5 C 386.404,346.209 386.737,347.209 386.5,348.5C 382.5,348.5 378.5,348.5 374.5,348.5C 374.5,348.167 374.5,347.833 374.5,347.5C 378.649,348.08 382.316,347.414 385.5,345.5 Z"/></g>
<g><path style="opacity:1" fill="#0055b6" d="M 236.5,348.5 C 241.167,348.5 245.833,348.5 250.5,348.5C 250.5,355.833 250.5,363.167 250.5,370.5C 245.833,370.5 241.167,370.5 236.5,370.5C 236.5,363.167 236.5,355.833 236.5,348.5 Z"/></g>
<g><path style="opacity:1" fill="#0556b7" d="M 256.5,347.5 C 289.833,347.5 323.167,347.5 356.5,347.5C 357.744,355.12 358.744,362.787 359.5,370.5C 348.986,370.172 338.653,370.506 328.5,371.5C 307.5,371.5 286.5,371.5 265.5,371.5C 261.366,370.515 257.032,370.182 252.5,370.5C 252.5,366.833 252.5,363.167 252.5,359.5C 252.5,358.5 252.5,357.5 252.5,356.5C 253.817,353.572 255.15,350.572 256.5,347.5 Z"/></g>
<g><path style="opacity:1" fill="#0c57b7" d="M 374.5,348.5 C 378.5,348.5 382.5,348.5 386.5,348.5C 388.499,356.162 390.499,363.829 392.5,371.5C 386.5,371.5 380.5,371.5 374.5,371.5C 374.5,363.833 374.5,356.167 374.5,348.5 Z"/></g>
<g><path style="opacity:1" fill="#0655b5" d="M 404.5,347.5 C 409.833,347.5 415.167,347.5 420.5,347.5C 420.833,347.5 421.167,347.5 421.5,347.5C 421.666,353.842 421.5,360.175 421,366.5C 419.968,368.027 418.801,369.36 417.5,370.5C 414.167,370.5 410.833,370.5 407.5,370.5C 406.78,362.793 405.78,355.126 404.5,347.5 Z"/></g>
<g><path style="opacity:1" fill="#003c85" d="M 291.5,354.5 C 297.758,355.477 299.091,358.644 295.5,364C 289.498,364.993 287.332,362.493 289,356.5C 289.995,355.934 290.828,355.267 291.5,354.5 Z"/></g>
<g><path style="opacity:1" fill="#e1eaf8" d="M 154.5,356.5 C 157.833,356.5 161.167,356.5 164.5,356.5C 164.72,359.4 164.054,362.067 162.5,364.5C 160.09,362.628 157.423,361.295 154.5,360.5C 154.5,359.167 154.5,357.833 154.5,356.5 Z"/></g>
<g><path style="opacity:1" fill="#175bb9" d="M 154.5,327.5 C 155.167,327.5 155.833,327.5 156.5,327.5C 158.619,329.4 160.953,331.066 163.5,332.5C 164.44,334.612 165.606,336.612 167,338.5C 168.715,335.603 171.215,334.269 174.5,334.5C 176.312,334.771 177.978,335.438 179.5,336.5C 176.583,340.625 172.583,342.625 167.5,342.5C 167.238,343.978 167.571,345.311 168.5,346.5C 172.764,343.909 177.431,342.909 182.5,343.5C 182.54,346.425 181.707,349.091 180,351.5C 175.706,355.601 171.706,355.268 168,350.5C 167.608,353.627 166.775,356.627 165.5,359.5C 165.833,359.833 166.167,360.167 166.5,360.5C 170.002,358.738 173.668,358.238 177.5,359C 180.629,359.117 181.795,360.617 181,363.5C 176.05,369.778 170.717,370.111 165,364.5C 163.529,367.379 162.862,370.379 163,373.5C 166.409,372.378 169.909,372.211 173.5,373C 176.032,373.612 176.865,375.112 176,377.5C 171,382.833 166,382.833 161,377.5C 158.895,381.376 157.062,385.376 155.5,389.5C 155.167,389.5 154.833,389.5 154.5,389.5C 154.5,388.5 154.5,387.5 154.5,386.5C 155.391,385.739 156.058,384.739 156.5,383.5C 156.043,382.702 155.376,382.369 154.5,382.5C 154.5,380.167 154.5,377.833 154.5,375.5C 156.017,375.511 157.184,376.177 158,377.5C 159.319,375.713 160.152,373.713 160.5,371.5C 161.776,370.614 161.776,369.614 160.5,368.5C 158.591,369.348 156.591,369.682 154.5,369.5C 154.5,366.5 154.5,363.5 154.5,360.5C 157.423,361.295 160.09,362.628 162.5,364.5C 164.054,362.067 164.72,359.4 164.5,356.5C 161.167,356.5 157.833,356.5 154.5,356.5C 154.5,352.5 154.5,348.5 154.5,344.5C 158.24,346.794 161.74,349.46 165,352.5C 166.043,349.243 166.543,345.91 166.5,342.5C 162.34,344.001 158.34,343.667 154.5,341.5C 154.5,336.833 154.5,332.167 154.5,327.5 Z"/></g>
<g><path style="opacity:0.337" fill="#cddbf1" d="M 160.5,371.5 C 158.621,370.659 156.621,370.325 154.5,370.5C 154.5,370.167 154.5,369.833 154.5,369.5C 156.591,369.682 158.591,369.348 160.5,368.5C 161.776,369.614 161.776,370.614 160.5,371.5 Z"/></g>
<g><path style="opacity:0.602" fill="#5389cb" d="M 359.5,370.5 C 359.5,370.833 359.5,371.167 359.5,371.5C 349.111,370.859 339.111,371.526 329.5,373.5C 328.662,373.158 328.328,372.492 328.5,371.5C 338.653,370.506 348.986,370.172 359.5,370.5 Z"/></g>
<g><path style="opacity:0.535" fill="#5c86be" d="M 407.5,370.5 C 410.833,370.5 414.167,370.5 417.5,370.5C 418.167,370.5 418.833,370.5 419.5,370.5C 415.558,370.875 411.891,371.875 408.5,373.5C 407.596,372.791 407.263,371.791 407.5,370.5 Z"/></g>
<g><path style="opacity:0.992" fill="#89abdf" d="M 236.5,348.5 C 236.5,348.167 236.5,347.833 236.5,347.5C 241.167,347.5 245.833,347.5 250.5,347.5C 251.167,351.5 251.833,355.5 252.5,359.5C 252.5,363.167 252.5,366.833 252.5,370.5C 257.032,370.182 261.366,370.515 265.5,371.5C 261.486,371.334 257.486,371.501 253.5,372C 252.944,372.383 252.611,372.883 252.5,373.5C 252.5,376.833 252.5,380.167 252.5,383.5C 252.5,385.167 252.5,386.833 252.5,388.5C 257.833,388.5 263.167,388.5 268.5,388.5C 268.5,388.833 268.5,389.167 268.5,389.5C 257.833,389.5 247.167,389.5 236.5,389.5C 236.5,389.167 236.5,388.833 236.5,388.5C 241.619,389.103 246.285,388.436 250.5,386.5C 250.5,382.5 250.5,378.5 250.5,374.5C 250.5,373.5 250.5,372.5 250.5,371.5C 245.833,371.5 241.167,371.5 236.5,371.5C 236.5,371.167 236.5,370.833 236.5,370.5C 241.167,370.5 245.833,370.5 250.5,370.5C 250.5,363.167 250.5,355.833 250.5,348.5C 245.833,348.5 241.167,348.5 236.5,348.5 Z"/></g>
<g><path style="opacity:1" fill="#1650a7" d="M 265.5,371.5 C 286.5,371.5 307.5,371.5 328.5,371.5C 328.328,372.492 328.662,373.158 329.5,373.5C 332.859,385.621 333.193,397.787 330.5,410C 333.32,410.736 335.32,412.402 336.5,415C 335.391,415.638 334.225,416.138 333,416.5C 326.881,415.562 320.714,415.228 314.5,415.5C 314.511,413.983 315.177,412.816 316.5,412C 320.356,411.823 324.023,411.323 327.5,410.5C 328.685,400.276 328.685,390.11 327.5,380C 307.836,379.5 288.169,379.333 268.5,379.5C 268.5,381.167 268.5,382.833 268.5,384.5C 267.392,380.308 266.392,375.975 265.5,371.5 Z"/></g>
<g><path style="opacity:0.217" fill="#ebebeb" d="M 250.5,374.5 C 250.5,378.5 250.5,382.5 250.5,386.5C 249.471,384.052 248.804,381.386 248.5,378.5C 248.34,376.645 249.007,375.312 250.5,374.5 Z"/></g>
<g><path style="opacity:0.307" fill="#eaeaea" d="M 252.5,373.5 C 253.601,374.848 254.601,376.348 255.5,378C 258.482,378.498 261.482,378.665 264.5,378.5C 264.5,379.5 264.5,380.5 264.5,381.5C 261.262,382.395 258.095,382.395 255,381.5C 254.292,382.381 253.458,383.047 252.5,383.5C 252.5,380.167 252.5,376.833 252.5,373.5 Z"/></g>
<g><path style="opacity:1" fill="#0061d0" d="M 327.5,410.5 C 309.167,410.5 290.833,410.5 272.5,410.5C 272.5,408.5 272.5,406.5 272.5,404.5C 272.833,401.833 273.167,399.167 273.5,396.5C 274.5,396.5 275.5,396.5 276.5,396.5C 276.674,394.139 277.007,391.806 277.5,389.5C 274.5,389.5 271.5,389.5 268.5,389.5C 268.5,389.167 268.5,388.833 268.5,388.5C 268.5,387.167 268.5,385.833 268.5,384.5C 268.5,382.833 268.5,381.167 268.5,379.5C 288.169,379.333 307.836,379.5 327.5,380C 328.685,390.11 328.685,400.276 327.5,410.5 Z"/></g>
<g><path style="opacity:0.031" fill="#d9e3f5" d="M 154.5,382.5 C 155.376,382.369 156.043,382.702 156.5,383.5C 156.058,384.739 155.391,385.739 154.5,386.5C 154.5,385.167 154.5,383.833 154.5,382.5 Z"/></g>
<g><path style="opacity:1" fill="#415561" d="M 154.5,389.5 C 154.833,389.5 155.167,389.5 155.5,389.5C 157.5,389.5 159.5,389.5 161.5,389.5C 160.424,392.734 159.757,396.068 159.5,399.5C 158.512,404.64 158.179,409.974 158.5,415.5C 182.167,415.5 205.833,415.5 229.5,415.5C 203.294,416.819 176.961,416.819 150.5,415.5C 152.144,414.684 153.31,413.35 154,411.5C 154.5,404.174 154.666,396.841 154.5,389.5 Z"/></g>
<g><path style="opacity:1" fill="#1d3038" d="M 236.5,389.5 C 247.167,389.5 257.833,389.5 268.5,389.5C 271.5,389.5 274.5,389.5 277.5,389.5C 277.007,391.806 276.674,394.139 276.5,396.5C 275.5,396.5 274.5,396.5 273.5,396.5C 273.167,399.167 272.833,401.833 272.5,404.5C 271.518,407.962 271.185,411.629 271.5,415.5C 258.155,416.568 244.822,416.568 231.5,415.5C 233.593,414.942 235.093,413.609 236,411.5C 236.5,404.174 236.666,396.841 236.5,389.5 Z"/></g>
<g><path style="opacity:1" fill="#1c7ff9" d="M 375.5,395.5 C 376.139,396.097 376.472,396.93 376.5,398C 376.316,399.376 375.649,400.209 374.5,400.5C 374.167,400.5 373.833,400.5 373.5,400.5C 371.167,400.5 368.833,400.5 366.5,400.5C 365.833,400.5 365.167,400.5 364.5,400.5C 362.824,399.817 362.157,398.483 362.5,396.5C 366.881,396.628 371.215,396.295 375.5,395.5 Z"/></g>
<g><path style="opacity:1" fill="#007cfe" d="M 399.5,399.5 C 399.5,398.833 399.5,398.167 399.5,397.5C 403.634,396.515 407.968,396.182 412.5,396.5C 412.5,397.5 412.5,398.5 412.5,399.5C 408.167,399.5 403.833,399.5 399.5,399.5 Z"/></g>
<g><path style="opacity:1" fill="#0154b6" d="M 159.5,399.5 C 183.833,399.5 208.167,399.5 232.5,399.5C 232.833,399.5 233.167,399.5 233.5,399.5C 234.484,405.556 233.151,410.889 229.5,415.5C 205.833,415.5 182.167,415.5 158.5,415.5C 158.179,409.974 158.512,404.64 159.5,399.5 Z"/></g>
<g><path style="opacity:1" fill="#3882e6" d="M 399.5,395.5 C 403.5,395.5 407.5,395.5 411.5,395.5C 412.649,395.791 413.316,396.624 413.5,398C 413.472,399.07 413.139,399.903 412.5,400.5C 409.167,400.5 405.833,400.5 402.5,400.5C 401.209,400.737 400.209,400.404 399.5,399.5C 403.833,399.5 408.167,399.5 412.5,399.5C 412.5,398.5 412.5,397.5 412.5,396.5C 407.968,396.182 403.634,396.515 399.5,397.5C 398.167,396.833 398.167,396.167 399.5,395.5 Z"/></g>
<g><path style="opacity:0.987" fill="#f88f7f" d="M 402.5,400.5 C 405.833,400.5 409.167,400.5 412.5,400.5C 411.506,403.897 411.84,407.23 413.5,410.5C 410.167,410.5 406.833,410.5 403.5,410.5C 403.5,409.833 403.5,409.167 403.5,408.5C 402.735,405.904 402.401,403.237 402.5,400.5 Z"/></g>
<g><path style="opacity:1" fill="#0955b5" d="M 82.5,403.5 C 105.167,403.5 127.833,403.5 150.5,403.5C 150.833,403.5 151.167,403.5 151.5,403.5C 152.258,408.271 150.925,412.271 147.5,415.5C 146.312,416.048 145.145,416.381 144,416.5C 124.573,415.673 105.073,415.173 85.5,415C 81.888,411.692 80.888,407.859 82.5,403.5 Z"/></g>
<g><path style="opacity:1" fill="#003c86" d="M 167.5,402.5 C 174.821,403.319 176.154,406.486 171.5,412C 166.008,412.486 164.175,409.986 166,404.5C 166.717,403.956 167.217,403.289 167.5,402.5 Z"/></g>
<g><path style="opacity:0.363" fill="#91bff8" d="M 403.5,408.5 C 403.5,409.167 403.5,409.833 403.5,410.5C 401.938,410.733 400.605,411.4 399.5,412.5C 398.465,410.431 399.132,408.765 401.5,407.5C 402.183,407.863 402.85,408.196 403.5,408.5 Z"/></g>
<g><path style="opacity:1" fill="#e2978c" d="M 364.5,400.5 C 365.167,400.5 365.833,400.5 366.5,400.5C 366.5,403.5 366.5,406.5 366.5,409.5C 368.833,409.5 371.167,409.5 373.5,409.5C 373.5,406.5 373.5,403.5 373.5,400.5C 373.833,400.5 374.167,400.5 374.5,400.5C 374.253,403.939 374.586,407.272 375.5,410.5C 372.167,410.5 368.833,410.5 365.5,410.5C 365.5,409.833 365.5,409.167 365.5,408.5C 364.625,405.757 364.292,403.09 364.5,400.5 Z"/></g>
<g><path style="opacity:0.983" fill="#fc8877" d="M 366.5,400.5 C 368.833,400.5 371.167,400.5 373.5,400.5C 373.5,403.5 373.5,406.5 373.5,409.5C 371.167,409.5 368.833,409.5 366.5,409.5C 366.5,406.5 366.5,403.5 366.5,400.5 Z"/></g>
<g><path style="opacity:0.149" fill="#80b3f2" d="M 365.5,408.5 C 365.5,409.167 365.5,409.833 365.5,410.5C 364.609,411.11 363.609,411.443 362.5,411.5C 362.167,410.167 361.833,410.167 361.5,411.5C 360.957,411.44 360.624,411.107 360.5,410.5C 361.765,408.132 363.431,407.465 365.5,408.5 Z"/></g>
<g><path style="opacity:0.998" fill="#23363d" d="M 365.5,410.5 C 368.833,410.5 372.167,410.5 375.5,410.5C 376.21,412.893 376.877,415.393 377.5,418C 377.167,418.333 376.833,418.667 376.5,419C 369.63,419.221 362.797,419.721 356,420.5C 353.914,420.081 352.414,418.914 351.5,417C 355.168,415.624 358.501,413.791 361.5,411.5C 361.833,411.5 362.167,411.5 362.5,411.5C 363.609,411.443 364.609,411.11 365.5,410.5 Z"/></g>
<g><path style="opacity:0.998" fill="#21343b" d="M 403.5,410.5 C 406.833,410.5 410.167,410.5 413.5,410.5C 414.569,413.408 414.736,416.408 414,419.5C 413.439,420.022 412.772,420.355 412,420.5C 405.537,419.724 399.037,419.224 392.5,419C 391.663,417.989 391.33,416.822 391.5,415.5C 394.649,415.585 397.316,414.585 399.5,412.5C 400.605,411.4 401.938,410.733 403.5,410.5 Z"/></g>
<g><path style="opacity:1" fill="#285ebc" d="M 272.5,404.5 C 272.5,406.5 272.5,408.5 272.5,410.5C 290.833,410.5 309.167,410.5 327.5,410.5C 324.023,411.323 320.356,411.823 316.5,412C 315.177,412.816 314.511,413.983 314.5,415.5C 300.155,416.562 285.822,416.562 271.5,415.5C 271.185,411.629 271.518,407.962 272.5,404.5 Z"/></g>
</svg>
