<?xml version="1.0" encoding="UTF-8"?>
<!DOCTYPE svg PUBLIC "-//W3C//DTD SVG 1.1//EN" "http://www.w3.org/Graphics/SVG/1.1/DTD/svg11.dtd">
<svg xmlns="http://www.w3.org/2000/svg" version="1.1" width="500px" height="500px" style="shape-rendering:geometricPrecision; text-rendering:geometricPrecision; image-rendering:optimizeQuality; fill-rule:evenodd; clip-rule:evenodd" xmlns:xlink="http://www.w3.org/1999/xlink">
<g><path style="opacity:0.925" fill="#9ac1f3" d="M 228.5,92.5 C 228.167,92.5 227.833,92.5 227.5,92.5C 225.076,92.8076 222.743,92.4742 220.5,91.5C 221.242,90.7132 222.075,90.0465 223,89.5C 224.626,89.8541 226.459,89.8541 228.5,89.5C 228.5,90.5 228.5,91.5 228.5,92.5 Z"/></g>
<g><path style="opacity:0.749" fill="#72b1f6" d="M 180.5,90.5 C 192.186,90.1678 203.852,90.5011 215.5,91.5C 209.667,91.8333 203.833,92.1667 198,92.5C 191.793,92.4958 185.96,91.8291 180.5,90.5 Z"/></g>
<g><path style="opacity:0.082" fill="#eeeeef" d="M 227.5,92.5 C 227.833,92.5 228.167,92.5 228.5,92.5C 230.167,93.1667 231.833,93.8333 233.5,94.5C 216.167,94.5 198.833,94.5 181.5,94.5C 196.833,93.8333 212.167,93.1667 227.5,92.5 Z"/></g>
<g><path style="opacity:1" fill="#157efe" d="M 181.5,94.5 C 198.833,94.5 216.167,94.5 233.5,94.5C 286.168,94.3333 338.834,94.5 391.5,95C 395.667,96.5 398.5,99.3333 400,103.5C 400.997,110.467 401.497,117.467 401.5,124.5C 401.527,130.051 402.194,135.384 403.5,140.5C 403.5,140.833 403.5,141.167 403.5,141.5C 404.107,146.851 404.774,152.184 405.5,157.5C 407.814,179.816 409.647,202.149 411,224.5C 409.413,227.756 406.913,229.923 403.5,231C 392.505,231.5 381.505,231.667 370.5,231.5C 368.901,231.768 367.568,231.434 366.5,230.5C 366.701,226.87 368.368,224.203 371.5,222.5C 378.841,222.666 386.174,222.5 393.5,222C 395.649,220.848 397.482,219.348 399,217.5C 399.667,212.167 399.667,206.833 399,201.5C 395.956,170.774 392.623,140.107 389,109.5C 387.833,107 386,105.167 383.5,104C 367.5,103.333 351.5,103.333 335.5,104C 331.963,106.408 330.296,109.741 330.5,114C 331.779,121.449 332.445,128.949 332.5,136.5C 331.972,137.721 331.305,138.887 330.5,140C 332.138,142.133 332.971,144.633 333,147.5C 334.855,149.355 336.688,151.188 338.5,153C 338.011,154.138 337.678,155.305 337.5,156.5C 335.77,157.026 334.436,158.026 333.5,159.5C 332.609,160.11 331.609,160.443 330.5,160.5C 328.778,143.834 326.944,127.168 325,110.5C 323.859,108.391 322.359,106.558 320.5,105C 304.234,103.378 287.9,103.045 271.5,104C 267.16,106.353 265.493,110.02 266.5,115C 269.463,147.519 272.63,180.019 276,212.5C 276.921,215.336 278.088,218.002 279.5,220.5C 277.167,221.167 274.833,221.833 272.5,222.5C 271.5,222.167 270.833,221.5 270.5,220.5C 270.833,219.833 271.167,219.167 271.5,218.5C 274.493,216.469 274.159,215.136 270.5,214.5C 267.854,180.452 264.687,146.452 261,112.5C 259.939,109.438 258.106,106.938 255.5,105C 239.259,103.364 222.925,103.03 206.5,104C 204.667,105.167 203.167,106.667 202,108.5C 201.333,113.167 201.333,117.833 202,122.5C 204.369,141.131 206.202,159.798 207.5,178.5C 205.847,178.34 204.514,177.674 203.5,176.5C 202.052,152.68 199.552,129.014 196,105.5C 194.127,103.291 191.96,101.458 189.5,100C 172.409,99.0291 155.409,99.3625 138.5,101C 136,103.319 134.666,106.153 134.5,109.5C 137.912,145.956 141.912,182.289 146.5,218.5C 147.833,221.833 150.167,224.167 153.5,225.5C 161.159,226.166 168.993,226.5 177,226.5C 185.905,226.624 194.738,226.124 203.5,225C 206.91,221.954 208.244,218.121 207.5,213.5C 206.712,204.504 206.046,195.504 205.5,186.5C 207.062,186.733 208.395,187.4 209.5,188.5C 209.348,197.258 210.182,205.925 212,214.5C 213.105,217.937 215.272,220.437 218.5,222C 231.829,222.5 245.163,222.667 258.5,222.5C 260.85,223.994 263.35,225.327 266,226.5C 267.03,226.164 267.53,225.497 267.5,224.5C 268.5,224.167 269.167,223.5 269.5,222.5C 270.5,222.833 271.167,223.5 271.5,224.5C 270.438,226.099 270.438,227.766 271.5,229.5C 209.002,230.499 146.336,230.832 83.5,230.5C 78.483,228.982 75.3164,225.648 74,220.5C 70.3333,184.833 66.6667,149.167 63,113.5C 62.112,108.382 62.4453,103.382 64,98.5C 65.214,96.9512 66.714,95.7845 68.5,95C 106.165,94.5 143.832,94.3333 181.5,94.5 Z M 146.5,218.5 C 149.86,219.52 152.527,221.52 154.5,224.5C 154.376,225.107 154.043,225.44 153.5,225.5C 150.167,224.167 147.833,221.833 146.5,218.5 Z"/></g>
<g><path style="opacity:0.999" fill="#fcfdfe" d="M 203.5,176.5 C 194.86,171.846 186.194,167.179 177.5,162.5C 174.242,161.092 171.076,159.426 168,157.5C 167.383,158.449 167.549,159.282 168.5,160C 171.059,161.777 173.726,163.277 176.5,164.5C 177.475,166.193 178.808,167.693 180.5,169C 188.321,173.997 195.988,179.163 203.5,184.5C 204.5,184.833 205.167,185.5 205.5,186.5C 206.046,195.504 206.712,204.504 207.5,213.5C 208.244,218.121 206.91,221.954 203.5,225C 194.738,226.124 185.905,226.624 177,226.5C 168.993,226.5 161.159,226.166 153.5,225.5C 154.043,225.44 154.376,225.107 154.5,224.5C 152.527,221.52 149.86,219.52 146.5,218.5C 141.912,182.289 137.912,145.956 134.5,109.5C 134.666,106.153 136,103.319 138.5,101C 155.409,99.3625 172.409,99.0291 189.5,100C 191.96,101.458 194.127,103.291 196,105.5C 199.552,129.014 202.052,152.68 203.5,176.5 Z"/></g>
<g><path style="opacity:1" fill="#64a5fe" d="M 77.5,103.5 C 93.1702,103.333 108.837,103.5 124.5,104C 127.333,105.5 129.5,107.667 131,110.5C 134.931,145.474 138.264,180.474 141,215.5C 140.208,217.587 139.041,219.421 137.5,221C 121.567,222.621 105.567,222.954 89.5,222C 85.5095,220.01 83.0095,216.843 82,212.5C 78.1706,177.874 75.1706,143.207 73,108.5C 74.025,106.313 75.525,104.646 77.5,103.5 Z"/></g>
<g><path style="opacity:1" fill="#63a4fe" d="M 270.5,214.5 C 263.549,210.863 256.882,206.863 250.5,202.5C 253.833,202.5 257.167,202.5 260.5,202.5C 260.768,199.881 260.435,197.381 259.5,195C 251.507,194.5 243.507,194.334 235.5,194.5C 227.324,189.912 218.991,185.578 210.5,181.5C 209.306,180.728 208.306,179.728 207.5,178.5C 206.202,159.798 204.369,141.131 202,122.5C 201.333,117.833 201.333,113.167 202,108.5C 203.167,106.667 204.667,105.167 206.5,104C 222.925,103.03 239.259,103.364 255.5,105C 258.106,106.938 259.939,109.438 261,112.5C 264.687,146.452 267.854,180.452 270.5,214.5 Z"/></g>
<g><path style="opacity:1" fill="#4a96fe" d="M 330.5,160.5 C 325.325,161.055 320.825,163.055 317,166.5C 313.729,173.378 310.229,180.045 306.5,186.5C 302.477,187.88 301.143,190.546 302.5,194.5C 295.91,194.189 289.41,194.522 283,195.5C 282.104,198.025 282.604,200.192 284.5,202C 288.688,202.176 292.688,202.676 296.5,203.5C 291.167,209.5 285.5,215.167 279.5,220.5C 278.088,218.002 276.921,215.336 276,212.5C 272.63,180.019 269.463,147.519 266.5,115C 265.493,110.02 267.16,106.353 271.5,104C 287.9,103.045 304.234,103.378 320.5,105C 322.359,106.558 323.859,108.391 325,110.5C 326.944,127.168 328.778,143.834 330.5,160.5 Z"/></g>
<g><path style="opacity:1" fill="#2688fe" d="M 371.5,222.5 C 377.591,217.078 381.591,210.412 383.5,202.5C 389.674,203.827 391.841,201.494 390,195.5C 387.281,194.556 384.448,194.223 381.5,194.5C 380.833,193.5 380.167,192.5 379.5,191.5C 382.581,187.822 381.914,185.155 377.5,183.5C 375.641,175.948 372.307,169.115 367.5,163C 362.146,161.362 356.813,160.196 351.5,159.5C 351.306,157.088 349.973,156.088 347.5,156.5C 347.5,154.5 347.5,152.5 347.5,150.5C 349.379,149.103 351.046,147.437 352.5,145.5C 354.716,144.797 356.549,143.464 358,141.5C 358,142.833 358,144.167 358,145.5C 359.458,144.253 360.958,144.253 362.5,145.5C 369.49,140.718 368.49,138.552 359.5,139C 364.019,138.825 368.353,138.325 372.5,137.5C 374.377,136.341 374.877,134.674 374,132.5C 372.17,128.33 369.003,126.164 364.5,126C 362.112,123.437 359.445,122.937 356.5,124.5C 352.89,123.396 349.224,122.396 345.5,121.5C 346.167,120.833 346.833,120.167 347.5,119.5C 344.385,117.65 341.052,117.15 337.5,118C 335.487,118.68 334.154,120.013 333.5,122C 335.111,124.21 335.778,126.71 335.5,129.5C 334.341,131.855 333.341,134.188 332.5,136.5C 332.445,128.949 331.779,121.449 330.5,114C 330.296,109.741 331.963,106.408 335.5,104C 351.5,103.333 367.5,103.333 383.5,104C 386,105.167 387.833,107 389,109.5C 392.623,140.107 395.956,170.774 399,201.5C 399.667,206.833 399.667,212.167 399,217.5C 397.482,219.348 395.649,220.848 393.5,222C 386.174,222.5 378.841,222.666 371.5,222.5 Z"/></g>
<g><path style="opacity:0.895" fill="#f3f3f4" d="M 405.5,157.5 C 404.774,152.184 404.107,146.851 403.5,141.5C 404.809,140.376 405.475,138.876 405.5,137C 404.875,135.159 404.708,133.326 405,131.5C 406.608,128.228 408.608,125.228 411,122.5C 412.881,119.576 414.048,116.409 414.5,113C 414.565,109.558 412.898,107.392 409.5,106.5C 406.063,107.789 403.397,106.789 401.5,103.5C 402.025,102.808 402.692,102.308 403.5,102C 410.5,101.333 417.5,101.333 424.5,102C 425.022,102.561 425.355,103.228 425.5,104C 424.471,121.485 424.304,138.985 425,156.5C 422.072,158.038 418.906,158.704 415.5,158.5C 412.133,158.355 408.799,158.022 405.5,157.5 Z"/></g>
<g><path style="opacity:1" fill="#087dfe" d="M 160.5,115.5 C 164.819,114.799 168.486,115.966 171.5,119C 173.5,119.333 175.5,119.667 177.5,120C 179.549,122.593 181.715,125.093 184,127.5C 184.896,130.025 184.396,132.192 182.5,134C 173.5,134.667 164.5,134.667 155.5,134C 151.874,131.749 150.707,128.582 152,124.5C 155.714,122.287 158.548,119.287 160.5,115.5 Z"/></g>
<g><path style="opacity:1" fill="#1d3039" d="M 356.5,124.5 C 358.517,126.217 358.85,128.217 357.5,130.5C 359.171,132.51 359.838,134.843 359.5,137.5C 357.196,140.141 354.862,142.808 352.5,145.5C 351.046,147.437 349.379,149.103 347.5,150.5C 342.131,150.472 338.798,147.805 337.5,142.5C 338.752,140.999 339.752,139.332 340.5,137.5C 339.5,136.167 338.5,134.833 337.5,133.5C 338.395,131.655 337.728,130.322 335.5,129.5C 335.778,126.71 335.111,124.21 333.5,122C 334.154,120.013 335.487,118.68 337.5,118C 341.052,117.15 344.385,117.65 347.5,119.5C 346.833,120.167 346.167,120.833 345.5,121.5C 349.224,122.396 352.89,123.396 356.5,124.5 Z"/></g>
<g><path style="opacity:1" fill="#88b7fd" d="M 372.5,137.5 C 368.167,137.5 363.833,137.5 359.5,137.5C 359.838,134.843 359.171,132.51 357.5,130.5C 358.85,128.217 358.517,126.217 356.5,124.5C 359.445,122.937 362.112,123.437 364.5,126C 369.003,126.164 372.17,128.33 374,132.5C 374.877,134.674 374.377,136.341 372.5,137.5 Z"/></g>
<g><path style="opacity:1" fill="#f0f6fd" d="M 91.5,124.5 C 98.6548,124.787 98.9881,127.12 92.5,131.5C 90.2395,129.516 89.9061,127.183 91.5,124.5 Z"/></g>
<g><path style="opacity:1" fill="#f8fbfe" d="M 226.5,126.5 C 229.983,125.916 232.983,126.749 235.5,129C 237.5,129.333 239.5,129.667 241.5,130C 243.334,132.203 245.168,134.37 247,136.5C 247.896,139.025 247.396,141.192 245.5,143C 238.167,143.667 230.833,143.667 223.5,143C 219.874,140.749 218.707,137.582 220,133.5C 221.11,131.963 222.61,131.297 224.5,131.5C 224.392,129.486 225.058,127.82 226.5,126.5 Z"/></g>
<g><path style="opacity:1" fill="#fafcfe" d="M 98.5,127.5 C 106.14,127.183 111.973,130.183 116,136.5C 116.711,138.367 116.211,139.867 114.5,141C 108.167,141.667 101.833,141.667 95.5,141C 92.7928,139.136 91.9595,136.636 93,133.5C 95.3802,131.955 97.2135,129.955 98.5,127.5 Z"/></g>
<g><path style="opacity:1" fill="#f4887a" d="M 335.5,129.5 C 337.728,130.322 338.395,131.655 337.5,133.5C 338.5,134.833 339.5,136.167 340.5,137.5C 339.752,139.332 338.752,140.999 337.5,142.5C 338.798,147.805 342.131,150.472 347.5,150.5C 347.5,152.5 347.5,154.5 347.5,156.5C 344.167,156.5 340.833,156.5 337.5,156.5C 337.678,155.305 338.011,154.138 338.5,153C 336.688,151.188 334.855,149.355 333,147.5C 332.971,144.633 332.138,142.133 330.5,140C 331.305,138.887 331.972,137.721 332.5,136.5C 333.341,134.188 334.341,131.855 335.5,129.5 Z"/></g>
<g><path style="opacity:1" fill="#c3dafe" d="M 295.5,130.5 C 300.98,130.496 303.48,133.162 303,138.5C 299.381,141.343 296.048,141.01 293,137.5C 292.333,136.167 292.333,134.833 293,133.5C 294.045,132.627 294.878,131.627 295.5,130.5 Z"/></g>
<g><path style="opacity:1" fill="#3188fc" d="M 160.5,137.5 C 161.239,137.369 161.906,137.536 162.5,138C 159.979,140.22 157.812,142.72 156,145.5C 155.5,145 155,144.5 154.5,144C 156.706,141.963 158.706,139.797 160.5,137.5 Z"/></g>
<g><path style="opacity:1" fill="#338bfd" d="M 166.5,137.5 C 167.239,137.369 167.906,137.536 168.5,138C 167.024,140.643 165.024,142.81 162.5,144.5C 161.479,143.998 161.312,143.332 162,142.5C 163.707,140.963 165.207,139.296 166.5,137.5 Z"/></g>
<g><path style="opacity:1" fill="#308bfd" d="M 172.5,137.5 C 174.028,137.517 174.528,138.184 174,139.5C 165.946,146.216 165.446,145.549 172.5,137.5 Z"/></g>
<g><path style="opacity:1" fill="#5199fc" d="M 359.5,137.5 C 363.833,137.5 368.167,137.5 372.5,137.5C 368.353,138.325 364.019,138.825 359.5,139C 368.49,138.552 369.49,140.718 362.5,145.5C 360.958,144.253 359.458,144.253 358,145.5C 358,144.167 358,142.833 358,141.5C 356.549,143.464 354.716,144.797 352.5,145.5C 354.862,142.808 357.196,140.141 359.5,137.5 Z"/></g>
<g><path style="opacity:0.933" fill="#83b4fa" d="M 401.5,124.5 C 402.957,129.598 403.624,134.931 403.5,140.5C 402.194,135.384 401.527,130.051 401.5,124.5 Z"/></g>
<g><path style="opacity:1" fill="#24333d" d="M 337.5,156.5 C 340.833,156.5 344.167,156.5 347.5,156.5C 349.973,156.088 351.306,157.088 351.5,159.5C 345.5,159.5 339.5,159.5 333.5,159.5C 334.436,158.026 335.77,157.026 337.5,156.5 Z"/></g>
<g><path style="opacity:1" fill="#bdd6fe" d="M 333.5,159.5 C 339.5,159.5 345.5,159.5 351.5,159.5C 356.813,160.196 362.146,161.362 367.5,163C 372.307,169.115 375.641,175.948 377.5,183.5C 373.326,186.088 368.993,188.421 364.5,190.5C 363.74,186.919 363.24,183.252 363,179.5C 361.95,184.448 361.45,189.448 361.5,194.5C 361.5,197.167 361.5,199.833 361.5,202.5C 362.014,208.822 362.347,215.155 362.5,221.5C 362.5,222.5 362.5,223.5 362.5,224.5C 349.5,224.5 336.5,224.5 323.5,224.5C 323.5,223.833 323.5,223.167 323.5,222.5C 322.614,215.859 321.947,209.192 321.5,202.5C 317.833,202.5 314.167,202.5 310.5,202.5C 310.833,201.833 311.167,201.167 311.5,200.5C 315.146,201.907 317.479,200.573 318.5,196.5C 314.773,192.767 310.773,189.434 306.5,186.5C 310.229,180.045 313.729,173.378 317,166.5C 320.825,163.055 325.325,161.055 330.5,160.5C 331.609,160.443 332.609,160.11 333.5,159.5 Z"/></g>
<g><path style="opacity:1" fill="#388cfc" d="M 177.5,162.5 C 177.167,163.167 176.833,163.833 176.5,164.5C 173.726,163.277 171.059,161.777 168.5,160C 167.549,159.282 167.383,158.449 168,157.5C 171.076,159.426 174.242,161.092 177.5,162.5 Z"/></g>
<g><path style="opacity:1" fill="#20323b" d="M 377.5,183.5 C 381.914,185.155 382.581,187.822 379.5,191.5C 376.545,193.122 373.878,195.122 371.5,197.5C 368.642,197.972 366.642,196.972 365.5,194.5C 364.766,193.292 364.433,191.959 364.5,190.5C 368.993,188.421 373.326,186.088 377.5,183.5 Z"/></g>
<g><path style="opacity:1" fill="#21333b" d="M 306.5,186.5 C 310.773,189.434 314.773,192.767 318.5,196.5C 317.479,200.573 315.146,201.907 311.5,200.5C 309.178,198.336 306.511,196.669 303.5,195.5C 303.5,194.833 303.167,194.5 302.5,194.5C 301.143,190.546 302.477,187.88 306.5,186.5 Z"/></g>
<g><path style="opacity:1" fill="#78b0fd" d="M 328.5,183.5 C 328.363,188.404 326.03,192.404 321.5,195.5C 320.479,194.998 320.312,194.332 321,193.5C 323.717,190.29 326.217,186.956 328.5,183.5 Z"/></g>
<g><path style="opacity:1" fill="#63a3fd" d="M 209.5,188.5 C 212.5,190.5 215.5,192.5 218.5,194.5C 218.232,197.119 218.565,199.619 219.5,202C 222.817,202.498 226.15,202.665 229.5,202.5C 239.378,208.933 249.045,215.599 258.5,222.5C 245.163,222.667 231.829,222.5 218.5,222C 215.272,220.437 213.105,217.937 212,214.5C 210.182,205.925 209.348,197.258 209.5,188.5 Z"/></g>
<g><path style="opacity:1" fill="#4795fd" d="M 364.5,190.5 C 364.433,191.959 364.766,193.292 365.5,194.5C 364.167,194.5 362.833,194.5 361.5,194.5C 361.45,189.448 361.95,184.448 363,179.5C 363.24,183.252 363.74,186.919 364.5,190.5 Z"/></g>
<g><path style="opacity:1" fill="#f98c7c" d="M 379.5,191.5 C 380.167,192.5 380.833,193.5 381.5,194.5C 382.371,197.112 383.037,199.779 383.5,202.5C 381.591,210.412 377.591,217.078 371.5,222.5C 368.368,224.203 366.701,226.87 366.5,230.5C 365.326,231.514 364.66,232.847 364.5,234.5C 362.989,231.456 362.322,228.122 362.5,224.5C 362.5,223.5 362.5,222.5 362.5,221.5C 367.971,216.228 371.637,209.894 373.5,202.5C 372.833,200.833 372.167,199.167 371.5,197.5C 373.878,195.122 376.545,193.122 379.5,191.5 Z"/></g>
<g><path style="opacity:1" fill="#f9fbfe" d="M 89.5,194.5 C 103.171,194.333 116.837,194.5 130.5,195C 131.435,197.381 131.768,199.881 131.5,202.5C 117.829,202.667 104.163,202.5 90.5,202C 88.2854,199.758 87.9521,197.258 89.5,194.5 Z"/></g>
<g><path style="opacity:1" fill="#f8f9fb" d="M 235.5,194.5 C 243.507,194.334 251.507,194.5 259.5,195C 260.435,197.381 260.768,199.881 260.5,202.5C 257.167,202.5 253.833,202.5 250.5,202.5C 245.016,200.593 240.016,197.927 235.5,194.5 Z"/></g>
<g><path style="opacity:1" fill="#c8dbfc" d="M 302.5,194.5 C 303.167,194.5 303.5,194.833 303.5,195.5C 301.167,198.167 298.833,200.833 296.5,203.5C 292.688,202.676 288.688,202.176 284.5,202C 282.604,200.192 282.104,198.025 283,195.5C 289.41,194.522 295.91,194.189 302.5,194.5 Z"/></g>
<g><path style="opacity:1" fill="#87b4f9" d="M 361.5,194.5 C 362.833,194.5 364.167,194.5 365.5,194.5C 366.642,196.972 368.642,197.972 371.5,197.5C 372.167,199.167 372.833,200.833 373.5,202.5C 369.5,202.5 365.5,202.5 361.5,202.5C 361.5,199.833 361.5,197.167 361.5,194.5 Z"/></g>
<g><path style="opacity:1" fill="#86b6fd" d="M 381.5,194.5 C 384.448,194.223 387.281,194.556 390,195.5C 391.841,201.494 389.674,203.827 383.5,202.5C 383.037,199.779 382.371,197.112 381.5,194.5 Z"/></g>
<g><path style="opacity:1" fill="#057cfe" d="M 152.5,195.5 C 167.504,195.333 182.504,195.5 197.5,196C 198.435,198.381 198.768,200.881 198.5,203.5C 183.163,203.667 167.83,203.5 152.5,203C 151.221,200.502 151.221,198.002 152.5,195.5 Z"/></g>
<g><path style="opacity:1" fill="#ecf1f5" d="M 218.5,194.5 C 222.19,197.199 225.857,199.865 229.5,202.5C 226.15,202.665 222.817,202.498 219.5,202C 218.565,199.619 218.232,197.119 218.5,194.5 Z"/></g>
<g><path style="opacity:1" fill="#fb8c7c" d="M 303.5,195.5 C 306.511,196.669 309.178,198.336 311.5,200.5C 311.167,201.167 310.833,201.833 310.5,202.5C 303.425,209.913 295.758,216.58 287.5,222.5C 284.738,224.055 282.404,226.055 280.5,228.5C 280.167,228.5 279.833,228.5 279.5,228.5C 276.911,230.157 274.244,230.491 271.5,229.5C 270.438,227.766 270.438,226.099 271.5,224.5C 272.338,224.158 272.672,223.492 272.5,222.5C 274.833,221.833 277.167,221.167 279.5,220.5C 285.5,215.167 291.167,209.5 296.5,203.5C 298.833,200.833 301.167,198.167 303.5,195.5 Z"/></g>
<g><path style="opacity:1" fill="#20333a" d="M 270.5,220.5 C 270.833,221.5 271.5,222.167 272.5,222.5C 272.672,223.492 272.338,224.158 271.5,224.5C 271.167,223.5 270.5,222.833 269.5,222.5C 244.721,207.272 220.054,191.772 195.5,176C 220.674,190.265 245.674,205.098 270.5,220.5 Z"/></g>
<g><path style="opacity:1" fill="#233841" d="M 210.5,181.5 C 218.991,185.578 227.324,189.912 235.5,194.5C 240.016,197.927 245.016,200.593 250.5,202.5C 256.882,206.863 263.549,210.863 270.5,214.5C 274.159,215.136 274.493,216.469 271.5,218.5C 251,206.418 230.667,194.085 210.5,181.5 Z"/></g>
<g><path style="opacity:1" fill="#4c96fd" d="M 310.5,202.5 C 314.167,202.5 317.833,202.5 321.5,202.5C 321.947,209.192 322.614,215.859 323.5,222.5C 311.5,222.5 299.5,222.5 287.5,222.5C 295.758,216.58 303.425,209.913 310.5,202.5 Z"/></g>
<g><path style="opacity:1" fill="#3189fc" d="M 361.5,202.5 C 365.5,202.5 369.5,202.5 373.5,202.5C 371.637,209.894 367.971,216.228 362.5,221.5C 362.347,215.155 362.014,208.822 361.5,202.5 Z"/></g>
<g><path style="opacity:1" fill="#435359" d="M 177.5,162.5 C 186.194,167.179 194.86,171.846 203.5,176.5C 204.514,177.674 205.847,178.34 207.5,178.5C 208.306,179.728 209.306,180.728 210.5,181.5C 230.667,194.085 251,206.418 271.5,218.5C 271.167,219.167 270.833,219.833 270.5,220.5C 245.674,205.098 220.674,190.265 195.5,176C 220.054,191.772 244.721,207.272 269.5,222.5C 269.167,223.5 268.5,224.167 267.5,224.5C 246.464,211.642 225.797,198.142 205.5,184C 204.563,183.308 203.897,183.475 203.5,184.5C 195.988,179.163 188.321,173.997 180.5,169C 178.808,167.693 177.475,166.193 176.5,164.5C 176.833,163.833 177.167,163.167 177.5,162.5 Z"/></g>
<g><path style="opacity:1" fill="#223741" d="M 203.5,184.5 C 203.897,183.475 204.563,183.308 205.5,184C 225.797,198.142 246.464,211.642 267.5,224.5C 267.53,225.497 267.03,226.164 266,226.5C 263.35,225.327 260.85,223.994 258.5,222.5C 249.045,215.599 239.378,208.933 229.5,202.5C 225.857,199.865 222.19,197.199 218.5,194.5C 215.5,192.5 212.5,190.5 209.5,188.5C 208.395,187.4 207.062,186.733 205.5,186.5C 205.167,185.5 204.5,184.833 203.5,184.5 Z"/></g>
<g><path style="opacity:1" fill="#2481fe" d="M 287.5,222.5 C 299.5,222.5 311.5,222.5 323.5,222.5C 323.5,223.167 323.5,223.833 323.5,224.5C 323.5,226.833 323.5,229.167 323.5,231.5C 309.5,231.5 295.5,231.5 281.5,231.5C 281.443,230.391 281.11,229.391 280.5,228.5C 282.404,226.055 284.738,224.055 287.5,222.5 Z"/></g>
<g><path style="opacity:1" fill="#1e3137" d="M 323.5,224.5 C 336.5,224.5 349.5,224.5 362.5,224.5C 362.322,228.122 362.989,231.456 364.5,234.5C 366.675,259.234 369.508,283.9 373,308.5C 378.877,334.673 385.377,360.673 392.5,386.5C 388.623,387.489 384.623,388.489 380.5,389.5C 379.817,389.137 379.15,388.804 378.5,388.5C 369.843,364.364 361.677,340.031 354,315.5C 350.882,305.695 348.715,295.695 347.5,285.5C 347.607,283.621 347.107,283.288 346,284.5C 345.501,288.152 345.335,291.818 345.5,295.5C 345.665,327.72 345.332,359.72 344.5,391.5C 340.167,392.833 335.833,392.833 331.5,391.5C 328.551,365.225 326.051,338.891 324,312.5C 323.5,285.502 323.333,258.502 323.5,231.5C 323.5,229.167 323.5,226.833 323.5,224.5 Z"/></g>
<g><path style="opacity:0.652" fill="#73b3fb" d="M 279.5,228.5 C 279.5,229.5 279.5,230.5 279.5,231.5C 262.916,231.595 246.249,231.595 229.5,231.5C 228.167,231.5 226.833,231.5 225.5,231.5C 177.997,231.832 130.664,231.499 83.5,230.5C 146.336,230.832 209.002,230.499 271.5,229.5C 274.244,230.491 276.911,230.157 279.5,228.5 Z"/></g>
<g><path style="opacity:0.944" fill="#eaeaea" d="M 225.5,231.5 C 226.833,231.5 228.167,231.5 229.5,231.5C 229.419,239.299 229.752,247.132 230.5,255C 229.942,257.058 228.609,258.225 226.5,258.5C 222.153,257.953 217.819,257.286 213.5,256.5C 219.862,248.967 223.862,240.634 225.5,231.5 Z"/></g>
<g><path style="opacity:0.633" fill="#edecec" d="M 366.5,230.5 C 367.568,231.434 368.901,231.768 370.5,231.5C 373.16,236.146 374.827,241.146 375.5,246.5C 373.097,246.607 371.264,245.607 370,243.5C 368.592,239.943 367.592,236.276 367,232.5C 366.292,233.381 365.458,234.047 364.5,234.5C 364.66,232.847 365.326,231.514 366.5,230.5 Z"/></g>
<g><path style="opacity:1" fill="#637178" d="M 279.5,228.5 C 279.833,228.5 280.167,228.5 280.5,228.5C 281.11,229.391 281.443,230.391 281.5,231.5C 280.163,237.21 276.83,239.043 271.5,237C 273.285,235.837 275.285,235.17 277.5,235C 278.823,234.184 279.489,233.017 279.5,231.5C 279.5,230.5 279.5,229.5 279.5,228.5 Z"/></g>
<g><path style="opacity:0.651" fill="#7d888b" d="M 347.5,285.5 C 346.833,288.833 346.167,292.167 345.5,295.5C 345.335,291.818 345.501,288.152 346,284.5C 347.107,283.288 347.607,283.621 347.5,285.5 Z"/></g>
<g><path style="opacity:0.991" fill="#c1d4f5" d="M 392.5,386.5 C 393.809,387.624 394.475,389.124 394.5,391C 394.057,392.825 393.723,394.658 393.5,396.5C 390.747,394.049 387.747,393.882 384.5,396C 385.252,396.671 385.586,397.504 385.5,398.5C 380.719,396.954 378.386,393.62 378.5,388.5C 379.15,388.804 379.817,389.137 380.5,389.5C 384.623,388.489 388.623,387.489 392.5,386.5 Z"/></g>
<g><path style="opacity:0.998" fill="#c7dafa" d="M 331.5,391.5 C 335.833,392.833 340.167,392.833 344.5,391.5C 347.554,395.562 346.888,398.896 342.5,401.5C 342.5,400.5 342.5,399.5 342.5,398.5C 340.167,398.5 337.833,398.5 335.5,398.5C 335.5,401.5 335.5,404.5 335.5,407.5C 333.938,407.733 332.605,408.4 331.5,409.5C 331.196,408.85 330.863,408.183 330.5,407.5C 331.671,405.831 333.004,404.331 334.5,403C 334.046,401.378 333.046,400.212 331.5,399.5C 330.2,396.691 330.2,394.024 331.5,391.5 Z"/></g>
<g><path style="opacity:1" fill="#fa9080" d="M 393.5,396.5 C 393.893,398.284 394.559,399.95 395.5,401.5C 392.833,402.167 390.167,402.833 387.5,403.5C 387.737,402.209 387.404,401.209 386.5,400.5C 385.662,400.158 385.328,399.492 385.5,398.5C 385.586,397.504 385.252,396.671 384.5,396C 387.747,393.882 390.747,394.049 393.5,396.5 Z"/></g>
<g><path style="opacity:1" fill="#fb8b7b" d="M 342.5,401.5 C 342.5,403.5 342.5,405.5 342.5,407.5C 340.167,407.5 337.833,407.5 335.5,407.5C 335.5,404.5 335.5,401.5 335.5,398.5C 337.833,398.5 340.167,398.5 342.5,398.5C 342.5,399.5 342.5,400.5 342.5,401.5 Z"/></g>
<g><path style="opacity:1" fill="#2b3b41" d="M 395.5,401.5 C 397.441,403.199 398.774,405.366 399.5,408C 399.095,408.945 398.428,409.612 397.5,410C 391.19,411.499 384.857,412.499 378.5,413C 377.549,412.282 377.383,411.449 378,410.5C 380.278,409.281 382.445,407.948 384.5,406.5C 385.833,405.833 386.833,404.833 387.5,403.5C 390.167,402.833 392.833,402.167 395.5,401.5 Z"/></g>
<g><path style="opacity:0.322" fill="#9cbee9" d="M 386.5,400.5 C 387.404,401.209 387.737,402.209 387.5,403.5C 386.833,404.833 385.833,405.833 384.5,406.5C 383.399,404.012 384.066,402.012 386.5,400.5 Z"/></g>
<g><path style="opacity:1" fill="#21343b" d="M 335.5,407.5 C 337.833,407.5 340.167,407.5 342.5,407.5C 344.693,409.522 345.693,412.189 345.5,415.5C 337.826,415.666 330.159,415.5 322.5,415C 321.167,414 321.167,413 322.5,412C 325.652,411.605 328.652,410.772 331.5,409.5C 332.605,408.4 333.938,407.733 335.5,407.5 Z"/></g>
</svg>
