<?xml version="1.0" encoding="UTF-8"?>
<!DOCTYPE svg PUBLIC "-//W3C//DTD SVG 1.1//EN" "http://www.w3.org/Graphics/SVG/1.1/DTD/svg11.dtd">
<svg xmlns="http://www.w3.org/2000/svg" version="1.1" width="612px" height="408px" style="shape-rendering:geometricPrecision; text-rendering:geometricPrecision; image-rendering:optimizeQuality; fill-rule:evenodd; clip-rule:evenodd" xmlns:xlink="http://www.w3.org/1999/xlink">
<g><path style="opacity:0.983" fill="#1c2e35" d="M 173.5,79.5 C 170.244,78.064 169.577,79.064 171.5,82.5C 171.423,84.299 170.923,85.9656 170,87.5C 169.121,84.6537 167.454,83.987 165,85.5C 163.877,88.9563 164.71,91.7897 167.5,94C 166.547,95.9552 165.213,97.6218 163.5,99C 160.048,99.8847 156.714,100.718 153.5,101.5C 144.481,95.182 141.981,86.182 146,74.5C 146.333,74.8333 146.667,75.1667 147,75.5C 151.193,69.9917 156.693,67.825 163.5,69C 167.486,69.7981 171.319,70.9648 175,72.5C 175.6,75.0953 175.1,77.4287 173.5,79.5 Z"/></g>
<g><path style="opacity:0.008" fill="#567fa7" d="M 317.5,75.5 C 318.833,76.1667 318.833,76.1667 317.5,75.5 Z"/></g>
<g><path style="opacity:0.962" fill="#1e3037" d="M 298.5,97.5 C 297.196,96.0131 296.03,94.3464 295,92.5C 294.517,93.448 294.351,94.448 294.5,95.5C 291.882,94.2151 289.382,94.5485 287,96.5C 286.581,95.3279 285.915,94.3279 285,93.5C 283.045,97.1181 280.711,100.451 278,103.5C 275.506,100.914 273.006,100.914 270.5,103.5C 267.25,99.5692 266.75,95.2359 269,90.5C 274.367,88.0434 279.533,85.21 284.5,82C 290.065,80.819 295.065,81.9857 299.5,85.5C 302.233,89.7644 301.9,93.7644 298.5,97.5 Z"/></g>
<g><path style="opacity:0.998" fill="#c07561" d="M 173.5,79.5 C 174.23,80.7124 175.23,81.7124 176.5,82.5C 176.207,85.9392 176.207,89.4392 176.5,93C 175.335,97.3761 173.335,101.209 170.5,104.5C 166.828,104.183 165.162,105.849 165.5,109.5C 161.5,109.5 157.5,109.5 153.5,109.5C 154.833,107.833 154.833,106.167 153.5,104.5C 153.5,103.5 153.5,102.5 153.5,101.5C 156.714,100.718 160.048,99.8847 163.5,99C 165.213,97.6218 166.547,95.9552 167.5,94C 164.71,91.7897 163.877,88.9563 165,85.5C 167.454,83.987 169.121,84.6537 170,87.5C 170.923,85.9656 171.423,84.299 171.5,82.5C 169.577,79.064 170.244,78.064 173.5,79.5 Z"/></g>
<g><path style="opacity:0.004" fill="#3480b6" d="M 351.5,82.5 C 352.833,83.1667 352.833,83.1667 351.5,82.5 Z"/></g>
<g><path style="opacity:0.024" fill="#5288b3" d="M 315.5,77.5 C 316.043,77.56 316.376,77.8933 316.5,78.5C 315.391,80.3853 314.557,82.3853 314,84.5C 313.391,81.9348 313.891,79.6015 315.5,77.5 Z"/></g>
<g><path style="opacity:0.098" fill="#338cc7" d="M 352.5,84.5 C 353.797,86.6934 353.797,89.0268 352.5,91.5C 352.162,89.3448 352.162,87.0115 352.5,84.5 Z"/></g>
<g><path style="opacity:0.98" fill="#1c2f37" d="M 456.5,139.5 C 456.5,138.833 456.167,138.5 455.5,138.5C 453.364,136.188 451.364,133.688 449.5,131C 446.143,129.83 442.809,128.663 439.5,127.5C 438.771,123.681 437.604,120.014 436,116.5C 435.34,118.324 434.173,119.657 432.5,120.5C 431.402,119.399 431.235,118.066 432,116.5C 434.323,114.158 435.823,111.325 436.5,108C 436.576,105.244 435.243,104.077 432.5,104.5C 432.663,106.857 432.497,109.19 432,111.5C 431.667,110.167 431.333,108.833 431,107.5C 427.573,104.744 424.907,101.41 423,97.5C 421.321,100.513 418.987,102.846 416,104.5C 415.055,104.095 414.388,103.428 414,102.5C 413,103.833 412,105.167 411,106.5C 410.667,106.167 410.333,105.833 410,105.5C 409.738,109.07 409.571,112.403 409.5,115.5C 403.007,105.959 404.673,98.1252 414.5,92C 423.734,88.8021 431.401,90.9688 437.5,98.5C 440.734,99.0409 443.567,100.374 446,102.5C 448.041,107.693 449.708,113.027 451,118.5C 453.269,119.567 455.936,120.567 459,121.5C 459.333,121.167 459.667,120.833 460,120.5C 460.615,122.116 461.615,123.449 463,124.5C 463.667,125.5 463.667,126.5 463,127.5C 460.154,129.293 459.988,131.127 462.5,133C 461.773,134.399 461.273,135.899 461,137.5C 459.951,139.107 458.451,139.773 456.5,139.5 Z"/></g>
<g><path style="opacity:0.995" fill="#f1b9b4" d="M 298.5,97.5 C 299.615,102.75 299.781,108.083 299,113.5C 297.01,119.578 292.843,122.245 286.5,121.5C 286.5,122.5 286.5,123.5 286.5,124.5C 284.896,125.287 284.229,126.62 284.5,128.5C 283.448,128.649 282.448,128.483 281.5,128C 279.237,126.383 277.237,124.55 275.5,122.5C 275.5,119.5 275.5,116.5 275.5,113.5C 276.338,113.158 276.672,112.492 276.5,111.5C 276.5,110.5 276.5,109.5 276.5,108.5C 275.5,108.5 274.5,108.5 273.5,108.5C 272.609,107.89 271.609,107.557 270.5,107.5C 269.595,106.036 269.595,104.702 270.5,103.5C 273.006,100.914 275.506,100.914 278,103.5C 280.711,100.451 283.045,97.1181 285,93.5C 285.915,94.3279 286.581,95.3279 287,96.5C 289.382,94.5485 291.882,94.2151 294.5,95.5C 294.351,94.448 294.517,93.448 295,92.5C 296.03,94.3464 297.196,96.0131 298.5,97.5 Z"/></g>
<g><path style="opacity:0.999" fill="#efb9b4" d="M 432.5,120.5 C 431.561,123.951 432.894,126.285 436.5,127.5C 436.018,131.805 434.018,135.139 430.5,137.5C 430.5,134.833 430.5,132.167 430.5,129.5C 427.5,129.5 424.5,129.5 421.5,129.5C 421.414,128.504 421.748,127.671 422.5,127C 415.466,126.128 411.132,122.295 409.5,115.5C 409.571,112.403 409.738,109.07 410,105.5C 410.333,105.833 410.667,106.167 411,106.5C 412,105.167 413,103.833 414,102.5C 414.388,103.428 415.055,104.095 416,104.5C 418.987,102.846 421.321,100.513 423,97.5C 424.907,101.41 427.573,104.744 431,107.5C 431.333,108.833 431.667,110.167 432,111.5C 432.497,109.19 432.663,106.857 432.5,104.5C 435.243,104.077 436.576,105.244 436.5,108C 435.823,111.325 434.323,114.158 432,116.5C 431.235,118.066 431.402,119.399 432.5,120.5 Z"/></g>
<g><path style="opacity:1" fill="#76696b" d="M 285.5,100.5 C 287.048,100.821 287.715,101.821 287.5,103.5C 284.752,103.598 284.086,102.598 285.5,100.5 Z"/></g>
<g><path style="opacity:0.069" fill="#3d86c1" d="M 322.5,104.5 C 319.881,104.232 317.381,104.565 315,105.5C 314.182,102.773 314.348,100.106 315.5,97.5C 318.103,99.6207 320.436,101.954 322.5,104.5 Z"/></g>
<g><path style="opacity:0.991" fill="#1b2e35" d="M 255.5,134.5 C 255.284,136.681 256.117,138.347 258,139.5C 259.196,145.052 258.363,150.219 255.5,155C 253.593,156.122 251.593,156.955 249.5,157.5C 247.473,157.662 245.473,157.495 243.5,157C 242.154,155.331 240.487,154.164 238.5,153.5C 236.628,151.938 234.295,150.938 231.5,150.5C 231.977,149.522 232.643,148.689 233.5,148C 230.902,148.126 228.569,149.126 226.5,151C 225.663,152.011 225.33,153.178 225.5,154.5C 219.472,155.306 213.472,155.306 207.5,154.5C 206.212,152.261 205.212,149.928 204.5,147.5C 205.303,146.577 205.47,145.577 205,144.5C 199.708,136.083 194.541,127.583 189.5,119C 183.898,114.998 177.565,112.998 170.5,113C 168.767,111.811 167.1,110.644 165.5,109.5C 165.162,105.849 166.828,104.183 170.5,104.5C 191.656,104.613 212.822,104.279 234,103.5C 234.667,104.167 235.333,104.833 236,105.5C 236.684,116.519 236.518,127.519 235.5,138.5C 238.744,138.102 241.411,136.602 243.5,134C 247.554,133.306 251.554,133.473 255.5,134.5 Z"/></g>
<g><path style="opacity:0.016" fill="#3e88bb" d="M 322.5,104.5 C 323.167,104.5 323.5,104.833 323.5,105.5C 323.167,105.167 322.833,104.833 322.5,104.5 Z"/></g>
<g><path style="opacity:1" fill="#1b292f" d="M 153.5,104.5 C 154.833,106.167 154.833,107.833 153.5,109.5C 152.221,110.968 150.554,111.635 148.5,111.5C 148.5,109.167 148.5,106.833 148.5,104.5C 150.167,104.5 151.833,104.5 153.5,104.5 Z"/></g>
<g><path style="opacity:0.024" fill="#348bc4" d="M 323.5,105.5 C 324.239,105.369 324.906,105.536 325.5,106C 324.563,106.692 323.897,106.525 323.5,105.5 Z"/></g>
<g><path style="opacity:0.365" fill="#1a85cb" d="M 350.5,92.5 C 351.478,92.811 352.145,93.4777 352.5,94.5C 347.026,106.248 338.359,110.248 326.5,106.5C 337.78,107.18 345.78,102.513 350.5,92.5 Z"/></g>
<g><path style="opacity:1" fill="#3484f8" d="M 273.5,108.5 C 274.5,108.5 275.5,108.5 276.5,108.5C 276.5,109.5 276.5,110.5 276.5,111.5C 275.5,111.5 274.5,111.5 273.5,111.5C 273.5,110.5 273.5,109.5 273.5,108.5 Z"/></g>
<g><path style="opacity:1" fill="#384146" d="M 419.5,107.5 C 421.225,107.843 421.725,108.843 421,110.5C 419.961,109.756 419.461,108.756 419.5,107.5 Z"/></g>
<g><path style="opacity:1" fill="#94bdfd" d="M 153.5,109.5 C 157.5,109.5 161.5,109.5 165.5,109.5C 167.1,110.644 168.767,111.811 170.5,113C 177.565,112.998 183.898,114.998 189.5,119C 194.541,127.583 199.708,136.083 205,144.5C 205.47,145.577 205.303,146.577 204.5,147.5C 199.657,149.418 195.323,152.084 191.5,155.5C 190.167,155.833 188.833,156.167 187.5,156.5C 184.425,151.352 181.591,146.019 179,140.5C 179.49,149.795 181.99,158.461 186.5,166.5C 186.557,167.609 186.89,168.609 187.5,169.5C 188.521,181.812 189.187,194.145 189.5,206.5C 179.73,211.185 169.397,213.185 158.5,212.5C 149.506,213.082 140.839,211.749 132.5,208.5C 131.842,207.207 131.508,205.707 131.5,204C 132.929,193.547 133.595,183.047 133.5,172.5C 134.879,166.383 135.546,160.05 135.5,153.5C 133.143,153.337 130.81,153.503 128.5,154C 127.944,154.383 127.611,154.883 127.5,155.5C 124.958,153.581 122.291,151.748 119.5,150C 121.785,140.031 124.618,130.198 128,120.5C 129.281,116.763 131.781,114.263 135.5,113C 139.858,111.483 144.191,110.983 148.5,111.5C 150.554,111.635 152.221,110.968 153.5,109.5 Z"/></g>
<g><path style="opacity:0.106" fill="#c1cadc" d="M 270.5,107.5 C 271.609,107.557 272.609,107.89 273.5,108.5C 273.5,109.5 273.5,110.5 273.5,111.5C 274.5,111.5 275.5,111.5 276.5,111.5C 276.672,112.492 276.338,113.158 275.5,113.5C 272.379,112.712 270.712,110.712 270.5,107.5 Z"/></g>
<g><path style="opacity:1" fill="#575d61" d="M 285.5,111.5 C 287.73,110.607 289.73,110.607 291.5,111.5C 291.192,112.308 290.692,112.975 290,113.5C 288.89,111.963 287.39,111.297 285.5,111.5 Z"/></g>
<g><path style="opacity:1" fill="#28383f" d="M 275.5,122.5 C 277.237,124.55 279.237,126.383 281.5,128C 282.448,128.483 283.448,128.649 284.5,128.5C 284.229,126.62 284.896,125.287 286.5,124.5C 287.833,125.167 288.833,126.167 289.5,127.5C 290.342,136.304 288.509,137.304 284,130.5C 283.221,131.728 282.221,132.728 281,133.5C 277.193,132.356 274.027,130.356 271.5,127.5C 272.08,125.251 273.413,123.585 275.5,122.5 Z"/></g>
<g><path style="opacity:1" fill="#057cfa" d="M 439.5,127.5 C 442.809,128.663 446.143,129.83 449.5,131C 451.364,133.688 453.364,136.188 455.5,138.5C 456.167,138.5 456.5,138.833 456.5,139.5C 459.375,149.167 461.708,159 463.5,169C 463.385,170.895 462.718,172.562 461.5,174C 457.702,175.783 453.702,176.616 449.5,176.5C 449.631,180.952 450.298,185.286 451.5,189.5C 447.5,189.5 443.5,189.5 439.5,189.5C 436.713,188.523 433.713,188.19 430.5,188.5C 430.5,185.833 430.5,183.167 430.5,180.5C 431.822,180.67 432.989,180.337 434,179.5C 434.667,176.167 434.667,172.833 434,169.5C 432.961,168.29 431.794,167.29 430.5,166.5C 430.5,156.833 430.5,147.167 430.5,137.5C 434.018,135.139 436.018,131.805 436.5,127.5C 437.202,126.884 438.202,126.884 439.5,127.5 Z"/></g>
<g><path style="opacity:1" fill="#63a4fe" d="M 421.5,129.5 C 424.5,129.5 427.5,129.5 430.5,129.5C 430.5,132.167 430.5,134.833 430.5,137.5C 430.5,147.167 430.5,156.833 430.5,166.5C 430.5,168.167 430.5,169.833 430.5,171.5C 424.736,171.86 423.069,174.693 425.5,180C 427.134,180.494 428.801,180.66 430.5,180.5C 430.5,183.167 430.5,185.833 430.5,188.5C 430.5,196.833 430.5,205.167 430.5,213.5C 422.648,213.175 414.982,213.508 407.5,214.5C 404.121,214.678 400.955,214.678 398,214.5C 398.203,217.574 399.537,220.241 402,222.5C 402.826,232.341 398.16,237.008 388,236.5C 386.293,236.492 384.793,236.158 383.5,235.5C 384.239,235.631 384.906,235.464 385.5,235C 381.43,233.099 379.097,229.932 378.5,225.5C 380.065,221.928 382.065,218.595 384.5,215.5C 383.311,214.571 381.978,214.238 380.5,214.5C 380.771,216.38 380.104,217.713 378.5,218.5C 378.539,217.417 378.873,216.417 379.5,215.5C 377.833,215.167 376.167,214.833 374.5,214.5C 363.842,215.454 353.175,215.454 342.5,214.5C 341.664,201.515 341.664,188.515 342.5,175.5C 346.359,174.715 350.025,174.882 353.5,176C 356.017,180.68 359.35,181.513 363.5,178.5C 366.777,178.784 369.943,178.451 373,177.5C 373.14,175.479 373.307,173.645 373.5,172C 372.142,171.066 370.808,170.232 369.5,169.5C 370.501,164.99 368.834,161.49 364.5,159C 362.934,158.235 361.601,158.402 360.5,159.5C 357.484,160.343 354.817,161.843 352.5,164C 350.527,164.495 348.527,164.662 346.5,164.5C 346.5,164.167 346.5,163.833 346.5,163.5C 347.495,152.346 347.828,141.012 347.5,129.5C 372.069,128.638 396.736,128.638 421.5,129.5 Z"/></g>
<g><path style="opacity:0.785" fill="#3291fc" d="M 347.5,129.5 C 347.828,141.012 347.495,152.346 346.5,163.5C 346.5,163.833 346.5,164.167 346.5,164.5C 345.167,164.5 343.833,164.5 342.5,164.5C 342.5,152.833 342.5,141.167 342.5,129.5C 344.167,129.5 345.833,129.5 347.5,129.5 Z"/></g>
<g><path style="opacity:1" fill="#007cfe" d="M 346.5,163.5 C 345.5,163.5 344.5,163.5 343.5,163.5C 343.5,152.5 343.5,141.5 343.5,130.5C 344.5,130.5 345.5,130.5 346.5,130.5C 346.5,141.5 346.5,152.5 346.5,163.5 Z"/></g>
<g><path style="opacity:1" fill="#f7c0ba" d="M 305.5,136.5 C 306.833,136.833 306.833,137.167 305.5,137.5C 303.852,138.81 302.186,140.143 300.5,141.5C 302.48,144.21 302.814,147.043 301.5,150C 297.909,152.805 293.909,153.805 289.5,153C 287.105,148.376 288.105,144.376 292.5,141C 296.855,139.486 301.188,137.986 305.5,136.5 Z"/></g>
<g><path style="opacity:1" fill="#c87863" d="M 204.5,147.5 C 205.212,149.928 206.212,152.261 207.5,154.5C 213.472,155.306 219.472,155.306 225.5,154.5C 225.33,153.178 225.663,152.011 226.5,151C 228.569,149.126 230.902,148.126 233.5,148C 232.643,148.689 231.977,149.522 231.5,150.5C 234.295,150.938 236.628,151.938 238.5,153.5C 238.375,157.486 237.375,161.152 235.5,164.5C 232.565,164.283 229.731,163.617 227,162.5C 221.434,164.467 215.934,166.634 210.5,169C 207.232,170.213 203.899,170.546 200.5,170C 196.612,165.726 193.612,160.893 191.5,155.5C 195.323,152.084 199.657,149.418 204.5,147.5 Z"/></g>
<g><path style="opacity:1" fill="#8f989c" d="M 271.5,127.5 C 274.027,130.356 277.193,132.356 281,133.5C 282.221,132.728 283.221,131.728 284,130.5C 288.509,137.304 290.342,136.304 289.5,127.5C 296.064,128.445 301.397,131.445 305.5,136.5C 301.188,137.986 296.855,139.486 292.5,141C 288.105,144.376 287.105,148.376 289.5,153C 293.909,153.805 297.909,152.805 301.5,150C 302.814,147.043 302.48,144.21 300.5,141.5C 302.186,140.143 303.852,138.81 305.5,137.5C 307.952,144.309 309.619,151.309 310.5,158.5C 306.685,158.869 302.685,159.035 298.5,159C 294.615,163.229 292.948,168.063 293.5,173.5C 290.562,178.378 287.895,183.378 285.5,188.5C 285.781,190.778 287.115,191.945 289.5,192C 295.392,193.807 301.392,194.974 307.5,195.5C 308.332,196.329 307.999,197.162 306.5,198C 294.109,203.186 281.442,203.853 268.5,200C 265.894,199.208 263.894,197.708 262.5,195.5C 263.915,190.922 264.915,186.255 265.5,181.5C 275.571,173.768 284.905,165.101 293.5,155.5C 293.167,155.167 292.833,154.833 292.5,154.5C 283.656,162.742 274.656,170.742 265.5,178.5C 261.485,181.898 256.985,182.898 252,181.5C 248.659,173.78 247.826,165.78 249.5,157.5C 251.593,156.955 253.593,156.122 255.5,155C 258.363,150.219 259.196,145.052 258,139.5C 256.117,138.347 255.284,136.681 255.5,134.5C 260.057,130.558 265.391,128.225 271.5,127.5 Z"/></g>
<g><path style="opacity:1" fill="#7596cb" d="M 187.5,156.5 C 186.521,159.625 186.187,162.958 186.5,166.5C 181.99,158.461 179.49,149.795 179,140.5C 181.591,146.019 184.425,151.352 187.5,156.5 Z"/></g>
<g><path style="opacity:1" fill="#cb7b66" d="M 133.5,172.5 C 130.439,172.556 128.272,171.222 127,168.5C 126.371,164.129 126.537,159.796 127.5,155.5C 127.611,154.883 127.944,154.383 128.5,154C 130.81,153.503 133.143,153.337 135.5,153.5C 135.546,160.05 134.879,166.383 133.5,172.5 Z"/></g>
<g><path style="opacity:1" fill="#087dfc" d="M 310.5,158.5 C 314.385,161.132 318.718,162.798 323.5,163.5C 323.833,164.5 324.5,165.167 325.5,165.5C 322.833,170.167 320.167,174.833 317.5,179.5C 317.068,180.71 316.401,181.71 315.5,182.5C 312.084,186.323 309.418,190.657 307.5,195.5C 301.392,194.974 295.392,193.807 289.5,192C 287.115,191.945 285.781,190.778 285.5,188.5C 287.895,183.378 290.562,178.378 293.5,173.5C 292.948,168.063 294.615,163.229 298.5,159C 302.685,159.035 306.685,158.869 310.5,158.5 Z"/></g>
<g><path style="opacity:0.443" fill="#5d9cec" d="M 336.5,161.5 C 336.631,160.761 336.464,160.094 336,159.5C 332.594,161.756 329.094,163.756 325.5,165.5C 324.5,165.167 323.833,164.5 323.5,163.5C 327.728,158.508 332.728,156.842 338.5,158.5C 338.058,159.739 337.391,160.739 336.5,161.5 Z"/></g>
<g><path style="opacity:1" fill="#1165d0" d="M 336.5,161.5 C 332.584,166.996 328.918,172.663 325.5,178.5C 322.904,179.265 320.237,179.599 317.5,179.5C 320.167,174.833 322.833,170.167 325.5,165.5C 329.094,163.756 332.594,161.756 336,159.5C 336.464,160.094 336.631,160.761 336.5,161.5 Z"/></g>
<g><path style="opacity:0.998" fill="#1a2c33" d="M 191.5,155.5 C 193.612,160.893 196.612,165.726 200.5,170C 203.899,170.546 207.232,170.213 210.5,169C 215.934,166.634 221.434,164.467 227,162.5C 229.731,163.617 232.565,164.283 235.5,164.5C 235.5,173.167 235.5,181.833 235.5,190.5C 230.363,191.117 225.363,191.117 220.5,190.5C 218.036,190.59 215.87,191.257 214,192.5C 207.789,190.566 201.289,189.899 194.5,190.5C 195.02,186.462 196.853,183.128 200,180.5C 200.936,174.559 198.436,170.726 192.5,169C 190.803,168.616 189.137,168.782 187.5,169.5C 186.89,168.609 186.557,167.609 186.5,166.5C 186.187,162.958 186.521,159.625 187.5,156.5C 188.833,156.167 190.167,155.833 191.5,155.5 Z"/></g>
<g><path style="opacity:1" fill="#2481fa" d="M 369.5,169.5 C 368.5,169.5 367.5,169.5 366.5,169.5C 366.715,167.821 366.048,166.821 364.5,166.5C 364.429,163.348 363.095,161.014 360.5,159.5C 361.601,158.402 362.934,158.235 364.5,159C 368.834,161.49 370.501,164.99 369.5,169.5 Z"/></g>
<g><path style="opacity:1" fill="#6a6f73" d="M 265.5,181.5 C 265.5,180.5 265.5,179.5 265.5,178.5C 274.656,170.742 283.656,162.742 292.5,154.5C 292.833,154.833 293.167,155.167 293.5,155.5C 284.905,165.101 275.571,173.768 265.5,181.5 Z"/></g>
<g><path style="opacity:1" fill="#f0bdbe" d="M 430.5,166.5 C 431.794,167.29 432.961,168.29 434,169.5C 434.667,172.833 434.667,176.167 434,179.5C 432.989,180.337 431.822,180.67 430.5,180.5C 428.801,180.66 427.134,180.494 425.5,180C 423.069,174.693 424.736,171.86 430.5,171.5C 430.5,169.833 430.5,168.167 430.5,166.5 Z"/></g>
<g><path style="opacity:1" fill="#edbcbe" d="M 364.5,166.5 C 366.048,166.821 366.715,167.821 366.5,169.5C 367.5,169.5 368.5,169.5 369.5,169.5C 370.808,170.232 372.142,171.066 373.5,172C 373.307,173.645 373.14,175.479 373,177.5C 369.943,178.451 366.777,178.784 363.5,178.5C 363.304,175.539 362.971,172.539 362.5,169.5C 362.942,168.261 363.609,167.261 364.5,166.5 Z"/></g>
<g><path style="opacity:1" fill="#007cfe" d="M 343.5,176.5 C 344.5,176.5 345.5,176.5 346.5,176.5C 346.5,188.833 346.5,201.167 346.5,213.5C 345.5,213.5 344.5,213.5 343.5,213.5C 343.5,201.167 343.5,188.833 343.5,176.5 Z"/></g>
<g><path style="opacity:1" fill="#edbbbd" d="M 325.5,178.5 C 326.041,184.66 323.041,188.327 316.5,189.5C 316.804,188.85 317.137,188.183 317.5,187.5C 315.995,186.158 315.328,184.492 315.5,182.5C 316.401,181.71 317.068,180.71 317.5,179.5C 320.237,179.599 322.904,179.265 325.5,178.5 Z"/></g>
<g><path style="opacity:1" fill="#396392" d="M 430.5,188.5 C 433.713,188.19 436.713,188.523 439.5,189.5C 436.833,189.5 434.167,189.5 431.5,189.5C 431.5,197.833 431.5,206.167 431.5,214.5C 423.5,214.5 415.5,214.5 407.5,214.5C 414.982,213.508 422.648,213.175 430.5,213.5C 430.5,205.167 430.5,196.833 430.5,188.5 Z"/></g>
<g><path style="opacity:0.995" fill="#1a2e35" d="M 439.5,189.5 C 443.5,189.5 447.5,189.5 451.5,189.5C 456.174,198.863 458.674,208.863 459,219.5C 459.54,228.524 459.207,237.524 458,246.5C 457.95,248.744 457.117,250.411 455.5,251.5C 447.414,251.199 439.414,251.533 431.5,252.5C 429.833,252.5 428.167,252.5 426.5,252.5C 418.927,251.367 411.26,250.033 403.5,248.5C 403.484,237.206 404.817,225.872 407.5,214.5C 415.5,214.5 423.5,214.5 431.5,214.5C 431.5,206.167 431.5,197.833 431.5,189.5C 434.167,189.5 436.833,189.5 439.5,189.5 Z"/></g>
<g><path style="opacity:1" fill="#057dfc" d="M 520.5,189.5 C 538.63,187.466 547.13,195.466 546,213.5C 541.776,224.867 533.609,229.367 521.5,227C 519.01,225.851 516.51,224.684 514,223.5C 512.56,224.148 511.06,224.481 509.5,224.5C 509.318,222.409 509.652,220.409 510.5,218.5C 505.106,205.717 508.439,196.05 520.5,189.5 Z M 533.5,202.5 C 534.289,202.783 534.956,203.283 535.5,204C 532,207.5 528.5,211 525,214.5C 523.292,212.457 521.292,210.79 519,209.5C 518.251,208.365 518.417,207.365 519.5,206.5C 520.981,207.48 522.315,208.647 523.5,210C 527.716,208.986 531.049,206.486 533.5,202.5 Z"/></g>
<g><path style="opacity:0.317" fill="#217cdb" d="M 520.5,186.5 C 521.043,186.56 521.376,186.893 521.5,187.5C 515.261,189.574 510.761,193.574 508,199.5C 508.015,195.441 509.848,192.274 513.5,190C 515.925,188.787 518.259,187.621 520.5,186.5 Z"/></g>
<g><path style="opacity:1" fill="#0262d0" d="M 315.5,182.5 C 315.328,184.492 315.995,186.158 317.5,187.5C 317.137,188.183 316.804,188.85 316.5,189.5C 314.012,191.255 311.678,193.255 309.5,195.5C 313.859,214.988 317.359,234.654 320,254.5C 320.711,263.194 320.544,271.861 319.5,280.5C 313.256,281.458 306.923,281.791 300.5,281.5C 300.446,278.033 301.946,275.366 305,273.5C 306.216,264.87 302.383,260.203 293.5,259.5C 292.656,255.126 291.656,250.793 290.5,246.5C 295.923,235.103 296.756,223.437 293,211.5C 290.304,220.077 288.138,228.744 286.5,237.5C 285.089,245.554 283.423,253.554 281.5,261.5C 281.315,263.196 280.481,264.529 279,265.5C 278.503,268.146 278.336,270.813 278.5,273.5C 278.039,275.55 277.372,277.55 276.5,279.5C 278.743,280.474 281.076,280.808 283.5,280.5C 284.167,280.5 284.5,280.833 284.5,281.5C 273.833,281.5 263.167,281.5 252.5,281.5C 252.831,309.672 252.498,337.672 251.5,365.5C 251.5,337.167 251.5,308.833 251.5,280.5C 253.237,274.313 254.404,267.979 255,261.5C 256.06,243.811 257.393,226.145 259,208.5C 259.907,203.969 261.073,199.636 262.5,195.5C 263.894,197.708 265.894,199.208 268.5,200C 281.442,203.853 294.109,203.186 306.5,198C 307.999,197.162 308.332,196.329 307.5,195.5C 309.418,190.657 312.084,186.323 315.5,182.5 Z M 286.5,237.5 C 287.833,240.5 289.167,243.5 290.5,246.5C 291.656,250.793 292.656,255.126 293.5,259.5C 292.5,259.5 291.5,259.5 290.5,259.5C 287.308,259.405 284.308,260.071 281.5,261.5C 283.423,253.554 285.089,245.554 286.5,237.5 Z M 278.5,273.5 C 280.9,275.296 282.567,277.63 283.5,280.5C 281.076,280.808 278.743,280.474 276.5,279.5C 277.372,277.55 278.039,275.55 278.5,273.5 Z"/></g>
<g><path style="opacity:0.416" fill="#2877cb" d="M 505.5,201.5 C 507.646,201.696 507.812,202.696 506,204.5C 505.517,203.552 505.351,202.552 505.5,201.5 Z"/></g>
<g><path style="opacity:0.972" fill="#1e3036" d="M 497.5,223.5 C 493.81,221.986 491.643,223.32 491,227.5C 489.615,226.449 488.615,225.116 488,223.5C 486.506,213.412 481.84,211.412 474,217.5C 473.173,218.662 472.34,219.829 471.5,221C 471.892,222.011 472.559,222.511 473.5,222.5C 472.643,223.425 471.643,224.092 470.5,224.5C 469.533,223.194 468.199,222.527 466.5,222.5C 465.163,208.677 471.496,202.843 485.5,205C 489.284,207.307 493.118,209.474 497,211.5C 498.67,215.49 498.836,219.49 497.5,223.5 Z"/></g>
<g><path style="opacity:0.989" fill="#1a2d35" d="M 189.5,206.5 C 193.13,225.323 197.13,243.989 201.5,262.5C 201.326,278.401 199.659,294.234 196.5,310C 196.645,310.772 196.978,311.439 197.5,312C 194.968,323.277 192.968,334.444 191.5,345.5C 184.471,345.623 177.471,345.29 170.5,344.5C 170.241,340.76 170.574,337.094 171.5,333.5C 170.975,332.808 170.308,332.308 169.5,332C 170.78,329.106 171.446,325.939 171.5,322.5C 171.461,319.113 171.128,315.78 170.5,312.5C 171,311.5 171.5,310.5 172,309.5C 172.867,297.504 173.2,285.504 173,273.5C 169.528,266.32 166.528,258.986 164,251.5C 163.24,255.225 163.407,258.892 164.5,262.5C 162.506,278.031 160.84,293.697 159.5,309.5C 159.68,310.554 160.013,311.554 160.5,312.5C 158.992,317.554 157.992,322.721 157.5,328C 157.675,329.658 158.342,330.991 159.5,332C 158.552,332.483 157.552,332.649 156.5,332.5C 156.261,336.842 155.927,341.176 155.5,345.5C 147.833,345.5 140.167,345.5 132.5,345.5C 133.018,344.423 133.352,343.256 133.5,342C 131.61,317.232 131.943,292.399 134.5,267.5C 134.119,247.918 133.452,228.251 132.5,208.5C 140.839,211.749 149.506,213.082 158.5,212.5C 169.397,213.185 179.73,211.185 189.5,206.5 Z"/></g>
<g><path style="opacity:0.993" fill="#004faa" d="M 290.5,246.5 C 289.167,243.5 287.833,240.5 286.5,237.5C 288.138,228.744 290.304,220.077 293,211.5C 296.756,223.437 295.923,235.103 290.5,246.5 Z"/></g>
<g><path style="opacity:0.998" fill="#f1ae71" d="M 497.5,223.5 C 499.159,227.191 498.492,230.525 495.5,233.5C 496.169,236.53 496.835,239.53 497.5,242.5C 495.372,244.446 493.039,246.279 490.5,248C 488.512,248.18 486.512,248.014 484.5,247.5C 484.67,246.178 484.337,245.011 483.5,244C 473.652,241.408 469.319,234.908 470.5,224.5C 471.643,224.092 472.643,223.425 473.5,222.5C 472.559,222.511 471.892,222.011 471.5,221C 472.34,219.829 473.173,218.662 474,217.5C 481.84,211.412 486.506,213.412 488,223.5C 488.615,225.116 489.615,226.449 491,227.5C 491.643,223.32 493.81,221.986 497.5,223.5 Z"/></g>
<g><path style="opacity:1" fill="#0c7ffc" d="M 383.5,235.5 C 378.082,234.583 374.748,231.416 373.5,226C 374.317,222.847 375.983,220.347 378.5,218.5C 380.104,217.713 380.771,216.38 380.5,214.5C 381.978,214.238 383.311,214.571 384.5,215.5C 382.065,218.595 380.065,221.928 378.5,225.5C 379.097,229.932 381.43,233.099 385.5,235C 384.906,235.464 384.239,235.631 383.5,235.5 Z"/></g>
<g><path style="opacity:1" fill="#4e4c43" d="M 480.5,224.5 C 482.337,224.639 482.67,225.306 481.5,226.5C 480.702,226.043 480.369,225.376 480.5,224.5 Z"/></g>
<g><path style="opacity:1" fill="#057dfc" d="M 84.5,287.5 C 85.5597,281.151 86.3931,274.818 87,268.5C 85.8097,274.071 84.3097,279.404 82.5,284.5C 76.0317,261.633 80.1984,240.966 95,222.5C 100.129,235.666 101.796,249.332 100,263.5C 97.0761,273.031 91.9095,281.031 84.5,287.5 Z"/></g>
<g><path style="opacity:1" fill="#047cfc" d="M 497.5,242.5 C 502.478,243.201 507.478,244.034 512.5,245C 514.624,246.122 516.457,247.622 518,249.5C 529.602,267.703 538.768,287.036 545.5,307.5C 545.377,308.925 545.043,310.258 544.5,311.5C 530.198,313.829 515.865,315.663 501.5,317C 498.414,310.328 495.747,303.494 493.5,296.5C 497.709,289.783 502.875,283.783 509,278.5C 509.667,277.833 509.667,277.167 509,276.5C 503.271,282.397 497.438,288.064 491.5,293.5C 486.603,297.89 481.27,301.723 475.5,305C 465.736,308.564 456.069,312.064 446.5,315.5C 445.391,315.443 444.391,315.11 443.5,314.5C 443.46,311.012 442.793,307.679 441.5,304.5C 442.37,302.726 443.703,301.393 445.5,300.5C 453.955,297.106 462.288,293.439 470.5,289.5C 474.679,287.506 474.345,286.006 469.5,285C 464.723,283.412 460.057,283.245 455.5,284.5C 455.158,285.338 454.492,285.672 453.5,285.5C 451.629,285.859 450.129,286.859 449,288.5C 446.491,292.194 444.658,296.194 443.5,300.5C 440.904,301.265 438.237,301.599 435.5,301.5C 433.214,301.405 431.214,300.738 429.5,299.5C 429.5,296.5 429.5,293.5 429.5,290.5C 431.5,289.833 433.5,289.167 435.5,288.5C 440.908,286.967 446.241,285.134 451.5,283C 453.584,282.303 455.251,281.136 456.5,279.5C 463.915,272.587 470.415,264.92 476,256.5C 478.498,254.583 481.165,252.916 484,251.5C 484.49,250.207 484.657,248.873 484.5,247.5C 486.512,248.014 488.512,248.18 490.5,248C 493.039,246.279 495.372,244.446 497.5,242.5 Z"/></g>
<g><path style="opacity:1" fill="#c59794" d="M 403.5,248.5 C 411.26,250.033 418.927,251.367 426.5,252.5C 426.068,253.71 425.401,254.71 424.5,255.5C 417.007,255.736 410.007,254.069 403.5,250.5C 403.5,249.833 403.5,249.167 403.5,248.5 Z"/></g>
<g><path style="opacity:0.971" fill="#f7beb9" d="M 403.5,250.5 C 410.007,254.069 417.007,255.736 424.5,255.5C 420.276,263.623 418.609,272.289 419.5,281.5C 415.916,282.131 412.249,282.465 408.5,282.5C 404.761,282.486 401.428,281.82 398.5,280.5C 400.177,270.373 401.844,260.373 403.5,250.5 Z"/></g>
<g><path style="opacity:1" fill="#c39692" d="M 455.5,251.5 C 455.5,252.167 455.5,252.833 455.5,253.5C 454.85,253.196 454.183,252.863 453.5,252.5C 446.684,254.76 439.684,256.093 432.5,256.5C 432.167,255.167 431.833,253.833 431.5,252.5C 439.414,251.533 447.414,251.199 455.5,251.5 Z"/></g>
<g><path style="opacity:0.982" fill="#fbc1bb" d="M 455.5,253.5 C 454.882,258.33 454.215,263.163 453.5,268C 453.98,272.091 454.98,275.924 456.5,279.5C 455.251,281.136 453.584,282.303 451.5,283C 446.241,285.134 440.908,286.967 435.5,288.5C 434.5,277.837 433.5,267.171 432.5,256.5C 439.684,256.093 446.684,254.76 453.5,252.5C 454.183,252.863 454.85,253.196 455.5,253.5 Z"/></g>
<g><path style="opacity:1" fill="#087dfb" d="M 80.5,291.5 C 80.1667,292.167 79.8333,292.833 79.5,293.5C 71.562,294.117 66.062,290.784 63,283.5C 59.8404,272.121 60.1737,261.121 64,250.5C 70.1854,263.889 75.6854,277.556 80.5,291.5 Z"/></g>
<g><path style="opacity:1" fill="#0f5293" d="M 90.5,253.5 C 91.0431,253.56 91.3764,253.893 91.5,254.5C 90.1788,258.784 89.0122,263.117 88,267.5C 87.8726,262.673 88.706,258.006 90.5,253.5 Z"/></g>
<g><path style="opacity:1" fill="#007dfd" d="M 290.5,259.5 C 291.5,259.5 292.5,259.5 293.5,259.5C 302.383,260.203 306.216,264.87 305,273.5C 301.946,275.366 300.446,278.033 300.5,281.5C 306.923,281.791 313.256,281.458 319.5,280.5C 325.167,280.5 330.833,280.5 336.5,280.5C 336.5,292.167 336.5,303.833 336.5,315.5C 331.328,313.918 326.328,314.252 321.5,316.5C 321.217,315.711 320.717,315.044 320,314.5C 313.374,318.944 311.707,324.944 315,332.5C 316.432,334.439 318.265,335.772 320.5,336.5C 323.021,339.521 326.188,341.521 330,342.5C 332.511,342.16 334.678,341.16 336.5,339.5C 336.684,348.437 336.684,357.27 336.5,366C 307.997,366.83 279.664,366.664 251.5,365.5C 252.498,337.672 252.831,309.672 252.5,281.5C 263.167,281.5 273.833,281.5 284.5,281.5C 285.833,281.5 287.167,281.5 288.5,281.5C 286.506,277.512 284.506,273.512 282.5,269.5C 282.577,267.701 283.077,266.034 284,264.5C 286.071,262.563 288.238,260.896 290.5,259.5 Z"/></g>
<g><path style="opacity:0.997" fill="#024ba1" d="M 290.5,259.5 C 288.238,260.896 286.071,262.563 284,264.5C 283.077,266.034 282.577,267.701 282.5,269.5C 284.506,273.512 286.506,277.512 288.5,281.5C 287.167,281.5 285.833,281.5 284.5,281.5C 284.5,280.833 284.167,280.5 283.5,280.5C 282.567,277.63 280.9,275.296 278.5,273.5C 278.336,270.813 278.503,268.146 279,265.5C 280.481,264.529 281.315,263.196 281.5,261.5C 284.308,260.071 287.308,259.405 290.5,259.5 Z"/></g>
<g><path style="opacity:1" fill="#0050ab" d="M 495.5,258.5 C 496.525,258.897 496.692,259.563 496,260.5C 491,266.167 486,271.833 481,277.5C 479.039,273.94 477.705,270.273 477,266.5C 478.61,268.731 480.443,270.731 482.5,272.5C 486.827,267.839 491.16,263.173 495.5,258.5 Z"/></g>
<g><path style="opacity:1" fill="#0a7bf4" d="M 86.5,316.5 C 86.5,315.833 86.5,315.167 86.5,314.5C 88.8353,311.5 90.3353,308.166 91,304.5C 89.0797,307.339 87.4131,310.339 86,313.5C 85.6174,312.944 85.1174,312.611 84.5,312.5C 85.4463,297.774 91.7797,285.94 103.5,277C 106.971,274.928 110.638,273.428 114.5,272.5C 111.646,289.046 103.979,302.879 91.5,314C 89.8068,314.847 88.1401,315.68 86.5,316.5 Z"/></g>
<g><path style="opacity:0.999" fill="#1a2e35" d="M 348.5,280.5 C 360.159,281.055 371.826,281.388 383.5,281.5C 383.657,282.873 383.49,284.207 383,285.5C 378.413,288.888 377.247,292.888 379.5,297.5C 383.709,304.501 388.875,305.168 395,299.5C 398.784,293.038 397.284,288.038 390.5,284.5C 390.5,283.5 390.5,282.5 390.5,281.5C 393.167,281.167 395.833,280.833 398.5,280.5C 401.428,281.82 404.761,282.486 408.5,282.5C 412.249,282.465 415.916,282.131 419.5,281.5C 422.85,281.335 426.183,281.502 429.5,282C 430.786,284.832 430.786,287.665 429.5,290.5C 429.5,293.5 429.5,296.5 429.5,299.5C 428.375,300.348 428.375,301.348 429.5,302.5C 429.5,303.833 429.5,305.167 429.5,306.5C 426.718,307.933 423.718,309.1 420.5,310C 417.742,312.009 417.408,314.009 419.5,316C 418.833,316.667 418.167,317.333 417.5,318C 419.833,318.333 422.167,318.667 424.5,319C 421.972,319.998 421.972,320.831 424.5,321.5C 426.354,320.494 428.021,320.494 429.5,321.5C 429.791,334.497 430.791,347.163 432.5,359.5C 432.285,361.179 432.952,362.179 434.5,362.5C 434.328,363.492 434.662,364.158 435.5,364.5C 435.5,365.167 435.5,365.833 435.5,366.5C 404.181,368.5 372.847,368.833 341.5,367.5C 341.285,364.856 341.285,362.523 341.5,360.5C 342.451,361.919 342.784,363.585 342.5,365.5C 343.5,365.5 344.5,365.5 345.5,365.5C 345.5,354.5 345.5,343.5 345.5,332.5C 344.167,332.5 342.833,332.5 341.5,332.5C 339.833,333.833 338.167,335.167 336.5,336.5C 333.904,337.265 331.237,337.599 328.5,337.5C 322.907,333.266 321.074,327.599 323,320.5C 324.698,318.148 327.032,316.815 330,316.5C 335.151,317.86 340.318,318.86 345.5,319.5C 345.5,307.167 345.5,294.833 345.5,282.5C 344.448,282.649 343.448,282.483 342.5,282C 344.518,281.495 346.518,280.995 348.5,280.5 Z"/></g>
<g><path style="opacity:1" fill="#034ba0" d="M 251.5,280.5 C 251.5,308.833 251.5,337.167 251.5,365.5C 250.348,366.625 249.348,366.625 248.5,365.5C 248.791,359.077 248.458,352.744 247.5,346.5C 247.827,336.319 247.494,326.319 246.5,316.5C 247.338,304.52 247.672,292.52 247.5,280.5C 248.833,280.5 250.167,280.5 251.5,280.5 Z"/></g>
<g><path style="opacity:1" fill="#1455a6" d="M 455.5,284.5 C 460.057,283.245 464.723,283.412 469.5,285C 474.345,286.006 474.679,287.506 470.5,289.5C 471.953,288.175 471.619,287.342 469.5,287C 465.037,285.025 460.371,284.192 455.5,284.5 Z"/></g>
<g><path style="opacity:1" fill="#627078" d="M 455.5,284.5 C 460.371,284.192 465.037,285.025 469.5,287C 471.619,287.342 471.953,288.175 470.5,289.5C 462.288,293.439 453.955,297.106 445.5,300.5C 446.865,294.769 449.531,289.769 453.5,285.5C 454.492,285.672 455.158,285.338 455.5,284.5 Z"/></g>
<g><path style="opacity:1" fill="#024ea7" d="M 493.5,296.5 C 492.599,295.71 491.932,294.71 491.5,293.5C 497.438,288.064 503.271,282.397 509,276.5C 509.667,277.167 509.667,277.833 509,278.5C 502.875,283.783 497.709,289.783 493.5,296.5 Z"/></g>
<g><path style="opacity:0.989" fill="#e4e5e5" d="M 390.5,284.5 C 397.284,288.038 398.784,293.038 395,299.5C 388.875,305.168 383.709,304.501 379.5,297.5C 386.175,295.869 389.841,291.535 390.5,284.5 Z"/></g>
<g><path style="opacity:1" fill="#097bf6" d="M 79.5,317.5 C 79.6495,318.552 79.4828,319.552 79,320.5C 78.3333,319.167 77.6667,317.833 77,316.5C 76.3457,315.304 75.8457,315.304 75.5,316.5C 76.7878,318.739 77.7878,321.072 78.5,323.5C 71.9655,321.136 67.1322,316.802 64,310.5C 60.0744,303.222 57.241,295.555 55.5,287.5C 66.6313,290.503 74.1313,297.503 78,308.5C 79.1488,311.393 79.6488,314.393 79.5,317.5 Z"/></g>
<g><path style="opacity:0.702" fill="#1a5089" d="M 84.5,287.5 C 83.6126,296.815 82.946,306.149 82.5,315.5C 82.1667,315.5 81.8333,315.5 81.5,315.5C 81.4705,309.28 81.3039,302.946 81,296.5C 80.4867,295.473 79.9867,294.473 79.5,293.5C 79.8333,292.833 80.1667,292.167 80.5,291.5C 81.2679,292.263 81.7679,293.263 82,294.5C 82.9716,291.087 83.1383,287.753 82.5,284.5C 84.3097,279.404 85.8097,274.071 87,268.5C 86.3931,274.818 85.5597,281.151 84.5,287.5 Z"/></g>
<g><path style="opacity:1" fill="#044da2" d="M 453.5,285.5 C 449.531,289.769 446.865,294.769 445.5,300.5C 444.833,300.5 444.167,300.5 443.5,300.5C 444.658,296.194 446.491,292.194 449,288.5C 450.129,286.859 451.629,285.859 453.5,285.5 Z"/></g>
<g><path style="opacity:1" fill="#f3b073" d="M 429.5,299.5 C 431.214,300.738 433.214,301.405 435.5,301.5C 437.588,302.201 439.588,303.201 441.5,304.5C 442.793,307.679 443.46,311.012 443.5,314.5C 440.755,316.175 438.088,317.842 435.5,319.5C 433.421,319.971 431.421,320.637 429.5,321.5C 428.021,320.494 426.354,320.494 424.5,321.5C 421.972,320.831 421.972,319.998 424.5,319C 422.167,318.667 419.833,318.333 417.5,318C 418.167,317.333 418.833,316.667 419.5,316C 417.408,314.009 417.742,312.009 420.5,310C 423.718,309.1 426.718,307.933 429.5,306.5C 433.165,305.707 433.165,304.374 429.5,302.5C 428.375,301.348 428.375,300.348 429.5,299.5 Z"/></g>
<g><path style="opacity:1" fill="#c2adc8" d="M 443.5,300.5 C 444.167,300.5 444.833,300.5 445.5,300.5C 443.703,301.393 442.37,302.726 441.5,304.5C 439.588,303.201 437.588,302.201 435.5,301.5C 438.237,301.599 440.904,301.265 443.5,300.5 Z"/></g>
<g><path style="opacity:1" fill="#1080f9" d="M 89.5,326.5 C 89.5,325.833 89.1667,325.5 88.5,325.5C 95.0484,315.613 102.715,306.613 111.5,298.5C 112.881,314.472 105.547,323.806 89.5,326.5 Z"/></g>
<g><path style="opacity:1" fill="#d8e0f1" d="M 429.5,302.5 C 433.165,304.374 433.165,305.707 429.5,306.5C 429.5,305.167 429.5,303.833 429.5,302.5 Z"/></g>
<g><path style="opacity:0.998" fill="#657074" d="M 491.5,293.5 C 491.932,294.71 492.599,295.71 493.5,296.5C 495.747,303.494 498.414,310.328 501.5,317C 515.865,315.663 530.198,313.829 544.5,311.5C 548.002,321.492 548.169,331.492 545,341.5C 543.624,342.705 542.458,344.038 541.5,345.5C 538.331,346.917 535.331,348.583 532.5,350.5C 531.167,350.833 531.167,351.167 532.5,351.5C 532.624,353.952 533.624,355.952 535.5,357.5C 535.471,359.029 534.804,360.196 533.5,361C 534.38,362.356 534.714,363.856 534.5,365.5C 533.711,365.783 533.044,366.283 532.5,367C 512.787,367.807 493.12,367.14 473.5,365C 471.701,363.964 470.034,363.797 468.5,364.5C 468.5,363.833 468.167,363.5 467.5,363.5C 465.351,362.264 463.018,361.264 460.5,360.5C 458.774,358.772 457.441,356.772 456.5,354.5C 454.628,347.718 456.628,342.218 462.5,338C 465.572,337.422 468.239,336.255 470.5,334.5C 476.979,331.772 483.645,329.272 490.5,327C 483.667,322.167 476.833,317.333 470,312.5C 469.793,318.914 469.293,325.247 468.5,331.5C 457.485,335.191 452.152,342.858 452.5,354.5C 452.5,355.167 452.167,355.5 451.5,355.5C 450.432,354.566 449.099,354.232 447.5,354.5C 447.843,352.517 447.176,351.183 445.5,350.5C 446.436,338.871 446.77,327.204 446.5,315.5C 456.069,312.064 465.736,308.564 475.5,305C 481.27,301.723 486.603,297.89 491.5,293.5 Z M 470.5,334.5 C 468.952,334.179 468.285,333.179 468.5,331.5C 469.293,325.247 469.793,318.914 470,312.5C 476.833,317.333 483.667,322.167 490.5,327C 483.645,329.272 476.979,331.772 470.5,334.5 Z"/></g>
<g><path style="opacity:0.004" fill="#084f9f" d="M 86.5,314.5 C 85.8333,314.833 85.1667,315.167 84.5,315.5C 84.5,314.5 84.5,313.5 84.5,312.5C 85.1174,312.611 85.6174,312.944 86,313.5C 87.4131,310.339 89.0797,307.339 91,304.5C 90.3353,308.166 88.8353,311.5 86.5,314.5 Z"/></g>
<g><path style="opacity:1" fill="#f8beb8" d="M 443.5,314.5 C 444.391,315.11 445.391,315.443 446.5,315.5C 446.77,327.204 446.436,338.871 445.5,350.5C 445.167,352.5 444.833,354.5 444.5,356.5C 441.802,356.845 439.802,358.178 438.5,360.5C 436.847,360.66 435.514,361.326 434.5,362.5C 432.952,362.179 432.285,361.179 432.5,359.5C 434.821,356.638 435.987,353.305 436,349.5C 436.825,339.325 436.658,329.325 435.5,319.5C 438.088,317.842 440.755,316.175 443.5,314.5 Z"/></g>
<g><path style="opacity:1" fill="#0863cf" d="M 246.5,316.5 C 247.494,326.319 247.827,336.319 247.5,346.5C 245.901,346.232 244.568,346.566 243.5,347.5C 242.844,346.378 242.511,345.045 242.5,343.5C 243.407,334.292 244.74,325.292 246.5,316.5 Z"/></g>
<g><path style="opacity:0.325" fill="#0d1d27" d="M 348.5,280.5 C 346.518,280.995 344.518,281.495 342.5,282C 343.448,282.483 344.448,282.649 345.5,282.5C 345.5,294.833 345.5,307.167 345.5,319.5C 340.318,318.86 335.151,317.86 330,316.5C 327.032,316.815 324.698,318.148 323,320.5C 321.074,327.599 322.907,333.266 328.5,337.5C 325.892,337.6 323.558,336.933 321.5,335.5C 316.2,329.071 316.2,322.738 321.5,316.5C 326.328,314.252 331.328,313.918 336.5,315.5C 337.815,316.476 339.148,317.476 340.5,318.5C 341.333,305.513 341.833,292.513 342,279.5C 344.456,278.158 346.622,278.491 348.5,280.5 Z"/></g>
<g><path style="opacity:0.976" fill="#0d5096" d="M 79.5,317.5 C 80.4614,319.265 80.7947,321.265 80.5,323.5C 79.8333,323.5 79.5,323.833 79.5,324.5C 78.8333,324.5 78.5,324.167 78.5,323.5C 77.7878,321.072 76.7878,318.739 75.5,316.5C 75.8457,315.304 76.3457,315.304 77,316.5C 77.6667,317.833 78.3333,319.167 79,320.5C 79.4828,319.552 79.6495,318.552 79.5,317.5 Z"/></g>
<g><path style="opacity:0.759" fill="#324b5e" d="M 86.5,314.5 C 86.5,315.167 86.5,315.833 86.5,316.5C 85.2126,319.075 83.8793,321.741 82.5,324.5C 84.396,325.466 86.396,325.799 88.5,325.5C 89.1667,325.5 89.5,325.833 89.5,326.5C 87.5,328.833 85.5,331.167 83.5,333.5C 82.8333,333.5 82.1667,333.5 81.5,333.5C 82.2743,329.758 80.941,327.258 77.5,326C 78.4158,325.722 79.0825,325.222 79.5,324.5C 79.5,323.833 79.8333,323.5 80.5,323.5C 81.507,321.639 81.8404,318.972 81.5,315.5C 81.8333,315.5 82.1667,315.5 82.5,315.5C 82.638,319.286 83.3047,319.286 84.5,315.5C 85.1667,315.167 85.8333,314.833 86.5,314.5 Z M 82.5,326.5 C 83.8734,326.343 85.2068,326.51 86.5,327C 85,327.833 83.8333,329 83,330.5C 82.51,329.207 82.3433,327.873 82.5,326.5 Z"/></g>
<g><path style="opacity:0.998" fill="#0c1920" d="M 341.5,332.5 C 342.833,332.5 344.167,332.5 345.5,332.5C 345.5,343.5 345.5,354.5 345.5,365.5C 344.5,365.5 343.5,365.5 342.5,365.5C 342.784,363.585 342.451,361.919 341.5,360.5C 341.5,351.167 341.5,341.833 341.5,332.5 Z"/></g>
<g><path style="opacity:1" fill="#3d464a" d="M 468.5,331.5 C 468.285,333.179 468.952,334.179 470.5,334.5C 468.239,336.255 465.572,337.422 462.5,338C 456.628,342.218 454.628,347.718 456.5,354.5C 455.167,354.5 453.833,354.5 452.5,354.5C 452.152,342.858 457.485,335.191 468.5,331.5 Z"/></g>
<g><path style="opacity:1" fill="#034b9f" d="M 320.5,336.5 C 320.5,335.833 320.833,335.5 321.5,335.5C 323.558,336.933 325.892,337.6 328.5,337.5C 331.237,337.599 333.904,337.265 336.5,336.5C 336.5,337.5 336.5,338.5 336.5,339.5C 334.678,341.16 332.511,342.16 330,342.5C 326.188,341.521 323.021,339.521 320.5,336.5 Z"/></g>
<g><path style="opacity:0.984" fill="#1a2d34" d="M 81.5,333.5 C 82.1667,333.5 82.8333,333.5 83.5,333.5C 88.7351,335.45 94.4018,336.117 100.5,335.5C 100.5,337.833 100.5,340.167 100.5,342.5C 99.5,342.5 98.5,342.5 97.5,342.5C 96.1567,350.546 95.49,358.546 95.5,366.5C 86.9408,367.815 78.4408,367.815 70,366.5C 69.9512,358.507 69.1178,350.507 67.5,342.5C 66.1667,342.5 64.8333,342.5 63.5,342.5C 63.5,340.167 63.5,337.833 63.5,335.5C 69.9262,336.12 75.9262,335.453 81.5,333.5 Z"/></g>
<g><path style="opacity:1" fill="#177df7" d="M 132.5,345.5 C 140.167,345.5 147.833,345.5 155.5,345.5C 156.054,350.854 153.721,353.521 148.5,353.5C 145.663,351.598 142.329,350.931 138.5,351.5C 137.167,351.5 135.833,351.5 134.5,351.5C 132.926,349.898 132.259,347.898 132.5,345.5 Z"/></g>
<g><path style="opacity:1" fill="#097bf5" d="M 170.5,344.5 C 177.471,345.29 184.471,345.623 191.5,345.5C 192.833,347.5 192.833,349.5 191.5,351.5C 189.5,351.5 187.5,351.5 185.5,351.5C 183.833,351.5 182.167,351.5 180.5,351.5C 177.375,350.521 174.042,350.187 170.5,350.5C 169.978,348.648 169.978,346.648 170.5,344.5 Z"/></g>
<g><path style="opacity:0.165" fill="#375388" d="M 247.5,346.5 C 248.458,352.744 248.791,359.077 248.5,365.5C 247.508,365.672 246.842,365.338 246.5,364.5C 247.643,361.024 247.81,357.358 247,353.5C 245.644,352.62 244.144,352.286 242.5,352.5C 243.038,350.883 243.371,349.216 243.5,347.5C 244.568,346.566 245.901,346.232 247.5,346.5 Z"/></g>
<g><path style="opacity:1" fill="#087cf8" d="M 548.5,380.5 C 545.863,377.011 543.363,373.345 541,369.5C 538.987,367.752 536.82,366.418 534.5,365.5C 534.714,363.856 534.38,362.356 533.5,361C 534.804,360.196 535.471,359.029 535.5,357.5C 533.624,355.952 532.624,353.952 532.5,351.5C 535.114,350.193 537.78,348.86 540.5,347.5C 541.086,347.709 541.586,348.043 542,348.5C 545.03,358.593 547.864,368.76 550.5,379C 550.164,380.03 549.497,380.53 548.5,380.5 Z"/></g>
<g><path style="opacity:1" fill="#5a7eb9" d="M 170.5,350.5 C 174.042,350.187 177.375,350.521 180.5,351.5C 178.833,351.5 177.167,351.5 175.5,351.5C 175.5,352.833 175.5,354.167 175.5,355.5C 174.833,355.167 174.167,354.833 173.5,354.5C 173.5,353.5 173.5,352.5 173.5,351.5C 172.209,351.737 171.209,351.404 170.5,350.5 Z"/></g>
<g><path style="opacity:1" fill="#3e474a" d="M 486.5,350.5 C 489.984,349.835 493.651,349.501 497.5,349.5C 507.503,349.948 517.503,350.448 527.5,351C 522.38,351.954 517.213,352.454 512,352.5C 503.485,351.956 494.985,351.29 486.5,350.5 Z"/></g>
<g><path style="opacity:0.996" fill="#c2745f" d="M 180.5,351.5 C 182.167,351.5 183.833,351.5 185.5,351.5C 185.5,352.167 185.5,352.833 185.5,353.5C 185.092,354.643 184.425,355.643 183.5,356.5C 180.802,355.176 178.136,355.176 175.5,356.5C 175.5,356.167 175.5,355.833 175.5,355.5C 175.5,354.167 175.5,352.833 175.5,351.5C 177.167,351.5 178.833,351.5 180.5,351.5 Z"/></g>
<g><path style="opacity:1" fill="#ba7466" d="M 138.5,351.5 C 142.329,350.931 145.663,351.598 148.5,353.5C 148.5,353.833 148.5,354.167 148.5,354.5C 147.518,355.141 146.518,355.807 145.5,356.5C 143.298,355.22 141.132,355.22 139,356.5C 138.506,354.866 138.34,353.199 138.5,351.5 Z"/></g>
<g><path style="opacity:0.008" fill="#609ad1" d="M 185.5,351.5 C 187.5,351.5 189.5,351.5 191.5,351.5C 190.22,352.931 188.553,353.598 186.5,353.5C 186.167,353.5 185.833,353.5 185.5,353.5C 185.5,352.833 185.5,352.167 185.5,351.5 Z"/></g>
<g><path style="opacity:0.004" fill="#5d738c" d="M 173.5,354.5 C 172.833,355.167 172.833,355.167 173.5,354.5 Z"/></g>
<g><path style="opacity:0.997" fill="#1d2e38" d="M 242.5,352.5 C 244.144,352.286 245.644,352.62 247,353.5C 247.81,357.358 247.643,361.024 246.5,364.5C 242.315,366.609 239.315,365.609 237.5,361.5C 239.315,358.459 240.981,355.459 242.5,352.5 Z"/></g>
<g><path style="opacity:1" fill="#1b59a8" d="M 452.5,354.5 C 453.833,354.5 455.167,354.5 456.5,354.5C 457.441,356.772 458.774,358.772 460.5,360.5C 457.805,360.067 455.638,358.734 454,356.5C 453.309,358.891 452.309,358.891 451,356.5C 451.077,357.738 450.911,358.738 450.5,359.5C 448.518,358.377 446.518,358.377 444.5,359.5C 444.833,358.833 445.167,358.167 445.5,357.5C 447.5,356.833 449.5,356.167 451.5,355.5C 452.167,355.5 452.5,355.167 452.5,354.5 Z"/></g>
<g><path style="opacity:0.989" fill="#24353c" d="M 134.5,351.5 C 135.833,351.5 137.167,351.5 138.5,351.5C 138.34,353.199 138.506,354.866 139,356.5C 141.132,355.22 143.298,355.22 145.5,356.5C 146.518,355.807 147.518,355.141 148.5,354.5C 149.924,356.515 150.59,358.848 150.5,361.5C 155.493,362.314 157.493,365.147 156.5,370C 149.833,370.667 143.167,370.667 136.5,370C 135.643,369.311 134.977,368.478 134.5,367.5C 135.496,364.342 136.496,361.175 137.5,358C 137.137,355.491 136.137,353.324 134.5,351.5 Z"/></g>
<g><path style="opacity:0.976" fill="#213239" d="M 185.5,353.5 C 185.833,353.5 186.167,353.5 186.5,353.5C 186.674,355.861 187.007,358.194 187.5,360.5C 194.094,360.628 197.094,363.794 196.5,370C 188.833,370.667 181.167,370.667 173.5,370C 173.318,367.347 172.985,364.68 172.5,362C 173.869,360.281 174.869,358.448 175.5,356.5C 178.136,355.176 180.802,355.176 183.5,356.5C 184.425,355.643 185.092,354.643 185.5,353.5 Z"/></g>
<g><path style="opacity:1" fill="#283942" d="M 444.5,356.5 C 445.167,356.5 445.5,356.833 445.5,357.5C 445.167,358.167 444.833,358.833 444.5,359.5C 442.5,359.833 440.5,360.167 438.5,360.5C 439.802,358.178 441.802,356.845 444.5,356.5 Z"/></g>
<g><path style="opacity:1" fill="#107df7" d="M 460.5,360.5 C 463.018,361.264 465.351,362.264 467.5,363.5C 457.013,364.494 446.346,364.828 435.5,364.5C 434.662,364.158 434.328,363.492 434.5,362.5C 435.514,361.326 436.847,360.66 438.5,360.5C 440.5,360.167 442.5,359.833 444.5,359.5C 446.518,358.377 448.518,358.377 450.5,359.5C 450.911,358.738 451.077,357.738 451,356.5C 452.309,358.891 453.309,358.891 454,356.5C 455.638,358.734 457.805,360.067 460.5,360.5 Z"/></g>
<g><path style="opacity:0.433" fill="#62adf3" d="M 467.5,363.5 C 468.167,363.5 468.5,363.833 468.5,364.5C 468.586,365.496 468.252,366.329 467.5,367C 465.833,367.167 464.167,367.333 462.5,367.5C 453.52,366.652 444.52,366.319 435.5,366.5C 435.5,365.833 435.5,365.167 435.5,364.5C 446.346,364.828 457.013,364.494 467.5,363.5 Z"/></g>
<g><path style="opacity:0.671" fill="#8ac0fa" d="M 541.5,345.5 C 544.05,345.561 545.55,346.894 546,349.5C 548.611,358.497 551.111,367.497 553.5,376.5C 552.926,378.059 552.26,379.559 551.5,381C 550.251,381.74 549.251,381.573 548.5,380.5C 549.497,380.53 550.164,380.03 550.5,379C 547.864,368.76 545.03,358.593 542,348.5C 541.586,348.043 541.086,347.709 540.5,347.5C 537.78,348.86 535.114,350.193 532.5,351.5C 532.5,351.167 532.5,350.833 532.5,350.5C 535.331,348.583 538.331,346.917 541.5,345.5 Z"/></g>
</svg>
