<?xml version="1.0" encoding="UTF-8"?>
<!DOCTYPE svg PUBLIC "-//W3C//DTD SVG 1.1//EN" "http://www.w3.org/Graphics/SVG/1.1/DTD/svg11.dtd">
<svg xmlns="http://www.w3.org/2000/svg" version="1.1" width="612px" height="408px" style="shape-rendering:geometricPrecision; text-rendering:geometricPrecision; image-rendering:optimizeQuality; fill-rule:evenodd; clip-rule:evenodd" xmlns:xlink="http://www.w3.org/1999/xlink">
<g><path style="opacity:0.993" fill="#bfc4c7" d="M 441.5,85.5 C 440.768,86.8083 439.934,88.1416 439,89.5C 438.79,87.9419 438.29,86.6085 437.5,85.5C 394.833,85.5 352.167,85.5 309.5,85.5C 309.567,112.245 310.234,138.911 311.5,165.5C 308.098,165.658 304.764,165.324 301.5,164.5C 302.282,158.8 303.282,153.134 304.5,147.5C 304.665,143.818 304.499,140.152 304,136.5C 300.298,135.292 297.131,133.292 294.5,130.5C 294.227,118.129 294.56,105.796 295.5,93.5C 299.833,93.5 304.167,93.5 308.5,93.5C 308.5,90.8333 308.5,88.1667 308.5,85.5C 304.167,85.5 299.833,85.5 295.5,85.5C 245.167,85.5 194.833,85.5 144.5,85.5C 150.212,101.927 156.212,118.26 162.5,134.5C 166.08,134.97 166.747,136.304 164.5,138.5C 166.167,139.667 167.833,140.833 169.5,142C 168.426,142.739 167.759,143.739 167.5,145C 170.378,153.245 173.878,161.078 178,168.5C 178.171,160.323 178.671,152.323 179.5,144.5C 179.5,155.5 179.5,166.5 179.5,177.5C 178.833,177.833 178.167,178.167 177.5,178.5C 173.173,167.177 168.84,155.844 164.5,144.5C 164.131,142.559 163.464,140.725 162.5,139C 160.392,138.64 158.392,137.973 156.5,137C 157.899,136.405 159.232,136.572 160.5,137.5C 161.776,136.386 161.776,135.386 160.5,134.5C 154.773,120.047 148.773,105.714 142.5,91.5C 136.608,107.847 130.941,124.18 125.5,140.5C 126.718,130.61 128.385,120.943 130.5,111.5C 129.992,114.176 129.825,116.843 130,119.5C 133.614,108.161 137.114,96.8282 140.5,85.5C 139.167,85.5 137.833,85.5 136.5,85.5C 136.687,78.813 140.021,74.6463 146.5,73C 196.166,72.5 245.832,72.3333 295.5,72.5C 296.41,60.511 296.576,48.511 296,36.5C 289.649,27.0459 291.982,20.7126 303,17.5C 311.555,19.0504 314.888,24.0504 313,32.5C 312.047,34.4552 310.713,36.1218 309,37.5C 308.18,49.0762 308.346,60.5762 309.5,72C 358.5,72.3333 407.5,72.6667 456.5,73C 462.321,75.1431 465.321,79.3097 465.5,85.5C 457.5,85.5 449.5,85.5 441.5,85.5 Z"/></g>
<g><path style="opacity:1" fill="#c5dbfe" d="M 80.5,72.5 C 82.487,73.1642 84.1537,74.3308 85.5,76C 88.5,76.3333 91.5,76.6667 94.5,77C 96,81.1667 98.8333,84 103,85.5C 103.5,86.5 104,87.5 104.5,88.5C 103.515,90.0983 103.349,91.765 104,93.5C 108.422,97.2785 108.422,100.945 104,104.5C 103.313,106.568 103.48,108.568 104.5,110.5C 103.279,113.648 100.946,115.482 97.5,116C 96.6919,118.088 95.6919,120.088 94.5,122C 91.5,122.333 88.5,122.667 85.5,123C 82.5,126.333 79.5,126.333 76.5,123C 73.5,122.667 70.5,122.333 67.5,122C 65.6667,117.5 62.5,114.333 58,112.5C 58.043,107.778 56.8763,103.445 54.5,99.5C 54.8036,97.5595 55.6369,95.8928 57,94.5C 57.2565,91.443 57.7565,88.443 58.5,85.5C 62.9836,84.1818 65.9836,81.3485 67.5,77C 72.6112,77.3449 76.9446,75.8449 80.5,72.5 Z"/></g>
<g><path style="opacity:1" fill="#95befe" d="M 76.5,80.5 C 92.5136,80.6767 100.014,88.6767 99,104.5C 92.8509,117.326 83.3509,120.826 70.5,115C 59.5288,103.966 59.8621,93.2995 71.5,83C 73.3146,82.2432 74.9812,81.4098 76.5,80.5 Z"/></g>
<g><path style="opacity:1" fill="#85898a" d="M 295.5,85.5 C 299.833,85.5 304.167,85.5 308.5,85.5C 308.5,88.1667 308.5,90.8333 308.5,93.5C 304.167,93.5 299.833,93.5 295.5,93.5C 295.5,90.8333 295.5,88.1667 295.5,85.5 Z"/></g>
<g><path style="opacity:0.998" fill="#d5d9da" d="M 505.5,84.5 C 511.105,83.4141 515.605,85.0808 519,89.5C 521.185,88.2415 523.352,88.2415 525.5,89.5C 526.919,91.9585 527.919,94.6251 528.5,97.5C 536.114,101.417 536.448,105.917 529.5,111C 525.188,111.774 521.022,111.274 517,109.5C 512.626,114.18 507.459,115.347 501.5,113C 498.616,108.929 495.116,108.429 491,111.5C 485.778,110.778 483.278,107.778 483.5,102.5C 483.349,97.9669 485.349,94.8002 489.5,93C 493.211,92.8253 496.878,92.3253 500.5,91.5C 501.804,88.8699 503.47,86.5366 505.5,84.5 Z"/></g>
<g><path style="opacity:1" fill="#2281fd" d="M 130.5,111.5 C 128.385,120.943 126.718,130.61 125.5,140.5C 125.5,141.5 125.5,142.5 125.5,143.5C 124.533,144.806 123.199,145.473 121.5,145.5C 121.5,131.167 121.5,116.833 121.5,102.5C 121.414,101.504 121.748,100.671 122.5,100C 127.357,98.2472 130.357,99.7472 131.5,104.5C 130.777,106.782 130.443,109.116 130.5,111.5 Z"/></g>
<g><path style="opacity:0.989" fill="#d6e5fc" d="M 192.5,101.5 C 194.2,101.626 195.7,102.293 197,103.5C 200.854,102.211 204.687,101.877 208.5,102.5C 207.028,105.805 204.695,108.305 201.5,110C 203.473,110.495 205.473,110.662 207.5,110.5C 207.297,112.39 207.963,113.89 209.5,115C 203.962,115.235 198.629,116.402 193.5,118.5C 188.837,116.172 184.17,113.839 179.5,111.5C 178.167,110.833 178.167,110.167 179.5,109.5C 183.359,109.271 186.026,107.438 187.5,104C 189.315,103.243 190.981,102.41 192.5,101.5 Z"/></g>
<g><path style="opacity:0.611" fill="#83bbfb" d="M 121.5,102.5 C 121.5,116.833 121.5,131.167 121.5,145.5C 121.027,146.906 120.027,147.573 118.5,147.5C 118.783,146.711 119.283,146.044 120,145.5C 120.169,130.994 120.669,116.661 121.5,102.5 Z"/></g>
<g><path style="opacity:0.992" fill="#e9e9e9" d="M 390.5,115.5 C 393.983,114.916 396.983,115.749 399.5,118C 404.152,117.651 406.652,119.817 407,124.5C 411.181,125.914 412.347,128.58 410.5,132.5C 407.057,134.721 403.39,135.054 399.5,133.5C 394.631,137.461 389.798,137.461 385,133.5C 376.573,135.74 373.573,132.74 376,124.5C 379.497,122.161 383.331,120.494 387.5,119.5C 388.524,118.148 389.524,116.815 390.5,115.5 Z"/></g>
<g><path style="opacity:0.996" fill="#e8e8e8" d="M 553.5,114.5 C 557.106,115.305 560.106,117.138 562.5,120C 565.569,118.887 568.402,119.387 571,121.5C 571.186,123.9 571.686,126.234 572.5,128.5C 579.008,130.342 580.675,134.176 577.5,140C 576.167,140.667 574.833,141.333 573.5,142C 568.811,142.291 564.144,142.291 559.5,142C 557.578,143.876 555.411,145.376 553,146.5C 548.724,145.53 545.057,143.53 542,140.5C 534.025,144.694 529.192,142.361 527.5,133.5C 530.076,125.129 535.576,122.129 544,124.5C 546.022,119.98 549.189,116.647 553.5,114.5 Z"/></g>
<g><path style="opacity:0.858" fill="#cdd2d5" d="M 437.5,85.5 C 438.29,86.6085 438.79,87.9419 439,89.5C 439.934,88.1416 440.768,86.8083 441.5,85.5C 447.729,102.94 454.729,119.94 462.5,136.5C 467.33,152.662 473.33,168.329 480.5,183.5C 484.654,195.129 489.321,206.463 494.5,217.5C 495.487,222.296 496.987,226.963 499,231.5C 499.499,226.177 499.666,220.844 499.5,215.5C 500.805,221.463 500.805,228.13 499.5,235.5C 497.381,229.929 494.715,224.596 491.5,219.5C 487.599,207.451 482.932,195.784 477.5,184.5C 477.477,182.073 476.977,179.74 476,177.5C 470.759,164.574 465.259,151.908 459.5,139.5C 453.573,122.974 447.073,106.64 440,90.5C 433.405,110.119 426.905,129.786 420.5,149.5C 420.97,150.463 421.637,150.463 422.5,149.5C 418.212,155.047 416.546,161.381 417.5,168.5C 416.71,167.391 416.21,166.058 416,164.5C 415.5,166 415,167.5 414.5,169C 414.836,170.03 415.503,170.53 416.5,170.5C 412.928,172.413 410.928,175.413 410.5,179.5C 409.629,182.112 408.963,184.779 408.5,187.5C 406.75,191.183 406.083,195.183 406.5,199.5C 406.5,203.167 406.5,206.833 406.5,210.5C 406.5,213.833 406.5,217.167 406.5,220.5C 406.167,220.5 405.833,220.5 405.5,220.5C 405.666,213.492 405.5,206.492 405,199.5C 401.312,208.896 398.645,218.562 397,228.5C 395.909,230.718 394.743,232.884 393.5,235C 393.833,235.333 394.167,235.667 394.5,236C 392.147,239.442 390.98,243.275 391,247.5C 388.504,254.137 386.004,260.804 383.5,267.5C 384.908,268.243 386.241,269.077 387.5,270C 393.218,270.74 398.885,270.573 404.5,269.5C 404.5,270.167 404.5,270.833 404.5,271.5C 396.833,271.5 389.167,271.5 381.5,271.5C 381.5,273.833 381.5,276.167 381.5,278.5C 380.917,275.759 379.917,273.092 378.5,270.5C 387.751,242.208 397.084,213.875 406.5,185.5C 408.916,183.295 408.916,181.295 406.5,179.5C 407.172,178.733 408.005,178.066 409,177.5C 419.425,147.062 428.925,116.396 437.5,85.5 Z M 459.5,139.5 C 457.461,141.377 455.294,143.044 453,144.5C 441.782,140.647 431.615,142.314 422.5,149.5C 421.637,150.463 420.97,150.463 420.5,149.5C 426.905,129.786 433.405,110.119 440,90.5C 447.073,106.64 453.573,122.974 459.5,139.5 Z M 417.5,168.5 C 417.167,169.167 416.833,169.833 416.5,170.5C 415.503,170.53 414.836,170.03 414.5,169C 415,167.5 415.5,166 416,164.5C 416.21,166.058 416.71,167.391 417.5,168.5 Z"/></g>
<g><path style="opacity:1" fill="#23353b" d="M 294.5,130.5 C 297.131,133.292 300.298,135.292 304,136.5C 304.499,140.152 304.665,143.818 304.5,147.5C 301.788,146.013 299.621,146.679 298,149.5C 296.253,146.79 295.253,143.79 295,140.5C 293.53,138.848 291.697,137.848 289.5,137.5C 285.939,138.74 282.939,140.74 280.5,143.5C 277.964,144.671 276.631,143.671 276.5,140.5C 279.301,131.432 285.301,128.099 294.5,130.5 Z"/></g>
<g><path style="opacity:0.999" fill="#a8b0b2" d="M 480.5,183.5 C 473.33,168.329 467.33,152.662 462.5,136.5C 479.202,128.591 492.202,132.591 501.5,148.5C 514.627,143.897 522.627,148.397 525.5,162C 521.801,179.026 511.467,185.026 494.5,180C 492.99,179.15 491.49,178.317 490,177.5C 487.209,180.13 484.042,182.13 480.5,183.5 Z"/></g>
<g><path style="opacity:0.96" fill="#d0dff7" d="M 160.5,134.5 C 161.776,135.386 161.776,136.386 160.5,137.5C 159.232,136.572 157.899,136.405 156.5,137C 158.392,137.973 160.392,138.64 162.5,139C 163.464,140.725 164.131,142.559 164.5,144.5C 160.906,143.84 157.239,143.673 153.5,144C 151.166,141.162 148.166,139.329 144.5,138.5C 146.46,135.343 149.126,134.676 152.5,136.5C 155.349,136.036 158.016,135.369 160.5,134.5 Z"/></g>
<g><path style="opacity:0.991" fill="#e8e8e8" d="M 212.5,137.5 C 217.41,138.243 222.076,139.743 226.5,142C 227.227,143.399 227.727,144.899 228,146.5C 232.001,147.848 233.334,150.515 232,154.5C 228.918,157.361 225.418,158.027 221.5,156.5C 218.758,157.614 215.925,158.614 213,159.5C 211.029,159.532 209.529,158.698 208.5,157C 205.167,156.667 201.833,156.333 198.5,156C 194.677,151.089 195.677,147.089 201.5,144C 203.833,143.667 206.167,143.333 208.5,143C 209.665,141.008 210.998,139.175 212.5,137.5 Z"/></g>
<g><path style="opacity:1" fill="#f0af74" d="M 304.5,147.5 C 303.282,153.134 302.282,158.8 301.5,164.5C 299.188,166.146 297.188,168.146 295.5,170.5C 294.712,169.23 293.712,168.23 292.5,167.5C 292.5,166.167 292.5,164.833 292.5,163.5C 291.5,163.5 290.5,163.5 289.5,163.5C 286.012,162.857 283.512,160.857 282,157.5C 280.575,152.742 280.075,148.075 280.5,143.5C 282.939,140.74 285.939,138.74 289.5,137.5C 291.697,137.848 293.53,138.848 295,140.5C 295.253,143.79 296.253,146.79 298,149.5C 299.621,146.679 301.788,146.013 304.5,147.5 Z"/></g>
<g><path style="opacity:0.999" fill="#a8b0b2" d="M 459.5,139.5 C 465.259,151.908 470.759,164.574 476,177.5C 476.977,179.74 477.477,182.073 477.5,184.5C 465.102,187.388 455.935,183.054 450,171.5C 448.471,174.516 445.971,175.849 442.5,175.5C 438.667,174.92 435,173.753 431.5,172C 424.118,169.441 419.785,171.941 418.5,179.5C 415.833,179.5 413.167,179.5 410.5,179.5C 410.928,175.413 412.928,172.413 416.5,170.5C 416.833,169.833 417.167,169.167 417.5,168.5C 416.546,161.381 418.212,155.047 422.5,149.5C 431.615,142.314 441.782,140.647 453,144.5C 455.294,143.044 457.461,141.377 459.5,139.5 Z"/></g>
<g><path style="opacity:1" fill="#3c88fe" d="M 182.5,177.5 C 181.5,177.5 180.5,177.5 179.5,177.5C 179.5,166.5 179.5,155.5 179.5,144.5C 179.414,143.504 179.748,142.671 180.5,142C 182.441,141.257 184.274,141.424 186,142.5C 185.742,154.238 184.575,165.905 182.5,177.5 Z"/></g>
<g><path style="opacity:1" fill="#3260b0" d="M 125.5,143.5 C 126.043,146.038 127.043,148.372 128.5,150.5C 128.608,152.514 127.942,154.18 126.5,155.5C 125.545,161.409 125.211,167.409 125.5,173.5C 124.511,168.025 124.178,162.358 124.5,156.5C 123.167,156.5 121.833,156.5 120.5,156.5C 120.167,156.5 119.833,156.5 119.5,156.5C 118.833,156.5 118.5,156.167 118.5,155.5C 117.976,153.694 117.309,152.028 116.5,150.5C 116.932,149.29 117.599,148.29 118.5,147.5C 120.027,147.573 121.027,146.906 121.5,145.5C 123.199,145.473 124.533,144.806 125.5,143.5 Z"/></g>
<g><path style="opacity:1" fill="#3d423e" d="M 289.5,147.5 C 291.337,147.639 291.67,148.306 290.5,149.5C 289.702,149.043 289.369,148.376 289.5,147.5 Z"/></g>
<g><path style="opacity:1" fill="#408afe" d="M 116.5,150.5 C 117.309,152.028 117.976,153.694 118.5,155.5C 107.226,161.473 96.2256,167.973 85.5,175C 77.5,176 75.5,173 79.5,166C 91.8167,160.73 104.15,155.563 116.5,150.5 Z"/></g>
<g><path style="opacity:1" fill="#3b88fe" d="M 128.5,150.5 C 140.85,155.563 153.183,160.73 165.5,166C 169.352,169.142 169.352,172.142 165.5,175C 163.833,175.667 162.167,175.667 160.5,175C 150,168.918 139.666,162.584 129.5,156C 128.552,155.517 127.552,155.351 126.5,155.5C 127.942,154.18 128.608,152.514 128.5,150.5 Z"/></g>
<g><path style="opacity:0.181" fill="#f8f8f8" d="M 553.5,153.5 C 554.656,160.989 554.822,168.655 554,176.5C 553.296,174.722 552.796,172.888 552.5,171C 553.386,165.203 553.72,159.369 553.5,153.5 Z"/></g>
<g><path style="opacity:1" fill="#3b87fc" d="M 120.5,156.5 C 121.833,156.5 123.167,156.5 124.5,156.5C 124.178,162.358 124.511,168.025 125.5,173.5C 125.5,179.167 125.5,184.833 125.5,190.5C 123.5,191.833 121.5,191.833 119.5,190.5C 119.267,180.135 119.6,169.802 120.5,159.5C 120.5,158.5 120.5,157.5 120.5,156.5 Z"/></g>
<g><path style="opacity:0.999" fill="#d5d8d9" d="M 365.5,161.5 C 371.842,160.671 376.509,163.004 379.5,168.5C 387.727,165.718 391.06,168.718 389.5,177.5C 397.904,178.378 400.737,182.712 398,190.5C 391.653,195.085 384.82,195.751 377.5,192.5C 369.337,200.704 361.504,200.371 354,191.5C 344.453,196.809 338.62,194.142 336.5,183.5C 337.037,177.79 340.037,173.957 345.5,172C 349.225,171.24 352.892,171.407 356.5,172.5C 358.45,167.892 361.45,164.226 365.5,161.5 Z"/></g>
<g><path style="opacity:0.02" fill="#eeeff3" d="M 289.5,163.5 C 290.5,163.5 291.5,163.5 292.5,163.5C 292.5,164.833 292.5,166.167 292.5,167.5C 291.833,167.833 291.167,168.167 290.5,168.5C 290.539,167.417 290.873,166.417 291.5,165.5C 290.757,164.818 290.091,164.151 289.5,163.5 Z"/></g>
<g><path style="opacity:1" fill="#117dfc" d="M 301.5,164.5 C 304.764,165.324 308.098,165.658 311.5,165.5C 316.632,164.246 321.132,165.579 325,169.5C 328.787,177.404 332.287,185.404 335.5,193.5C 331.583,195.765 327.416,197.765 323,199.5C 323.078,201.995 323.578,204.495 324.5,207C 317.669,212.252 310.336,216.752 302.5,220.5C 298.445,220.176 294.445,220.509 290.5,221.5C 290.624,222.107 290.957,222.44 291.5,222.5C 292.901,222.971 294.234,223.638 295.5,224.5C 294.025,226.071 292.358,227.405 290.5,228.5C 289.566,227.432 289.232,226.099 289.5,224.5C 287.097,224.448 284.764,224.781 282.5,225.5C 282.331,220.819 281.998,216.152 281.5,211.5C 281.216,209.585 281.549,207.919 282.5,206.5C 284.55,206.961 286.55,207.628 288.5,208.5C 290.747,207.626 293.08,207.292 295.5,207.5C 295.244,205.088 296.244,203.421 298.5,202.5C 299.09,198.673 298.423,195.006 296.5,191.5C 293.601,189.854 290.601,189.188 287.5,189.5C 288.381,188.029 289.714,187.196 291.5,187C 288.956,185.225 288.956,183.392 291.5,181.5C 290.675,180.614 289.675,180.281 288.5,180.5C 288.5,179.167 288.5,177.833 288.5,176.5C 286.408,176.439 284.908,175.439 284,173.5C 281.544,174.15 279.21,175.15 277,176.5C 275.97,176.164 275.47,175.497 275.5,174.5C 276.058,173.21 277.058,172.377 278.5,172C 282.518,170.829 286.518,169.663 290.5,168.5C 291.167,168.167 291.833,167.833 292.5,167.5C 293.712,168.23 294.712,169.23 295.5,170.5C 297.188,168.146 299.188,166.146 301.5,164.5 Z"/></g>
<g><path style="opacity:1" fill="#124c9e" d="M 275.5,174.5 C 275.47,175.497 275.97,176.164 277,176.5C 279.21,175.15 281.544,174.15 284,173.5C 284.908,175.439 286.408,176.439 288.5,176.5C 288.5,177.833 288.5,179.167 288.5,180.5C 289.675,180.281 290.675,180.614 291.5,181.5C 288.956,183.392 288.956,185.225 291.5,187C 289.714,187.196 288.381,188.029 287.5,189.5C 290.601,189.188 293.601,189.854 296.5,191.5C 298.423,195.006 299.09,198.673 298.5,202.5C 296.244,203.421 295.244,205.088 295.5,207.5C 293.08,207.292 290.747,207.626 288.5,208.5C 286.55,207.628 284.55,206.961 282.5,206.5C 282.631,205.761 282.464,205.094 282,204.5C 279.636,207.318 276.803,209.318 273.5,210.5C 273.167,210.5 272.833,210.5 272.5,210.5C 269.753,209.027 268.919,206.694 270,203.5C 271.244,200.018 273.244,197.018 276,194.5C 277.59,192.35 278.257,190.017 278,187.5C 276.834,190.503 275.167,193.17 273,195.5C 272.527,193.221 271.527,191.221 270,189.5C 270.138,191.49 270.638,193.49 271.5,195.5C 271.297,197.208 270.464,198.541 269,199.5C 266.174,196.516 263.841,193.183 262,189.5C 261.333,190.5 261.333,191.5 262,192.5C 263.966,195.601 265.8,198.768 267.5,202C 267,203.5 266.5,205 266,206.5C 260.566,202.067 257.233,196.4 256,189.5C 255.667,190.833 255.333,192.167 255,193.5C 254.282,192.549 253.449,192.383 252.5,193C 255.033,194.033 256.699,195.867 257.5,198.5C 256.167,198.5 254.833,198.5 253.5,198.5C 259.841,202.005 264.174,207.172 266.5,214C 265.584,214.278 264.918,214.778 264.5,215.5C 259.489,216.802 256.489,214.802 255.5,209.5C 255.5,207.833 255.5,206.167 255.5,204.5C 253.901,204.232 252.568,204.566 251.5,205.5C 249.896,206.287 249.229,207.62 249.5,209.5C 245.743,209.727 242.243,210.06 239,210.5C 234.972,205.976 233.305,200.976 234,195.5C 234.915,193.02 236.415,192.353 238.5,193.5C 239.099,190.157 240.432,187.157 242.5,184.5C 244.585,185.647 246.085,184.98 247,182.5C 247.893,183.711 248.726,183.711 249.5,182.5C 250.695,181.033 250.695,179.533 249.5,178C 249.903,176.527 250.57,175.194 251.5,174C 253.515,173.576 255.349,172.742 257,171.5C 258.649,172.898 259.982,172.564 261,170.5C 263.78,172.798 266.78,174.798 270,176.5C 270.667,175.833 271.333,175.167 272,174.5C 273.145,175.684 274.312,175.684 275.5,174.5 Z"/></g>
<g><path style="opacity:0.561" fill="#bfc1c6" d="M 119.5,156.5 C 119.833,156.5 120.167,156.5 120.5,156.5C 120.5,157.5 120.5,158.5 120.5,159.5C 119.883,159.611 119.383,159.944 119,160.5C 116.999,168.669 114.499,176.669 111.5,184.5C 112.243,185.182 112.909,185.849 113.5,186.5C 112.5,186.5 111.5,186.5 110.5,186.5C 110.5,185.5 110.5,184.5 110.5,183.5C 108.265,183.795 106.265,183.461 104.5,182.5C 106.46,181.862 108.293,181.862 110,182.5C 112.692,173.585 115.859,164.918 119.5,156.5 Z"/></g>
<g><path style="opacity:1" fill="#1c51a2" d="M 179.5,177.5 C 180.5,177.5 181.5,177.5 182.5,177.5C 183.906,177.973 184.573,178.973 184.5,180.5C 184.5,181.833 184.5,183.167 184.5,184.5C 184.167,184.5 183.833,184.5 183.5,184.5C 182.833,184.5 182.5,184.833 182.5,185.5C 181.167,185.5 179.833,185.5 178.5,185.5C 177.833,185.167 177.167,184.833 176.5,184.5C 176.5,182.833 176.5,181.167 176.5,179.5C 176.5,178.833 176.833,178.5 177.5,178.5C 178.167,178.167 178.833,177.833 179.5,177.5 Z"/></g>
<g><path style="opacity:1" fill="#057cfb" d="M 410.5,179.5 C 413.167,179.5 415.833,179.5 418.5,179.5C 418.5,180.833 418.5,182.167 418.5,183.5C 415.251,185.028 411.918,186.361 408.5,187.5C 408.963,184.779 409.629,182.112 410.5,179.5 Z"/></g>
<g><path style="opacity:0.999" fill="#d5d9da" d="M 544.5,179.5 C 549.424,178.962 553.424,180.629 556.5,184.5C 562.5,183.167 564.833,185.5 563.5,191.5C 570.411,193.188 572.578,197.188 570,203.5C 564.985,207.141 559.652,207.474 554,204.5C 547.207,211.418 540.874,211.085 535,203.5C 529.505,207.878 524.839,207.212 521,201.5C 519.804,190.029 524.804,185.696 536,188.5C 537.829,186.844 539.163,184.844 540,182.5C 541.652,181.601 543.152,180.601 544.5,179.5 Z"/></g>
<g><path style="opacity:1" fill="#1965d0" d="M 104.5,182.5 C 106.265,183.461 108.265,183.795 110.5,183.5C 110.5,184.5 110.5,185.5 110.5,186.5C 111.5,186.5 112.5,186.5 113.5,186.5C 114.413,189.3 116.413,190.633 119.5,190.5C 121.5,191.833 123.5,191.833 125.5,190.5C 126.222,190.918 126.722,191.584 127,192.5C 128.213,189.219 130.213,188.886 133,191.5C 136.176,189.842 137.676,190.842 137.5,194.5C 141.753,194.566 142.42,196.066 139.5,199C 140.728,199.779 141.728,200.779 142.5,202C 140.542,204.149 140.209,206.482 141.5,209C 134.864,211.247 134.864,212.247 141.5,212C 142.333,214.167 143.833,215.667 146,216.5C 146.3,218.066 145.8,219.399 144.5,220.5C 143.25,220.577 142.417,221.244 142,222.5C 140.887,221.289 139.72,221.289 138.5,222.5C 137.784,221.689 136.95,221.022 136,220.5C 133.901,221.287 131.734,221.62 129.5,221.5C 129.5,222.5 129.5,223.5 129.5,224.5C 128.5,224.5 127.5,224.5 126.5,224.5C 125.635,216.534 125.302,208.534 125.5,200.5C 123.833,200.5 122.167,200.5 120.5,200.5C 120.666,208.84 120.5,217.173 120,225.5C 119.814,228.036 119.314,230.369 118.5,232.5C 116.612,231.725 114.612,231.725 112.5,232.5C 114.242,229.357 116.242,226.357 118.5,223.5C 118.333,223.167 118.167,222.833 118,222.5C 117.163,224.007 115.996,224.507 114.5,224C 115.523,220.788 117.19,217.954 119.5,215.5C 118.369,214.396 117.535,214.729 117,216.5C 116.808,214.423 116.308,212.423 115.5,210.5C 115.062,219.817 112.062,228.15 106.5,235.5C 104.826,233.651 103.826,231.484 103.5,229C 104.999,223.836 106.499,218.669 108,213.5C 108.667,211.833 108.667,210.167 108,208.5C 106.222,214.504 104.055,220.338 101.5,226C 99.7445,226.14 98.0778,225.64 96.5,224.5C 95.6229,221.175 95.4563,217.842 96,214.5C 94.7681,217.3 94.1015,220.3 94,223.5C 90.3333,221.167 87.3333,218.167 85,214.5C 84.8348,216.678 85.6682,218.511 87.5,220C 86.5842,220.278 85.9175,220.778 85.5,221.5C 84.5899,225.985 82.4232,226.652 79,223.5C 77.3845,224.801 75.8845,224.801 74.5,223.5C 73.791,222.596 72.791,222.263 71.5,222.5C 71.7148,220.821 71.0481,219.821 69.5,219.5C 70.0047,217.25 69.338,215.083 67.5,213C 69.1312,210.843 69.6312,208.343 69,205.5C 70.8555,201.83 73.1888,201.164 76,203.5C 77.1628,201.715 77.8295,199.715 78,197.5C 79.5,196.667 80.6667,195.5 81.5,194C 82.6716,193.647 83.8382,193.813 85,194.5C 86.8965,192.084 88.8965,192.084 91,194.5C 91.7065,192.919 92.5399,191.419 93.5,190C 92.8333,189.333 92.1667,188.667 91.5,188C 93.2281,186.054 95.0615,184.221 97,182.5C 99.6302,182.573 102.13,182.573 104.5,182.5 Z"/></g>
<g><path style="opacity:1" fill="#438cfd" d="M 176.5,179.5 C 176.5,181.167 176.5,182.833 176.5,184.5C 168.195,189.656 159.861,194.822 151.5,200C 146.017,200.508 144.35,198.175 146.5,193C 156.675,188.743 166.675,184.243 176.5,179.5 Z"/></g>
<g><path style="opacity:1" fill="#3f8bfe" d="M 184.5,180.5 C 194.378,184.104 204.045,188.27 213.5,193C 216.833,198 215.5,200.333 209.5,200C 201.103,194.808 192.769,189.642 184.5,184.5C 184.5,183.167 184.5,181.833 184.5,180.5 Z"/></g>
<g><path style="opacity:0.988" fill="#65a6f6" d="M 406.5,179.5 C 408.916,181.295 408.916,183.295 406.5,185.5C 406.5,183.5 406.5,181.5 406.5,179.5 Z"/></g>
<g><path style="opacity:1" fill="#054ba0" d="M 418.5,183.5 C 418.5,187.167 418.5,190.833 418.5,194.5C 414.266,195.617 410.266,197.284 406.5,199.5C 406.083,195.183 406.75,191.183 408.5,187.5C 411.918,186.361 415.251,185.028 418.5,183.5 Z"/></g>
<g><path style="opacity:1" fill="#1f81f9" d="M 178.5,185.5 C 179.833,185.5 181.167,185.5 182.5,185.5C 182.5,187.167 182.5,188.833 182.5,190.5C 182.5,195.833 182.5,201.167 182.5,206.5C 182.5,209.167 182.5,211.833 182.5,214.5C 181.167,214.5 179.833,214.5 178.5,214.5C 178.5,210.833 178.5,207.167 178.5,203.5C 178.5,197.5 178.5,191.5 178.5,185.5 Z"/></g>
<g><path style="opacity:0.97" fill="#e4e4e4" d="M 441.5,191.5 C 446.267,191.191 450.934,191.691 455.5,193C 457.456,196.595 457.956,200.428 457,204.5C 448.873,205.693 440.706,205.526 432.5,204C 431.409,201.936 431.242,199.769 432,197.5C 434.543,195.646 437.376,194.479 440.5,194C 441.252,193.329 441.586,192.496 441.5,191.5 Z"/></g>
<g><path style="opacity:1" fill="#273a46" d="M 272.5,210.5 C 271.537,211.363 271.537,212.03 272.5,212.5C 273.298,212.043 273.631,211.376 273.5,210.5C 276.803,209.318 279.636,207.318 282,204.5C 282.464,205.094 282.631,205.761 282.5,206.5C 281.549,207.919 281.216,209.585 281.5,211.5C 280.778,211.082 280.278,210.416 280,209.5C 277.667,211.833 275.333,214.167 273,216.5C 273.036,219.859 273.536,223.193 274.5,226.5C 272.343,227.407 270.01,228.073 267.5,228.5C 268.232,225.573 268.065,222.573 267,219.5C 266.878,217.563 266.045,216.23 264.5,215.5C 264.918,214.778 265.584,214.278 266.5,214C 264.174,207.172 259.841,202.005 253.5,198.5C 254.833,198.5 256.167,198.5 257.5,198.5C 256.699,195.867 255.033,194.033 252.5,193C 253.449,192.383 254.282,192.549 255,193.5C 255.333,192.167 255.667,190.833 256,189.5C 257.233,196.4 260.566,202.067 266,206.5C 266.5,205 267,203.5 267.5,202C 265.8,198.768 263.966,195.601 262,192.5C 261.333,191.5 261.333,190.5 262,189.5C 263.841,193.183 266.174,196.516 269,199.5C 270.464,198.541 271.297,197.208 271.5,195.5C 270.638,193.49 270.138,191.49 270,189.5C 271.527,191.221 272.527,193.221 273,195.5C 275.167,193.17 276.834,190.503 278,187.5C 278.257,190.017 277.59,192.35 276,194.5C 273.244,197.018 271.244,200.018 270,203.5C 268.919,206.694 269.753,209.027 272.5,210.5 Z M 272.5,210.5 C 272.833,210.5 273.167,210.5 273.5,210.5C 273.631,211.376 273.298,212.043 272.5,212.5C 271.537,212.03 271.537,211.363 272.5,210.5 Z"/></g>
<g><path style="opacity:1" fill="#f7b479" d="M 335.5,193.5 C 338.209,200.84 339.375,208.507 339,216.5C 335.324,218.027 332.49,220.36 330.5,223.5C 329.849,222.909 329.182,222.243 328.5,221.5C 315.353,225.407 303.353,231.407 292.5,239.5C 291.286,237.62 289.952,237.287 288.5,238.5C 285.09,236.963 284.59,234.629 287,231.5C 288.145,230.364 289.312,229.364 290.5,228.5C 292.358,227.405 294.025,226.071 295.5,224.5C 294.234,223.638 292.901,222.971 291.5,222.5C 295.167,221.833 298.833,221.167 302.5,220.5C 310.336,216.752 317.669,212.252 324.5,207C 323.578,204.495 323.078,201.995 323,199.5C 327.416,197.765 331.583,195.765 335.5,193.5 Z"/></g>
<g><path style="opacity:1" fill="#007bfb" d="M 418.5,194.5 C 418.823,198.226 418.489,201.893 417.5,205.5C 413.688,206.907 410.022,208.574 406.5,210.5C 406.5,206.833 406.5,203.167 406.5,199.5C 410.266,197.284 414.266,195.617 418.5,194.5 Z"/></g>
<g><path style="opacity:1" fill="#2080fc" d="M 126.5,224.5 C 126.753,226.827 126.086,228.827 124.5,230.5C 127.334,235.496 126.667,239.996 122.5,244C 122.645,244.772 122.978,245.439 123.5,246C 122.09,246.368 121.09,247.201 120.5,248.5C 122.086,250.173 122.753,252.173 122.5,254.5C 123.5,254.5 124.5,254.5 125.5,254.5C 125.229,256.38 125.896,257.713 127.5,258.5C 127.5,262.5 127.5,266.5 127.5,270.5C 123.958,270.813 120.625,270.479 117.5,269.5C 117.382,257.15 117.715,244.817 118.5,232.5C 119.314,230.369 119.814,228.036 120,225.5C 120.5,217.173 120.666,208.84 120.5,200.5C 122.167,200.5 123.833,200.5 125.5,200.5C 125.302,208.534 125.635,216.534 126.5,224.5 Z"/></g>
<g><path style="opacity:1" fill="#2e5baa" d="M 418.5,179.5 C 419.495,191.322 419.828,203.322 419.5,215.5C 415.066,216.883 410.733,218.549 406.5,220.5C 406.5,217.167 406.5,213.833 406.5,210.5C 410.022,208.574 413.688,206.907 417.5,205.5C 418.489,201.893 418.823,198.226 418.5,194.5C 418.5,190.833 418.5,187.167 418.5,183.5C 418.5,182.167 418.5,180.833 418.5,179.5 Z"/></g>
<g><path style="opacity:0.533" fill="#88a6cf" d="M 251.5,205.5 C 252.568,204.566 253.901,204.232 255.5,204.5C 255.5,206.167 255.5,207.833 255.5,209.5C 254.566,208.432 254.232,207.099 254.5,205.5C 253.5,205.5 252.5,205.5 251.5,205.5 Z"/></g>
<g><path style="opacity:0.275" fill="#a5c3ec" d="M 178.5,203.5 C 178.5,207.167 178.5,210.833 178.5,214.5C 178.5,215.833 178.5,217.167 178.5,218.5C 178.795,220.735 178.461,222.735 177.5,224.5C 176.5,224.5 175.5,224.5 174.5,224.5C 175.172,223.733 176.005,223.066 177,222.5C 177.172,215.987 177.672,209.653 178.5,203.5 Z"/></g>
<g><path style="opacity:1" fill="#f2b27a" d="M 281.5,211.5 C 281.998,216.152 282.331,220.819 282.5,225.5C 279.833,225.833 277.167,226.167 274.5,226.5C 273.536,223.193 273.036,219.859 273,216.5C 275.333,214.167 277.667,211.833 280,209.5C 280.278,210.416 280.778,211.082 281.5,211.5 Z"/></g>
<g><path style="opacity:1" fill="#174ea0" d="M 174.5,224.5 C 175.5,224.5 176.5,224.5 177.5,224.5C 179.511,226.633 181.178,228.966 182.5,231.5C 183.5,231.5 184.5,231.5 185.5,231.5C 188.858,232.866 189.525,234.699 187.5,237C 188.574,237.739 189.241,238.739 189.5,240C 189.299,242.992 187.966,245.825 185.5,248.5C 184.503,255.468 184.17,262.468 184.5,269.5C 184.5,270.167 184.167,270.5 183.5,270.5C 183.5,263.5 183.5,256.5 183.5,249.5C 181.388,248.725 179.388,248.725 177.5,249.5C 176.5,249.5 175.5,249.5 174.5,249.5C 173.415,246.706 171.582,246.039 169,247.5C 170.114,249.669 169.614,251.502 167.5,253C 167.957,253.414 168.291,253.914 168.5,254.5C 167.05,255.85 166.383,257.516 166.5,259.5C 164.119,260.42 161.786,260.42 159.5,259.5C 157.803,260.912 156.136,261.246 154.5,260.5C 154.5,259.833 154.5,259.167 154.5,258.5C 157.932,256.248 161.266,253.748 164.5,251C 160.807,251.755 157.307,253.255 154,255.5C 153.333,252.5 153.333,249.5 154,246.5C 156.527,243.061 159.527,240.061 163,237.5C 163.667,236.833 163.667,236.167 163,235.5C 161.667,236.833 160.333,238.167 159,239.5C 157.213,232.872 156.213,233.206 156,240.5C 155.586,240.957 155.086,241.291 154.5,241.5C 152.007,238.202 150.173,234.536 149,230.5C 149.134,235.199 150.3,239.699 152.5,244C 152.07,245.434 151.236,246.601 150,247.5C 146.424,242.775 144.424,237.442 144,231.5C 143.667,232.5 143.333,233.5 143,234.5C 142.667,234.167 142.333,233.833 142,233.5C 142.419,235.503 143.253,237.503 144.5,239.5C 144.333,239.833 144.167,240.167 144,240.5C 143,239.5 142,238.5 141,237.5C 140.833,237.833 140.667,238.167 140.5,238.5C 145.606,243.044 148.272,248.711 148.5,255.5C 147.508,255.328 146.842,255.662 146.5,256.5C 145.735,256.923 144.902,257.257 144,257.5C 142.606,256.387 141.439,255.053 140.5,253.5C 138.889,254.32 138.222,255.654 138.5,257.5C 135.106,258.402 131.773,258.735 128.5,258.5C 128.167,258.5 127.833,258.5 127.5,258.5C 125.896,257.713 125.229,256.38 125.5,254.5C 124.5,254.5 123.5,254.5 122.5,254.5C 122.753,252.173 122.086,250.173 120.5,248.5C 121.09,247.201 122.09,246.368 123.5,246C 122.978,245.439 122.645,244.772 122.5,244C 126.667,239.996 127.334,235.496 124.5,230.5C 126.086,228.827 126.753,226.827 126.5,224.5C 127.5,224.5 128.5,224.5 129.5,224.5C 129.5,223.5 129.5,222.5 129.5,221.5C 131.734,221.62 133.901,221.287 136,220.5C 136.95,221.022 137.784,221.689 138.5,222.5C 139.72,221.289 140.887,221.289 142,222.5C 142.417,221.244 143.25,220.577 144.5,220.5C 146.117,219.962 147.784,219.629 149.5,219.5C 149.5,218.5 149.5,217.5 149.5,216.5C 150.5,216.5 151.5,216.5 152.5,216.5C 152.5,215.5 152.5,214.5 152.5,213.5C 156.614,212.316 160.447,212.316 164,213.5C 165.326,214.799 166.66,216.132 168,217.5C 167.503,219.198 167.67,220.865 168.5,222.5C 169.533,223.452 170.7,223.452 172,222.5C 173.011,223.056 173.844,223.722 174.5,224.5 Z M 127.5,237.5 C 130.797,237.329 131.131,237.995 128.5,239.5C 127.702,239.043 127.369,238.376 127.5,237.5 Z"/></g>
<g><path style="opacity:0.997" fill="#00408d" d="M 178.5,214.5 C 179.833,214.5 181.167,214.5 182.5,214.5C 182.5,215.833 182.5,217.167 182.5,218.5C 181.167,218.5 179.833,218.5 178.5,218.5C 178.5,217.167 178.5,215.833 178.5,214.5 Z"/></g>
<g><path style="opacity:1" fill="#1a7ffd" d="M 476.5,215.5 C 476.176,219.555 476.509,223.555 477.5,227.5C 478.107,227.376 478.44,227.043 478.5,226.5C 482.639,223.928 486.973,221.595 491.5,219.5C 494.715,224.596 497.381,229.929 499.5,235.5C 499.5,247.167 499.5,258.833 499.5,270.5C 475.143,271.157 451.143,270.49 427.5,268.5C 427.806,260.743 427.472,253.076 426.5,245.5C 427.289,239.885 427.789,234.218 428,228.5C 436.333,223.833 444.667,219.167 453,214.5C 454.19,218.381 454.857,222.381 455,226.5C 462.103,222.527 469.27,218.86 476.5,215.5 Z M 436.5,243.5 C 436.5,243.167 436.5,242.833 436.5,242.5C 438.452,239.761 440.119,239.928 441.5,243C 440.119,246.072 438.452,246.239 436.5,243.5 Z M 445.5,240.5 C 449.161,240.35 450.161,241.85 448.5,245C 445.14,245.118 444.14,243.618 445.5,240.5 Z M 437.5,248.5 C 440.91,248.384 442.244,250.05 441.5,253.5C 437.065,254.078 435.732,252.411 437.5,248.5 Z M 445.5,248.5 C 448.91,248.384 450.244,250.05 449.5,253.5C 445.065,254.078 443.732,252.411 445.5,248.5 Z"/></g>
<g><path style="opacity:0.18" fill="#b1d5fe" d="M 476.5,215.5 C 477.167,219.167 477.833,222.833 478.5,226.5C 478.44,227.043 478.107,227.376 477.5,227.5C 476.509,223.555 476.176,219.555 476.5,215.5 Z"/></g>
<g><path style="opacity:1" fill="#007bfb" d="M 419.5,215.5 C 419.5,217.167 419.5,218.833 419.5,220.5C 419.5,222.5 419.5,224.5 419.5,226.5C 415.292,227.602 411.292,229.269 407.5,231.5C 406.511,227.893 406.177,224.226 406.5,220.5C 410.733,218.549 415.066,216.883 419.5,215.5 Z"/></g>
<g><path style="opacity:1" fill="#1a80fc" d="M 499.5,215.5 C 499.666,220.844 499.499,226.177 499,231.5C 496.987,226.963 495.487,222.296 494.5,217.5C 496.05,216.559 497.716,215.893 499.5,215.5 Z"/></g>
<g><path style="opacity:0.995" fill="#243843" d="M 112.5,232.5 C 108.904,243.845 107.571,255.512 108.5,267.5C 108.5,268.5 108.5,269.5 108.5,270.5C 105.833,270.5 103.167,270.5 100.5,270.5C 100.5,269.833 100.5,269.167 100.5,268.5C 100.666,263.156 100.499,257.823 100,252.5C 97.0498,250.613 94.2165,248.613 91.5,246.5C 91.1667,245.5 90.5,244.833 89.5,244.5C 88.8333,244.167 88.1667,243.833 87.5,243.5C 85.882,242.549 84.5487,241.216 83.5,239.5C 85.061,238.653 86.561,238.986 88,240.5C 88.2784,239.584 88.7784,238.918 89.5,238.5C 89.2627,239.791 89.596,240.791 90.5,241.5C 91.2905,242.401 92.2905,243.068 93.5,243.5C 95.9279,244.212 98.2612,245.212 100.5,246.5C 101.487,243.232 101.82,239.898 101.5,236.5C 99.9841,230.984 96.6507,226.984 91.5,224.5C 89.9468,222.615 87.9468,221.615 85.5,221.5C 85.9175,220.778 86.5842,220.278 87.5,220C 85.6682,218.511 84.8348,216.678 85,214.5C 87.3333,218.167 90.3333,221.167 94,223.5C 94.1015,220.3 94.7681,217.3 96,214.5C 95.4563,217.842 95.6229,221.175 96.5,224.5C 98.0778,225.64 99.7445,226.14 101.5,226C 104.055,220.338 106.222,214.504 108,208.5C 108.667,210.167 108.667,211.833 108,213.5C 106.499,218.669 104.999,223.836 103.5,229C 103.826,231.484 104.826,233.651 106.5,235.5C 112.062,228.15 115.062,219.817 115.5,210.5C 116.308,212.423 116.808,214.423 117,216.5C 117.535,214.729 118.369,214.396 119.5,215.5C 117.19,217.954 115.523,220.788 114.5,224C 115.996,224.507 117.163,224.007 118,222.5C 118.167,222.833 118.333,223.167 118.5,223.5C 116.242,226.357 114.242,229.357 112.5,232.5 Z"/></g>
<g><path style="opacity:1" fill="#007bfb" d="M 178.5,218.5 C 179.833,218.5 181.167,218.5 182.5,218.5C 182.5,222.833 182.5,227.167 182.5,231.5C 181.178,228.966 179.511,226.633 177.5,224.5C 178.461,222.735 178.795,220.735 178.5,218.5 Z"/></g>
<g><path style="opacity:1" fill="#a9a0a5" d="M 302.5,220.5 C 298.833,221.167 295.167,221.833 291.5,222.5C 290.957,222.44 290.624,222.107 290.5,221.5C 294.445,220.509 298.445,220.176 302.5,220.5 Z"/></g>
<g><path style="opacity:0.267" fill="#82ade6" d="M 69.5,219.5 C 71.0481,219.821 71.7148,220.821 71.5,222.5C 72.791,222.263 73.791,222.596 74.5,223.5C 73.1667,223.5 71.8333,223.5 70.5,223.5C 70.5674,222.041 70.2341,220.708 69.5,219.5 Z"/></g>
<g><path style="opacity:1" fill="#117dfc" d="M 330.5,223.5 C 331.715,229.46 332.715,235.46 333.5,241.5C 320.861,248.933 307.194,252.266 292.5,251.5C 291.791,250.596 290.791,250.263 289.5,250.5C 288.979,246.519 288.646,242.519 288.5,238.5C 289.952,237.287 291.286,237.62 292.5,239.5C 303.353,231.407 315.353,225.407 328.5,221.5C 329.182,222.243 329.849,222.909 330.5,223.5 Z"/></g>
<g><path style="opacity:0.541" fill="#8cbbf6" d="M 182.5,206.5 C 182.896,214.918 183.896,223.251 185.5,231.5C 184.5,231.5 183.5,231.5 182.5,231.5C 182.5,227.167 182.5,222.833 182.5,218.5C 182.5,217.167 182.5,215.833 182.5,214.5C 182.5,211.833 182.5,209.167 182.5,206.5 Z"/></g>
<g><path style="opacity:1" fill="#0d4fa3" d="M 405.5,220.5 C 405.833,220.5 406.167,220.5 406.5,220.5C 406.177,224.226 406.511,227.893 407.5,231.5C 411.292,229.269 415.292,227.602 419.5,226.5C 419.5,229.833 419.5,233.167 419.5,236.5C 414.829,238.503 410.162,240.503 405.5,242.5C 405.5,235.167 405.5,227.833 405.5,220.5 Z"/></g>
<g><path style="opacity:1" fill="#2f6dd3" d="M 89.5,238.5 C 88.7784,238.918 88.2784,239.584 88,240.5C 86.561,238.986 85.061,238.653 83.5,239.5C 84.5487,241.216 85.882,242.549 87.5,243.5C 86.2153,245.062 84.7153,246.396 83,247.5C 77.8909,247.706 74.0575,245.706 71.5,241.5C 72.3473,239.939 72.0139,238.439 70.5,237C 70.9449,233.147 72.6116,229.98 75.5,227.5C 78.5,226.167 81.5,226.167 84.5,227.5C 86.1667,229.167 87.8333,230.833 89.5,232.5C 89.5864,234.565 89.5864,236.565 89.5,238.5 Z"/></g>
<g><path style="opacity:1" fill="#336ece" d="M 91.5,224.5 C 96.6507,226.984 99.9841,230.984 101.5,236.5C 99.4352,236.483 97.4352,236.15 95.5,235.5C 94.8333,235.5 94.1667,235.5 93.5,235.5C 92.8333,231.833 92.1667,228.167 91.5,224.5 Z"/></g>
<g><path style="opacity:1" fill="#2066cf" d="M 290.5,228.5 C 289.312,229.364 288.145,230.364 287,231.5C 284.59,234.629 285.09,236.963 288.5,238.5C 288.646,242.519 288.979,246.519 289.5,250.5C 290.791,250.263 291.791,250.596 292.5,251.5C 289.659,251.44 286.993,250.774 284.5,249.5C 279.329,250.434 274.163,251.434 269,252.5C 267.358,252.022 266.191,251.022 265.5,249.5C 273.812,248.866 276.145,244.866 272.5,237.5C 268.498,237.964 264.831,237.298 261.5,235.5C 260.791,234.596 259.791,234.263 258.5,234.5C 258.034,232.799 258.034,231.299 258.5,230C 261.478,229.304 264.478,228.804 267.5,228.5C 270.01,228.073 272.343,227.407 274.5,226.5C 277.167,226.167 279.833,225.833 282.5,225.5C 284.764,224.781 287.097,224.448 289.5,224.5C 289.232,226.099 289.566,227.432 290.5,228.5 Z"/></g>
<g><path style="opacity:0.047" fill="#e7e4e6" d="M 258.5,234.5 C 259.791,234.263 260.791,234.596 261.5,235.5C 260.766,236.708 260.433,238.041 260.5,239.5C 259.691,237.972 259.024,236.306 258.5,234.5 Z"/></g>
<g><path style="opacity:1" fill="#f3b37b" d="M 261.5,235.5 C 264.831,237.298 268.498,237.964 272.5,237.5C 276.145,244.866 273.812,248.866 265.5,249.5C 262.325,247.008 260.659,243.674 260.5,239.5C 260.433,238.041 260.766,236.708 261.5,235.5 Z"/></g>
<g><path style="opacity:0.351" fill="#c4c4c4" d="M 93.5,235.5 C 94.1667,235.5 94.8333,235.5 95.5,235.5C 94.525,238.067 93.8583,240.733 93.5,243.5C 92.2905,243.068 91.2905,242.401 90.5,241.5C 91.8698,239.75 92.8698,237.75 93.5,235.5 Z"/></g>
<g><path style="opacity:1" fill="#007bfc" d="M 419.5,236.5 C 419.5,240.167 419.5,243.833 419.5,247.5C 414.829,249.503 410.162,251.503 405.5,253.5C 405.5,252.5 405.5,251.5 405.5,250.5C 405.5,247.833 405.5,245.167 405.5,242.5C 410.162,240.503 414.829,238.503 419.5,236.5 Z"/></g>
<g><path style="opacity:1" fill="#19303f" d="M 154.5,258.5 C 153.517,262.298 153.183,266.298 153.5,270.5C 152.167,270.5 150.833,270.5 149.5,270.5C 149.821,265.305 149.487,260.305 148.5,255.5C 148.272,248.711 145.606,243.044 140.5,238.5C 140.667,238.167 140.833,237.833 141,237.5C 142,238.5 143,239.5 144,240.5C 144.167,240.167 144.333,239.833 144.5,239.5C 143.253,237.503 142.419,235.503 142,233.5C 142.333,233.833 142.667,234.167 143,234.5C 143.333,233.5 143.667,232.5 144,231.5C 144.424,237.442 146.424,242.775 150,247.5C 151.236,246.601 152.07,245.434 152.5,244C 150.3,239.699 149.134,235.199 149,230.5C 150.173,234.536 152.007,238.202 154.5,241.5C 155.086,241.291 155.586,240.957 156,240.5C 156.213,233.206 157.213,232.872 159,239.5C 160.333,238.167 161.667,236.833 163,235.5C 163.667,236.167 163.667,236.833 163,237.5C 159.527,240.061 156.527,243.061 154,246.5C 153.333,249.5 153.333,252.5 154,255.5C 157.307,253.255 160.807,251.755 164.5,251C 161.266,253.748 157.932,256.248 154.5,258.5 Z"/></g>
<g><path style="opacity:0.859" fill="#77a6fa" d="M 436.5,243.5 C 438.452,246.239 440.119,246.072 441.5,243C 440.119,239.928 438.452,239.761 436.5,242.5C 436.5,241.5 436.5,240.5 436.5,239.5C 442.158,238.679 443.825,240.846 441.5,246C 439.866,246.494 438.199,246.66 436.5,246.5C 436.5,245.5 436.5,244.5 436.5,243.5 Z"/></g>
<g><path style="opacity:1" fill="#e2e3e4" d="M 457.5,240.5 C 459.167,240.5 460.833,240.5 462.5,240.5C 462.5,242.167 462.5,243.833 462.5,245.5C 460.833,245.5 459.167,245.5 457.5,245.5C 457.5,243.833 457.5,242.167 457.5,240.5 Z"/></g>
<g><path style="opacity:1" fill="#dde1e5" d="M 465.5,240.5 C 467.167,240.5 468.833,240.5 470.5,240.5C 470.5,242.167 470.5,243.833 470.5,245.5C 468.833,245.5 467.167,245.5 465.5,245.5C 465.5,243.833 465.5,242.167 465.5,240.5 Z"/></g>
<g><path style="opacity:0.514" fill="#d1dae8" d="M 477.5,240.5 C 479.5,240.5 481.5,240.5 483.5,240.5C 483.5,242.167 483.5,243.833 483.5,245.5C 481.5,245.5 479.5,245.5 477.5,245.5C 477.5,243.833 477.5,242.167 477.5,240.5 Z"/></g>
<g><path style="opacity:0.098" fill="#dbdfe5" d="M 485.5,240.5 C 487.167,240.5 488.833,240.5 490.5,240.5C 490.5,242.167 490.5,243.833 490.5,245.5C 488.833,245.5 487.167,245.5 485.5,245.5C 485.5,243.833 485.5,242.167 485.5,240.5 Z"/></g>
<g><path style="opacity:0.999" fill="#20333a" d="M 333.5,241.5 C 334.181,282.176 333.514,322.843 331.5,363.5C 331.471,366.269 330.805,368.603 329.5,370.5C 326.5,370.5 323.5,370.5 320.5,370.5C 319.5,370.5 318.5,370.5 317.5,370.5C 315.098,343.203 312.931,315.869 311,288.5C 310.291,281.451 309.291,274.451 308,267.5C 303.469,280.092 299.136,292.759 295,305.5C 289.47,326.956 283.637,348.289 277.5,369.5C 273.833,368.833 270.167,368.167 266.5,367.5C 265.5,367.5 264.5,367.5 263.5,367.5C 269.015,327.892 276.015,288.559 284.5,249.5C 286.993,250.774 289.659,251.44 292.5,251.5C 307.194,252.266 320.861,248.933 333.5,241.5 Z"/></g>
<g><path style="opacity:1" fill="#014a9f" d="M 419.5,247.5 C 419.198,250.059 419.532,252.393 420.5,254.5C 420.5,255.5 420.5,256.5 420.5,257.5C 415.5,259.5 410.5,261.5 405.5,263.5C 405.5,260.167 405.5,256.833 405.5,253.5C 410.162,251.503 414.829,249.503 419.5,247.5 Z"/></g>
<g><path style="opacity:1" fill="#e1e2e3" d="M 457.5,248.5 C 459.167,248.5 460.833,248.5 462.5,248.5C 462.5,250.167 462.5,251.833 462.5,253.5C 460.833,253.5 459.167,253.5 457.5,253.5C 457.5,251.833 457.5,250.167 457.5,248.5 Z"/></g>
<g><path style="opacity:1" fill="#dce0e5" d="M 465.5,248.5 C 467.167,248.5 468.833,248.5 470.5,248.5C 470.5,250.167 470.5,251.833 470.5,253.5C 468.833,253.5 467.167,253.5 465.5,253.5C 465.5,251.833 465.5,250.167 465.5,248.5 Z"/></g>
<g><path style="opacity:0.953" fill="#d0dae7" d="M 477.5,248.5 C 479.5,248.5 481.5,248.5 483.5,248.5C 483.5,250.167 483.5,251.833 483.5,253.5C 481.5,253.5 479.5,253.5 477.5,253.5C 477.5,251.833 477.5,250.167 477.5,248.5 Z"/></g>
<g><path style="opacity:0.094" fill="#dadee4" d="M 485.5,248.5 C 487.167,248.5 488.833,248.5 490.5,248.5C 490.5,250.167 490.5,251.833 490.5,253.5C 488.833,253.5 487.167,253.5 485.5,253.5C 485.5,251.833 485.5,250.167 485.5,248.5 Z"/></g>
<g><path style="opacity:1" fill="#007cfd" d="M 183.5,270.5 C 180.612,271.01 178.279,270.344 176.5,268.5C 176.5,267.833 176.5,267.167 176.5,266.5C 177.489,261.025 177.822,255.358 177.5,249.5C 179.388,248.725 181.388,248.725 183.5,249.5C 183.5,256.5 183.5,263.5 183.5,270.5 Z"/></g>
<g><path style="opacity:0.973" fill="#7fa1d4" d="M 419.5,220.5 C 420.187,231.372 420.854,242.372 421.5,253.5C 421.376,254.107 421.043,254.44 420.5,254.5C 419.532,252.393 419.198,250.059 419.5,247.5C 419.5,243.833 419.5,240.167 419.5,236.5C 419.5,233.167 419.5,229.833 419.5,226.5C 419.5,224.5 419.5,222.5 419.5,220.5 Z"/></g>
<g><path style="opacity:1" fill="#007cfc" d="M 420.5,257.5 C 420.5,258.167 420.5,258.833 420.5,259.5C 420.5,263.167 420.5,266.833 420.5,270.5C 415.5,270.5 410.5,270.5 405.5,270.5C 405.5,268.167 405.5,265.833 405.5,263.5C 410.5,261.5 415.5,259.5 420.5,257.5 Z"/></g>
<g><path style="opacity:0.988" fill="#e3e3e3" d="M 89.5,244.5 C 90.5,244.833 91.1667,245.5 91.5,246.5C 90.2042,253.221 88.2042,259.721 85.5,266C 87.3016,267.827 89.4682,268.994 92,269.5C 94.8774,268.867 97.7108,268.533 100.5,268.5C 100.5,269.167 100.5,269.833 100.5,270.5C 95.1667,270.5 89.8333,270.5 84.5,270.5C 84.6567,269.127 84.49,267.793 84,266.5C 82.4297,268.61 81.263,270.943 80.5,273.5C 83.4669,289.775 92.1336,301.775 106.5,309.5C 103.417,308.934 100.417,308.934 97.5,309.5C 94.3599,309.054 91.6932,307.721 89.5,305.5C 88.1667,306.5 86.8333,307.5 85.5,308.5C 82.0922,307.106 78.7589,307.272 75.5,309C 74.6146,316.442 74.4479,323.942 75,331.5C 73.2739,332.576 71.4406,332.743 69.5,332C 68.6871,325.581 68.1871,319.081 68,312.5C 64.9683,311.908 62.3016,310.574 60,308.5C 59.0807,305.222 57.9141,302.055 56.5,299C 56.8333,298.667 57.1667,298.333 57.5,298C 56.5838,297.626 55.7504,297.126 55,296.5C 53.3526,298.186 51.5193,299.52 49.5,300.5C 45.4629,300.095 41.6296,299.095 38,297.5C 36.4941,292.254 36.1608,286.921 37,281.5C 38.8484,278.959 41.3484,277.959 44.5,278.5C 44.6423,275.383 45.9756,272.883 48.5,271C 51.8333,270.333 55.1667,269.667 58.5,269C 58.0761,265.02 59.7427,261.853 63.5,259.5C 65.1639,260.223 66.8306,259.89 68.5,258.5C 70.7759,259.213 73.1093,259.713 75.5,260C 77.7122,262.043 79.7122,264.209 81.5,266.5C 85.5504,259.683 88.2171,252.35 89.5,244.5 Z"/></g>
<g><path style="opacity:0.945" fill="#5ea2f9" d="M 174.5,249.5 C 175.5,249.5 176.5,249.5 177.5,249.5C 177.822,255.358 177.489,261.025 176.5,266.5C 176.036,263.744 176.036,260.744 176.5,257.5C 176.379,254.559 175.713,251.892 174.5,249.5 Z"/></g>
<g><path style="opacity:1" fill="#bdc2c5" d="M 183.5,184.5 C 194.554,212.82 205.721,241.153 217,269.5C 217.863,277.383 216.196,284.716 212,291.5C 198.65,308.428 181.15,317.928 159.5,320C 140.59,322.075 122.924,318.575 106.5,309.5C 92.1336,301.775 83.4669,289.775 80.5,273.5C 81.263,270.943 82.4297,268.61 84,266.5C 84.49,267.793 84.6567,269.127 84.5,270.5C 89.8333,270.5 95.1667,270.5 100.5,270.5C 103.167,270.5 105.833,270.5 108.5,270.5C 108.5,269.5 108.5,268.5 108.5,267.5C 111.142,269.911 114.142,270.578 117.5,269.5C 120.625,270.479 123.958,270.813 127.5,270.5C 127.5,266.5 127.5,262.5 127.5,258.5C 127.833,258.5 128.167,258.5 128.5,258.5C 128.207,262.437 128.54,266.27 129.5,270C 134.67,269.336 139.837,269.503 145,270.5C 145.873,270.265 146.707,269.931 147.5,269.5C 147.833,267.333 148.167,265.167 148.5,263C 148.467,260.39 147.8,258.223 146.5,256.5C 146.842,255.662 147.508,255.328 148.5,255.5C 149.487,260.305 149.821,265.305 149.5,270.5C 150.833,270.5 152.167,270.5 153.5,270.5C 153.183,266.298 153.517,262.298 154.5,258.5C 154.5,259.167 154.5,259.833 154.5,260.5C 154.337,262.857 154.503,265.19 155,267.5C 156.613,266.378 157.78,266.878 158.5,269C 164.69,271.142 170.69,270.976 176.5,268.5C 178.279,270.344 180.612,271.01 183.5,270.5C 184.167,270.5 184.5,270.167 184.5,269.5C 194.084,270.473 203.75,270.806 213.5,270.5C 211.999,262.167 208.832,254.5 204,247.5C 201.678,245.888 199.178,244.555 196.5,243.5C 198.5,242.167 200.5,240.833 202.5,239.5C 195.807,223.067 189.14,206.733 182.5,190.5C 182.5,188.833 182.5,187.167 182.5,185.5C 182.5,184.833 182.833,184.5 183.5,184.5 Z"/></g>
<g><path style="opacity:1" fill="#84addd" d="M 405.5,250.5 C 405.5,251.5 405.5,252.5 405.5,253.5C 405.5,256.833 405.5,260.167 405.5,263.5C 405.5,265.833 405.5,268.167 405.5,270.5C 410.5,270.5 415.5,270.5 420.5,270.5C 415.36,271.488 410.026,271.821 404.5,271.5C 404.5,270.833 404.5,270.167 404.5,269.5C 404.177,262.978 404.51,256.645 405.5,250.5 Z"/></g>
<g><path style="opacity:0.999" fill="#bdc2c6" d="M 499.5,235.5 C 501.627,239.071 503.794,242.738 506,246.5C 508.692,254.882 512.192,262.882 516.5,270.5C 517.192,281.145 513.859,290.478 506.5,298.5C 486.952,316.311 463.952,323.477 437.5,320C 416.204,317.65 399.038,308.15 386,291.5C 383.798,287.394 382.298,283.06 381.5,278.5C 381.5,276.167 381.5,273.833 381.5,271.5C 389.167,271.5 396.833,271.5 404.5,271.5C 410.026,271.821 415.36,271.488 420.5,270.5C 420.5,266.833 420.5,263.167 420.5,259.5C 421.319,262.305 421.819,265.305 422,268.5C 423.828,269.752 425.661,269.752 427.5,268.5C 451.143,270.49 475.143,271.157 499.5,270.5C 499.5,258.833 499.5,247.167 499.5,235.5 Z M 506.5,264.5 C 509.172,264.828 510.839,266.328 511.5,269C 509.893,268.981 508.226,268.815 506.5,268.5C 506.5,267.167 506.5,265.833 506.5,264.5 Z M 506.5,258.5 C 508.368,259.786 508.534,261.119 507,262.5C 506.51,261.207 506.343,259.873 506.5,258.5 Z M 500.5,240.5 C 501.679,245.389 503.345,250.222 505.5,255C 505.323,258.776 505.323,262.609 505.5,266.5C 504.638,268.767 502.971,269.767 500.5,269.5C 500.5,259.833 500.5,250.167 500.5,240.5 Z"/></g>
<g><path style="opacity:1" fill="#2e82f8" d="M 377.5,373.5 C 377.795,375.735 377.461,377.735 376.5,379.5C 370.133,374.439 365.467,368.106 362.5,360.5C 363.144,357.136 365.144,355.969 368.5,357C 373.282,361.501 376.282,367.001 377.5,373.5 Z"/></g>
<g><path style="opacity:1" fill="#4289fa" d="M 380.5,378.5 C 379.549,377.081 379.216,375.415 379.5,373.5C 380.541,367.282 384.041,362.949 390,360.5C 390.772,360.645 391.439,360.978 392,361.5C 391.66,369.37 387.826,375.037 380.5,378.5 Z"/></g>
<g><path style="opacity:0.66" fill="#dca87a" d="M 266.5,367.5 C 270.167,368.167 273.833,368.833 277.5,369.5C 276.233,371.039 275.233,372.706 274.5,374.5C 274.631,373.624 274.298,372.957 273.5,372.5C 271.929,373.309 270.262,373.643 268.5,373.5C 268.715,371.821 268.048,370.821 266.5,370.5C 266.5,369.5 266.5,368.5 266.5,367.5 Z"/></g>
<g><path style="opacity:0.998" fill="#2a3d44" d="M 266.5,370.5 C 268.048,370.821 268.715,371.821 268.5,373.5C 270.262,373.643 271.929,373.309 273.5,372.5C 274.298,372.957 274.631,373.624 274.5,374.5C 274.74,377.579 274.407,380.579 273.5,383.5C 265.862,384.497 258.196,384.831 250.5,384.5C 250.421,383.07 250.754,381.736 251.5,380.5C 257.497,378.358 262.497,375.025 266.5,370.5 Z"/></g>
<g><path style="opacity:0.999" fill="#243844" d="M 328.5,372.5 C 328.776,375.719 330.109,378.385 332.5,380.5C 330.952,381.794 328.952,382.461 326.5,382.5C 324.048,382.461 322.048,381.794 320.5,380.5C 320.833,378.5 321.167,376.5 321.5,374.5C 322.626,373.286 323.959,372.286 325.5,371.5C 326.584,371.685 327.584,372.018 328.5,372.5 Z"/></g>
<g><path style="opacity:0.141" fill="#d5a981" d="M 320.5,370.5 C 323.5,370.5 326.5,370.5 329.5,370.5C 329.672,371.492 329.338,372.158 328.5,372.5C 327.584,372.018 326.584,371.685 325.5,371.5C 323.959,372.286 322.626,373.286 321.5,374.5C 321.567,373.041 321.234,371.708 320.5,370.5 Z"/></g>
<g><path style="opacity:0.78" fill="#6b9bd6" d="M 377.5,373.5 C 378.167,373.5 378.833,373.5 379.5,373.5C 379.216,375.415 379.549,377.081 380.5,378.5C 379.295,380.138 377.962,380.471 376.5,379.5C 377.461,377.735 377.795,375.735 377.5,373.5 Z"/></g>
<g><path style="opacity:0.742" fill="#5a686d" d="M 320.5,380.5 C 322.048,381.794 324.048,382.461 326.5,382.5C 328.952,382.461 330.952,381.794 332.5,380.5C 333.434,381.568 333.768,382.901 333.5,384.5C 328.833,384.5 324.167,384.5 319.5,384.5C 319.232,382.901 319.566,381.568 320.5,380.5 Z"/></g>
</svg>
