<?xml version="1.0" encoding="UTF-8"?>
<!DOCTYPE svg PUBLIC "-//W3C//DTD SVG 1.1//EN" "http://www.w3.org/Graphics/SVG/1.1/DTD/svg11.dtd">
<svg xmlns="http://www.w3.org/2000/svg" version="1.1" width="500px" height="500px" style="shape-rendering:geometricPrecision; text-rendering:geometricPrecision; image-rendering:optimizeQuality; fill-rule:evenodd; clip-rule:evenodd" xmlns:xlink="http://www.w3.org/1999/xlink">
<g><path style="opacity:1" fill="#22343b" d="M 157.5,113.5 C 158.105,115.481 159.105,115.815 160.5,114.5C 161.734,117.465 161.734,120.465 160.5,123.5C 159.661,124.641 158.994,125.974 158.5,127.5C 152.625,128.971 151.958,131.805 156.5,136C 154.204,140.483 150.537,142.983 145.5,143.5C 138.977,140.978 134.977,136.311 133.5,129.5C 135.305,126.557 134.638,124.723 131.5,124C 134.06,123.773 135.726,122.44 136.5,120C 140.284,118.053 144.284,116.72 148.5,116C 150.917,112.802 153.917,111.969 157.5,113.5 Z"/></g>
<g><path style="opacity:1" fill="#939c9f" d="M 160.5,114.5 C 159.105,115.815 158.105,115.481 157.5,113.5C 158.779,112.285 159.779,112.618 160.5,114.5 Z"/></g>
<g><path style="opacity:0.999" fill="#f5c2bd" d="M 160.5,123.5 C 162.711,126.913 164.711,130.579 166.5,134.5C 165.253,141.067 161.586,145.4 155.5,147.5C 155.5,148.833 155.5,150.167 155.5,151.5C 157.099,151.232 158.432,151.566 159.5,152.5C 154.5,152.5 149.5,152.5 144.5,152.5C 145.299,149.57 145.632,146.57 145.5,143.5C 150.537,142.983 154.204,140.483 156.5,136C 151.958,131.805 152.625,128.971 158.5,127.5C 158.994,125.974 159.661,124.641 160.5,123.5 Z"/></g>
<g><path style="opacity:1" fill="#283a41" d="M 303.5,132.5 C 289.5,132.5 275.5,132.5 261.5,132.5C 263.612,129.937 266.279,128.104 269.5,127C 278.5,126.333 287.5,126.333 296.5,127C 299.634,127.89 301.967,129.724 303.5,132.5 Z"/></g>
<g><path style="opacity:1" fill="#2c80f5" d="M 261.5,132.5 C 275.5,132.5 289.5,132.5 303.5,132.5C 333.338,132.169 363.005,132.502 392.5,133.5C 393.217,144.456 393.217,155.456 392.5,166.5C 390.29,202.049 387.957,237.715 385.5,273.5C 357.907,274.491 330.241,274.824 302.5,274.5C 300.167,274.5 297.833,274.5 295.5,274.5C 289.167,274.5 282.833,274.5 276.5,274.5C 274.167,274.5 271.833,274.5 269.5,274.5C 237.167,274.5 204.833,274.5 172.5,274.5C 172.5,272.833 172.5,271.167 172.5,269.5C 242.167,269.667 311.834,269.5 381.5,269C 382.468,261.902 383.302,254.735 384,247.5C 385.513,212.983 387.346,178.483 389.5,144C 389.464,141.906 389.131,139.906 388.5,138C 317.167,137.333 245.833,137.333 174.5,138C 174,138.5 173.5,139 173,139.5C 172.501,145.491 172.334,151.491 172.5,157.5C 170.901,157.768 169.568,157.434 168.5,156.5C 168.334,149.492 168.5,142.492 169,135.5C 169.903,134.299 171.069,133.465 172.5,133C 202.165,132.5 231.831,132.333 261.5,132.5 Z M 254.5,151.5 C 254.628,153.655 254.128,155.655 253,157.5C 252.517,156.552 252.351,155.552 252.5,154.5C 252.285,152.821 252.952,151.821 254.5,151.5 Z"/></g>
<g><path style="opacity:1" fill="#085db4" d="M 172.5,269.5 C 172.83,253.325 172.496,237.325 171.5,221.5C 173.269,211.941 174.102,202.275 174,192.5C 164.902,182.846 165.569,181.512 176,188.5C 176.383,187.944 176.883,187.611 177.5,187.5C 181.675,190.835 186.008,194.002 190.5,197C 192.5,197.667 194.5,197.667 196.5,197C 198.407,195.878 200.407,195.045 202.5,194.5C 202.97,195.693 203.97,196.36 205.5,196.5C 210.007,196.976 214.34,197.643 218.5,198.5C 217.167,198.5 215.833,198.5 214.5,198.5C 214.5,201.833 214.5,205.167 214.5,208.5C 222.833,208.5 231.167,208.5 239.5,208.5C 239.5,207.167 239.5,205.833 239.5,204.5C 240.947,205.134 241.613,206.301 241.5,208C 239.811,226.926 238.811,245.76 238.5,264.5C 240.279,258.274 241.279,251.94 241.5,245.5C 243.167,245.5 244.833,245.5 246.5,245.5C 247.833,245.5 249.167,245.5 250.5,245.5C 250.5,250.167 250.5,254.833 250.5,259.5C 254.767,259.797 258.934,259.464 263,258.5C 263.499,254.179 263.666,249.846 263.5,245.5C 262.5,245.5 261.5,245.5 260.5,245.5C 263.725,244.763 267.059,244.097 270.5,243.5C 270.167,248.833 269.833,254.167 269.5,259.5C 273.833,259.5 278.167,259.5 282.5,259.5C 282.644,252.61 282.644,245.943 282.5,239.5C 284.849,237.659 287.515,236.326 290.5,235.5C 289.677,243.471 289.344,251.471 289.5,259.5C 293.767,259.797 297.934,259.464 302,258.5C 302.579,247.167 303.079,235.834 303.5,224.5C 304.234,223.292 304.567,221.959 304.5,220.5C 304.5,219.833 304.5,219.167 304.5,218.5C 306.453,217.095 307.453,217.761 307.5,220.5C 306.979,222.524 306.812,224.524 307,226.5C 308.415,223.042 308.915,219.375 308.5,215.5C 305.794,215.688 303.461,216.688 301.5,218.5C 298.375,217.521 295.042,217.187 291.5,217.5C 290.671,222.453 290.337,227.453 290.5,232.5C 288.33,234.086 285.996,235.42 283.5,236.5C 283.5,235.5 283.5,234.5 283.5,233.5C 279.486,233.334 275.486,233.501 271.5,234C 270.565,236.381 270.232,238.881 270.5,241.5C 268.621,242.341 266.621,242.675 264.5,242.5C 264.5,237.5 264.5,232.5 264.5,227.5C 260.167,227.5 255.833,227.5 251.5,227.5C 251.5,232.833 251.5,238.167 251.5,243.5C 251.167,243.5 250.833,243.5 250.5,243.5C 250.662,241.473 250.495,239.473 250,237.5C 249.51,238.793 249.343,240.127 249.5,241.5C 246.833,241.5 244.167,241.5 241.5,241.5C 241.334,231.494 241.5,221.494 242,211.5C 242.236,209.236 242.736,207.069 243.5,205C 266.5,204.333 289.5,204.333 312.5,205C 313.097,206.062 313.43,207.228 313.5,208.5C 311.669,227.129 310.836,245.796 311,264.5C 312.152,244.583 313.652,224.749 315.5,205C 402.164,203.833 402.164,203 315.5,202.5C 316.439,182.504 316.939,162.504 317,142.5C 315.418,162.478 314.251,182.478 313.5,202.5C 290.164,202.667 266.831,202.5 243.5,202C 242.892,200.769 242.559,199.436 242.5,198C 244.02,179.52 244.853,161.02 245,142.5C 243.632,162.16 242.299,181.827 241,201.5C 240.617,202.056 240.117,202.389 239.5,202.5C 240.276,195.863 240.609,189.196 240.5,182.5C 237.5,182.5 234.5,182.5 231.5,182.5C 231.5,179.5 231.5,176.5 231.5,173.5C 227.557,172.514 223.557,171.848 219.5,171.5C 219.5,171.167 219.5,170.833 219.5,170.5C 224.179,170.666 228.845,170.499 233.5,170C 236.167,168.333 236.167,166.667 233.5,165C 220.167,164.333 206.833,164.333 193.5,165C 191.473,166.396 191.14,168.062 192.5,170C 197.155,170.499 201.821,170.666 206.5,170.5C 206.037,173.482 205.704,176.482 205.5,179.5C 202.501,182.758 199.001,185.425 195,187.5C 191.345,185.012 188.178,182.012 185.5,178.5C 186.366,176.856 186.866,175.189 187,173.5C 182.841,167.485 178.008,162.152 172.5,157.5C 172.334,151.491 172.501,145.491 173,139.5C 173.5,139 174,138.5 174.5,138C 245.833,137.333 317.167,137.333 388.5,138C 389.131,139.906 389.464,141.906 389.5,144C 387.346,178.483 385.513,212.983 384,247.5C 383.302,254.735 382.468,261.902 381.5,269C 311.834,269.5 242.167,269.667 172.5,269.5 Z M 230.5,244.5 C 229.137,248.632 228.137,252.965 227.5,257.5C 212.503,256.44 197.503,255.44 182.5,254.5C 181.711,254.217 181.044,253.717 180.5,253C 183.809,239.311 186.309,225.478 188,211.5C 203.084,213.212 218.251,214.545 233.5,215.5C 232.911,225.212 231.911,234.879 230.5,244.5 Z M 254.5,151.5 C 254.628,153.655 254.128,155.655 253,157.5C 252.517,156.552 252.351,155.552 252.5,154.5C 252.285,152.821 252.952,151.821 254.5,151.5 Z"/></g>
<g><path style="opacity:0.912" fill="#4e6070" d="M 392.5,133.5 C 394.922,134.692 395.922,136.692 395.5,139.5C 394.532,153.323 393.532,166.99 392.5,180.5C 392.5,175.833 392.5,171.167 392.5,166.5C 393.217,155.456 393.217,144.456 392.5,133.5 Z"/></g>
<g><path style="opacity:0.993" fill="#20333a" d="M 144.5,152.5 C 149.5,152.5 154.5,152.5 159.5,152.5C 160.506,152.938 160.506,153.604 159.5,154.5C 153.355,155.49 147.022,155.823 140.5,155.5C 140.5,154.5 140.5,153.5 140.5,152.5C 141.833,152.5 143.167,152.5 144.5,152.5 Z"/></g>
<g><path style="opacity:1" fill="#014b92" d="M 193.5,153.5 C 205.5,153.5 217.5,153.5 229.5,153.5C 229.5,155.167 229.5,156.833 229.5,158.5C 217.167,158.5 204.833,158.5 192.5,158.5C 192.366,156.708 192.699,155.042 193.5,153.5 Z"/></g>
<g><path style="opacity:1" fill="#4895fd" d="M 159.5,154.5 C 162.303,155.928 165.303,156.595 168.5,156.5C 169.568,157.434 170.901,157.768 172.5,157.5C 178.008,162.152 182.841,167.485 187,173.5C 186.866,175.189 186.366,176.856 185.5,178.5C 182.119,180.88 179.453,183.88 177.5,187.5C 176.883,187.611 176.383,187.944 176,188.5C 165.569,181.512 164.902,182.846 174,192.5C 174.102,202.275 173.269,211.941 171.5,221.5C 158.5,221.5 145.5,221.5 132.5,221.5C 132.5,217.833 132.5,214.167 132.5,210.5C 133.482,207.038 133.815,203.371 133.5,199.5C 133.826,195.116 133.492,190.783 132.5,186.5C 131.473,187.791 130.473,187.791 129.5,186.5C 126.48,183.484 123.146,180.817 119.5,178.5C 118.305,178.134 117.639,177.301 117.5,176C 119.335,170.497 121.835,165.33 125,160.5C 129.639,157.331 134.806,155.664 140.5,155.5C 147.022,155.823 153.355,155.49 159.5,154.5 Z"/></g>
<g><path style="opacity:1" fill="#0270e1" d="M 324.5,194.5 C 323.837,192.359 323.503,190.025 323.5,187.5C 323.822,175.214 324.822,163.048 326.5,151C 343.741,150.175 360.907,150.342 378,151.5C 377.999,165.849 377.333,180.182 376,194.5C 375.5,195 375,195.5 374.5,196C 358.167,196.667 341.833,196.667 325.5,196C 324.944,195.617 324.611,195.117 324.5,194.5 Z"/></g>
<g><path style="opacity:1" fill="#055db4" d="M 327.5,151.5 C 343.837,151.333 360.17,151.5 376.5,152C 377.444,154.719 377.777,157.552 377.5,160.5C 360.5,160.5 343.5,160.5 326.5,160.5C 326.264,157.391 326.597,154.391 327.5,151.5 Z"/></g>
<g><path style="opacity:1" fill="#045db4" d="M 324.5,194.5 C 324.909,183.476 325.575,172.476 326.5,161.5C 330.167,161.5 333.833,161.5 337.5,161.5C 336.425,172.472 335.759,183.472 335.5,194.5C 331.833,194.5 328.167,194.5 324.5,194.5 Z"/></g>
<g><path style="opacity:1" fill="#0460ba" d="M 338.5,161.5 C 351.167,161.5 363.833,161.5 376.5,161.5C 376.553,172.432 375.887,183.265 374.5,194C 361.838,194.5 349.171,194.667 336.5,194.5C 337.323,183.513 337.989,172.513 338.5,161.5 Z"/></g>
<g><path style="opacity:1" fill="#054d95" d="M 219.5,170.5 C 217.45,170.039 215.45,169.372 213.5,168.5C 212.148,169.524 210.815,170.524 209.5,171.5C 208.791,170.596 207.791,170.263 206.5,170.5C 201.821,170.666 197.155,170.499 192.5,170C 191.14,168.062 191.473,166.396 193.5,165C 206.833,164.333 220.167,164.333 233.5,165C 236.167,166.667 236.167,168.333 233.5,170C 228.845,170.499 224.179,170.666 219.5,170.5 Z"/></g>
<g><path style="opacity:1" fill="#f6c0be" d="M 219.5,170.5 C 219.5,170.833 219.5,171.167 219.5,171.5C 214.318,179.374 208.651,187.041 202.5,194.5C 200.407,195.045 198.407,195.878 196.5,197C 194.5,197.667 192.5,197.667 190.5,197C 186.008,194.002 181.675,190.835 177.5,187.5C 179.453,183.88 182.119,180.88 185.5,178.5C 188.178,182.012 191.345,185.012 195,187.5C 199.001,185.425 202.501,182.758 205.5,179.5C 207.755,177.469 209.088,174.802 209.5,171.5C 210.815,170.524 212.148,169.524 213.5,168.5C 215.45,169.372 217.45,170.039 219.5,170.5 Z"/></g>
<g><path style="opacity:1" fill="#187cf9" d="M 206.5,170.5 C 207.791,170.263 208.791,170.596 209.5,171.5C 209.088,174.802 207.755,177.469 205.5,179.5C 205.704,176.482 206.037,173.482 206.5,170.5 Z"/></g>
<g><path style="opacity:1" fill="#077bfc" d="M 219.5,171.5 C 223.557,171.848 227.557,172.514 231.5,173.5C 231.5,176.5 231.5,179.5 231.5,182.5C 229.803,187.959 228.469,193.626 227.5,199.5C 224.482,199.296 221.482,198.963 218.5,198.5C 214.34,197.643 210.007,196.976 205.5,196.5C 203.97,196.36 202.97,195.693 202.5,194.5C 208.651,187.041 214.318,179.374 219.5,171.5 Z"/></g>
<g><path style="opacity:0.979" fill="#fcc6c2" d="M 119.5,178.5 C 123.146,180.817 126.48,183.484 129.5,186.5C 126.327,188.741 124.327,191.908 123.5,196C 124.519,200.368 127.186,202.368 131.5,202C 132.066,201.005 132.733,200.172 133.5,199.5C 133.815,203.371 133.482,207.038 132.5,210.5C 112.159,206.475 107.826,195.809 119.5,178.5 Z"/></g>
<g><path style="opacity:1" fill="#154a83" d="M 231.5,182.5 C 234.5,182.5 237.5,182.5 240.5,182.5C 240.609,189.196 240.276,195.863 239.5,202.5C 239.5,203.167 239.5,203.833 239.5,204.5C 239.5,205.833 239.5,207.167 239.5,208.5C 231.167,208.5 222.833,208.5 214.5,208.5C 214.5,205.167 214.5,201.833 214.5,198.5C 215.833,198.5 217.167,198.5 218.5,198.5C 221.482,198.963 224.482,199.296 227.5,199.5C 228.469,193.626 229.803,187.959 231.5,182.5 Z"/></g>
<g><path style="opacity:1" fill="#495e78" d="M 392.5,166.5 C 392.5,171.167 392.5,175.833 392.5,180.5C 391.332,210.191 389.832,239.857 388,269.5C 387.8,271.32 386.966,272.653 385.5,273.5C 387.957,237.715 390.29,202.049 392.5,166.5 Z"/></g>
<g><path style="opacity:1" fill="#1f67b7" d="M 250.5,243.5 C 248.409,243.682 246.409,243.348 244.5,242.5C 244.167,242.667 243.833,242.833 243.5,243C 244.571,243.852 245.571,244.685 246.5,245.5C 244.833,245.5 243.167,245.5 241.5,245.5C 241.279,251.94 240.279,258.274 238.5,264.5C 238.811,245.76 239.811,226.926 241.5,208C 241.613,206.301 240.947,205.134 239.5,204.5C 239.5,203.833 239.5,203.167 239.5,202.5C 240.117,202.389 240.617,202.056 241,201.5C 242.299,181.827 243.632,162.16 245,142.5C 244.853,161.02 244.02,179.52 242.5,198C 242.559,199.436 242.892,200.769 243.5,202C 266.831,202.5 290.164,202.667 313.5,202.5C 314.251,182.478 315.418,162.478 317,142.5C 316.939,162.504 316.439,182.504 315.5,202.5C 402.164,203 402.164,203.833 315.5,205C 313.652,224.749 312.152,244.583 311,264.5C 310.836,245.796 311.669,227.129 313.5,208.5C 313.43,207.228 313.097,206.062 312.5,205C 289.5,204.333 266.5,204.333 243.5,205C 242.736,207.069 242.236,209.236 242,211.5C 241.5,221.494 241.334,231.494 241.5,241.5C 244.167,241.5 246.833,241.5 249.5,241.5C 249.343,240.127 249.51,238.793 250,237.5C 250.495,239.473 250.662,241.473 250.5,243.5 Z M 254.5,151.5 C 254.628,153.655 254.128,155.655 253,157.5C 252.517,156.552 252.351,155.552 252.5,154.5C 252.285,152.821 252.952,151.821 254.5,151.5 Z"/></g>
<g><path style="opacity:1" fill="#ebf2fa" d="M 304.5,218.5 C 302.139,220.347 299.472,221.68 296.5,222.5C 295.167,221.833 295.167,221.167 296.5,220.5C 298.195,219.826 299.862,219.159 301.5,218.5C 303.461,216.688 305.794,215.688 308.5,215.5C 308.915,219.375 308.415,223.042 307,226.5C 306.812,224.524 306.979,222.524 307.5,220.5C 307.453,217.761 306.453,217.095 304.5,218.5 Z"/></g>
<g><path style="opacity:1" fill="#127dfa" d="M 301.5,218.5 C 299.862,219.159 298.195,219.826 296.5,220.5C 295.167,221.167 295.167,221.833 296.5,222.5C 299.472,221.68 302.139,220.347 304.5,218.5C 304.5,219.167 304.5,219.833 304.5,220.5C 300.246,224.963 295.579,228.963 290.5,232.5C 290.337,227.453 290.671,222.453 291.5,217.5C 295.042,217.187 298.375,217.521 301.5,218.5 Z"/></g>
<g><path style="opacity:1" fill="#15518f" d="M 276.5,171.5 C 276.5,174.167 276.5,176.833 276.5,179.5C 267.435,180.136 258.769,179.47 250.5,177.5C 253.833,177.5 257.167,177.5 260.5,177.5C 265.305,178.487 270.305,178.821 275.5,178.5C 275.5,177.5 275.5,176.5 275.5,175.5C 275.232,173.901 275.566,172.568 276.5,171.5 Z"/></g>
<g><path style="opacity:1" fill="#9eb3ca" d="M 275.5,175.5 C 275.5,176.5 275.5,177.5 275.5,178.5C 270.305,178.821 265.305,178.487 260.5,177.5C 265.807,178.026 270.807,177.36 275.5,175.5 Z"/></g>
<g><path style="opacity:1" fill="#007bfd" d="M 282.5,169.5 C 291.167,169.5 299.833,169.5 308.5,169.5C 308.262,178.171 307.928,186.838 307.5,195.5C 298.812,195.413 290.146,195.747 281.5,196.5C 282.218,187.518 282.552,178.518 282.5,169.5 Z"/></g>
<g><path style="opacity:0.981" fill="#fcfcfd" d="M 254.5,151.5 C 256.833,151.5 259.167,151.5 261.5,151.5C 266.833,151.5 272.167,151.5 277.5,151.5C 276.788,158.143 276.454,164.809 276.5,171.5C 275.566,172.568 275.232,173.901 275.5,175.5C 270.807,177.36 265.807,178.026 260.5,177.5C 257.167,177.5 253.833,177.5 250.5,177.5C 249.853,176.726 249.52,175.726 249.5,174.5C 250.825,167.895 251.491,161.228 251.5,154.5C 251.833,154.5 252.167,154.5 252.5,154.5C 252.351,155.552 252.517,156.552 253,157.5C 254.128,155.655 254.628,153.655 254.5,151.5 Z"/></g>
<g><path style="opacity:1" fill="#97b9de" d="M 261.5,151.5 C 259.167,151.5 256.833,151.5 254.5,151.5C 252.952,151.821 252.285,152.821 252.5,154.5C 252.167,154.5 251.833,154.5 251.5,154.5C 251.5,153.167 251.5,151.833 251.5,150.5C 255.042,150.187 258.375,150.521 261.5,151.5 Z"/></g>
<g><path style="opacity:1" fill="#1d3037" d="M 132.5,221.5 C 145.5,221.5 158.5,221.5 171.5,221.5C 172.496,237.325 172.83,253.325 172.5,269.5C 172.5,271.167 172.5,272.833 172.5,274.5C 172.642,288.855 172.142,303.189 171,317.5C 168.562,342.818 166.395,368.151 164.5,393.5C 159.833,393.5 155.167,393.5 150.5,393.5C 150.142,358.834 149.808,324.167 149.5,289.5C 149.665,286.15 149.498,282.817 149,279.5C 147.812,280.563 147.312,281.897 147.5,283.5C 146.088,295.06 143.588,306.393 140,317.5C 132.124,342.294 123.957,366.961 115.5,391.5C 110.475,392.597 105.475,392.264 100.5,390.5C 108.241,366.204 114.741,341.537 120,316.5C 124.643,284.877 128.81,253.211 132.5,221.5 Z"/></g>
<g><path style="opacity:1" fill="#027bfb" d="M 303.5,224.5 C 303.079,235.834 302.579,247.167 302,258.5C 297.934,259.464 293.767,259.797 289.5,259.5C 289.344,251.471 289.677,243.471 290.5,235.5C 295.102,232.238 299.435,228.572 303.5,224.5 Z"/></g>
<g><path style="opacity:1" fill="#037bfc" d="M 264.5,242.5 C 260.265,243.436 255.931,243.769 251.5,243.5C 251.5,238.167 251.5,232.833 251.5,227.5C 255.833,227.5 260.167,227.5 264.5,227.5C 264.5,232.5 264.5,237.5 264.5,242.5 Z"/></g>
<g><path style="opacity:1" fill="#077af6" d="M 283.5,236.5 C 279.407,238.754 275.073,240.421 270.5,241.5C 270.232,238.881 270.565,236.381 271.5,234C 275.486,233.501 279.486,233.334 283.5,233.5C 283.5,234.5 283.5,235.5 283.5,236.5 Z"/></g>
<g><path style="opacity:1" fill="#dfebfa" d="M 304.5,220.5 C 304.567,221.959 304.234,223.292 303.5,224.5C 299.435,228.572 295.102,232.238 290.5,235.5C 287.515,236.326 284.849,237.659 282.5,239.5C 278.486,240.843 274.486,242.176 270.5,243.5C 267.059,244.097 263.725,244.763 260.5,245.5C 257.167,245.5 253.833,245.5 250.5,245.5C 249.167,245.5 247.833,245.5 246.5,245.5C 245.571,244.685 244.571,243.852 243.5,243C 243.833,242.833 244.167,242.667 244.5,242.5C 246.409,243.348 248.409,243.682 250.5,243.5C 250.833,243.5 251.167,243.5 251.5,243.5C 255.931,243.769 260.265,243.436 264.5,242.5C 266.621,242.675 268.621,242.341 270.5,241.5C 275.073,240.421 279.407,238.754 283.5,236.5C 285.996,235.42 288.33,234.086 290.5,232.5C 295.579,228.963 300.246,224.963 304.5,220.5 Z"/></g>
<g><path style="opacity:1" fill="#097bfb" d="M 282.5,239.5 C 282.644,245.943 282.644,252.61 282.5,259.5C 278.167,259.5 273.833,259.5 269.5,259.5C 269.833,254.167 270.167,248.833 270.5,243.5C 274.486,242.176 278.486,240.843 282.5,239.5 Z"/></g>
<g><path style="opacity:1" fill="#dee8f3" d="M 343.5,214.5 C 351.377,213.5 358.711,215 365.5,219C 368.059,220.323 368.725,222.157 367.5,224.5C 362.874,218.458 356.708,215.791 349,216.5C 330.853,218.464 324.52,228.131 330,245.5C 335.669,251.212 342.503,253.045 350.5,251C 363.357,248.516 368.524,241.016 366,228.5C 364.693,227.228 363.193,226.228 361.5,225.5C 362.365,224.417 363.365,224.251 364.5,225C 365.667,226.167 366.833,227.333 368,228.5C 370.128,241.733 364.628,249.9 351.5,253C 329.563,254.972 322.063,245.472 329,224.5C 332.977,219.774 337.811,216.441 343.5,214.5 Z"/></g>
<g><path style="opacity:1" fill="#007afa" d="M 250.5,245.5 C 253.833,245.5 257.167,245.5 260.5,245.5C 261.5,245.5 262.5,245.5 263.5,245.5C 263.666,249.846 263.499,254.179 263,258.5C 258.934,259.464 254.767,259.797 250.5,259.5C 250.5,254.833 250.5,250.167 250.5,245.5 Z"/></g>
<g><path style="opacity:1" fill="#325c90" d="M 230.5,244.5 C 230.387,249.518 230.053,254.518 229.5,259.5C 213.84,258.707 198.173,258.04 182.5,257.5C 182.5,256.5 182.5,255.5 182.5,254.5C 197.503,255.44 212.503,256.44 227.5,257.5C 228.137,252.965 229.137,248.632 230.5,244.5 Z"/></g>
<g><path style="opacity:0.997" fill="#27383f" d="M 269.5,274.5 C 271.833,274.5 274.167,274.5 276.5,274.5C 273.833,320.166 271.167,365.833 268.5,411.5C 266.167,411.5 263.833,411.5 261.5,411.5C 264.078,365.829 266.745,320.162 269.5,274.5 Z"/></g>
<g><path style="opacity:0.998" fill="#273940" d="M 295.5,274.5 C 297.833,274.5 300.167,274.5 302.5,274.5C 305.707,320.148 308.707,365.815 311.5,411.5C 309.167,411.5 306.833,411.5 304.5,411.5C 301.544,365.83 298.544,320.164 295.5,274.5 Z"/></g>
<g><path style="opacity:0.176" fill="#788285" d="M 149.5,289.5 C 148.833,287.5 148.167,285.5 147.5,283.5C 147.312,281.897 147.812,280.563 149,279.5C 149.498,282.817 149.665,286.15 149.5,289.5 Z"/></g>
<g><path style="opacity:1" fill="#3181f6" d="M 100.5,390.5 C 105.475,392.264 110.475,392.597 115.5,391.5C 116.523,393.577 116.19,395.577 114.5,397.5C 109.7,397.65 105.033,396.984 100.5,395.5C 98.1493,394.084 98.1493,392.417 100.5,390.5 Z"/></g>
<g><path style="opacity:1" fill="#2880fb" d="M 150.5,393.5 C 155.167,393.5 159.833,393.5 164.5,393.5C 165.139,394.097 165.472,394.93 165.5,396C 165.316,397.376 164.649,398.209 163.5,398.5C 159.167,398.5 154.833,398.5 150.5,398.5C 148.078,396.714 148.078,395.048 150.5,393.5 Z"/></g>
<g><path style="opacity:0.917" fill="#f1c2bf" d="M 100.5,395.5 C 105.033,396.984 109.7,397.65 114.5,397.5C 113.048,398.302 111.382,398.802 109.5,399C 108.62,400.356 108.286,401.856 108.5,403.5C 107.5,403.833 106.833,404.5 106.5,405.5C 103.518,405.037 100.518,404.704 97.5,404.5C 100.328,402.017 101.328,399.017 100.5,395.5 Z"/></g>
<g><path style="opacity:0.612" fill="#f7c4c0" d="M 150.5,398.5 C 154.833,398.5 159.167,398.5 163.5,398.5C 161.273,400.229 160.273,402.562 160.5,405.5C 160.5,406.167 160.5,406.833 160.5,407.5C 157.833,407.5 155.167,407.5 152.5,407.5C 152.357,405.738 152.691,404.071 153.5,402.5C 152.476,401.148 151.476,399.815 150.5,398.5 Z"/></g>
<g><path style="opacity:0.999" fill="#273940" d="M 97.5,404.5 C 100.518,404.704 103.518,405.037 106.5,405.5C 107.728,406.306 108.728,407.306 109.5,408.5C 112.312,410.076 114.978,411.91 117.5,414C 117.167,414.333 116.833,414.667 116.5,415C 109.431,414.821 102.431,413.821 95.5,412C 95.0426,411.586 94.7093,411.086 94.5,410.5C 95.5133,408.473 96.5133,406.473 97.5,404.5 Z"/></g>
<g><path style="opacity:0.388" fill="#8fbbee" d="M 108.5,403.5 C 110.373,404.896 110.706,406.563 109.5,408.5C 108.728,407.306 107.728,406.306 106.5,405.5C 106.833,404.5 107.5,403.833 108.5,403.5 Z"/></g>
<g><path style="opacity:0.684" fill="#8cb9ef" d="M 164.5,409.5 C 163.167,408.833 161.833,408.167 160.5,407.5C 160.5,406.833 160.5,406.167 160.5,405.5C 162.505,404.876 164.172,405.71 165.5,408C 164.944,408.383 164.611,408.883 164.5,409.5 Z"/></g>
<g><path style="opacity:0.997" fill="#22343b" d="M 152.5,407.5 C 155.167,407.5 157.833,407.5 160.5,407.5C 161.833,408.167 163.167,408.833 164.5,409.5C 168.416,410.645 172.416,411.478 176.5,412C 177.337,413.011 177.67,414.178 177.5,415.5C 168.167,415.5 158.833,415.5 149.5,415.5C 149.518,412.264 150.518,409.597 152.5,407.5 Z"/></g>
</svg>
